<?xml version="1.0" encoding="UTF-8"?><svg id="AIrtwork" xmlns="http://www.w3.org/2000/svg" viewBox="0 0 1000 1000"><path d="m444.1115,847.3684h-33.1032c-6.8841-4.4622-14.0161-19.0889-14.1871-26.6545-.0664-2.9379,2.1753-8.9403,2.5795-12.0375,12.4116,15.5322,27.6699,28.4849,44.7108,38.692Z" style="fill:#cbc7aa; stroke-width:0px;"/><path d="m268.7077,576.5242c-4.3941,10.2161-8.6852,31.4059-6.8786,42.1313-.859,16.1214,1.9826,34.5462,4.2991,50.7295-1.156,5.6438-4.6958,2.1199-9.4581,2.5795-9.0309-77.0177,9.1548-146.0238,63.6269-202.0584-30.311,39.4108-41.9979,57.8763-51.5894,106.618Z" style="fill:#e1664d; stroke-width:0px;"/><path d="m361.5685,465.6071c-.8249,4.333-2.9393,7.692-2.5795,10.7478,6.3376,19.1276,13.9993,7.3171,11.1777,23.2152-.1862,1.049-2.551,3.2262-2.5795,3.4393-1.633,12.2057-.8027,21.3778,5.1589,32.2434,5.0868,9.2711,20.3674,22.7073,13.7572,7.7384,1.0065.0513,1.9212,1.7953,2.1496,1.7196.3938-.1304.1496-.7688,1.2897-1.7196,5.1432,2.977,1.6159,10.7109,2.5795,16.7665,1.589,9.9858,6.6598,15.4276,3.4393,43.851-4.9967,9.5508-2.7787,18.7019-3.4393,21.4956-.4229,1.7887-8.0334,10.6567-6.0188,16.3366.2692.7589,1.6912.337,1.7196.4299.395,1.2925,2.3003.1689,1.7196,3.8692-.3437,2.1908-15.1101,24.5704-19.7759,39.5518-1.3588,4.3629-6.3839,26.2343-3.4393,27.0844-1.8793,9.4509.5449,30.6734-1.7196,23.6451-.7197-2.2337,2.0657-13.5815-7.3085-9.0281-6.6177,3.2144.3558,13.8617-.4299,28.8041q1.7196,1.0748,3.4393,2.1496c.4167,1.438-.5192,12.7489-.8598,15.4768-.649,5.197-3.2591,14.1557-5.1589,19.346-.0668,2.6802-.377,4.6133,0,7.3085-13.3784-8.6923-25.5526-18.352-41.7014-21.4956-12.5936-12.5144-19.4937-29.4838-29.6639-43.851-2.4903-5.8061-2.948-10.6878-3.4393-12.0375-2.0395-5.6032-6.0188-12.2041-7.7384-18.4862-2.7395-11.5079-4.345-23.1296-6.0188-34.8228-2.3165-16.1834-5.1581-34.6082-4.2991-50.7295.4788-8.9865,4.8114-31.6261,6.8786-42.1313,9.5915-48.7417,21.2784-67.2072,51.5894-106.618,14.1204-14.5254,26.9271-24.0079,42.1313-36.9724,9.8462,7.8992,2.275,16.2067-.8598,32.6733Z" style="fill:#f6e3a2; stroke-width:0px;"/><path d="m290.6331,594.5805c3.6652-.3228,6.9897,2.6917,6.4487,3.8692-15.7587-4.679-13.9389,14.3664-14.617,15.4768-5.0629,8.2911-4.6792-18.2144,8.1683-19.346Z" style="fill:#0d0c0a; stroke-width:0px;"/><path d="m261.8291,618.6555c-1.8066-10.7254,2.4845-31.9152,6.8786-42.1313-2.0672,10.5052-6.3997,33.1448-6.8786,42.1313Z" style="fill:#5a1307; stroke-width:0px;"/><path d="m292.3528,704.6378c2.6537-.089,2.8041,3.6768.8598,4.2991-2.4459.7828-3.6102-4.2069-.8598-4.2991Z" style="fill:#0d0c0a; stroke-width:0px;"/><path d="m351.6806,637.5716c1.3153-.3575,3.3495.6129,3.0094,2.1496-.6158,2.7825-6.5351-1.1912-3.0094-2.1496Z" style="fill:#102712; stroke-width:0px;"/><path d="m347.3815,586.8421c2.85-.1778,2.7408,1.853,1.7196,2.5795-1.7989,1.2797-4.1228-2.4295-1.7196-2.5795Z" style="fill:#102712; stroke-width:0px;"/><path d="m284.6144,690.0208c2.0254-.3357,2.5452,2.3002.8598,2.5795-2.0254.3357-2.5452-2.3002-.8598-2.5795Z" style="fill:#1c1602; stroke-width:0px;"/><path d="m279.8854,722.6941c-12.8363,1.2179,17.5954,47.3026,24.9349,49.4398-7.8335-12.1208-16.4543-23.7416-21.4956-37.4023,10.1702,14.3671,17.0702,31.3366,29.6639,43.851,16.1488,3.1436,28.323,12.8033,41.7014,21.4956.3169,2.2655,1.7032,3.9988,2.5795,6.0188-2.0449,9.4276-2.1186,18.9267-3.4393,28.3742-40.6299-29.4789-69.1262-64.9656-85.1225-112.6368,3.6673-1.6553-5.5586-24.0498-8.5982-33.5331-1.0337-5.4081-2.7931-10.8254-3.4393-16.3366,4.7623-.4596,8.302,3.0643,9.4581-2.5795,1.6738,11.6932,3.2792,23.3149,6.0188,34.8228,1.7196,6.282,5.6989,12.883,7.7384,18.4862Z" style="fill:#e1664d; stroke-width:0px;"/><path d="m268.7077,721.8343c-4.3593-12.9914-6.0425-20.1629-8.5982-33.5331,3.0396,9.4833,12.2655,31.8778,8.5982,33.5331Z" style="fill:#5a1307; stroke-width:0px;"/><path d="m283.3247,734.7316c5.0413,13.6607,13.662,25.2815,21.4956,37.4023-7.3395-2.1372-37.7711-48.2219-24.9349-49.4398.4913,1.3497.949,6.2314,3.4393,12.0375Z" style="fill:#702417; stroke-width:0px;"/><path d="m319.8671,788.9005q11.8226,7.0935,23.6451,14.1871c-1.1452,3.3299-26.5935-13.0716-23.6451-14.1871Z" style="fill:#702417; stroke-width:0px;"/><path d="m453.5696,743.3299c-2.9898,2.3078-1.2556,15.2844,0,18.9161-1.0455-.0958-.8149.8188-.8598.8598-3.9186,3.5748-4.1789,22.1972.8598,24.075.0268.571-.0267,1.1486,0,1.7196.4718,10.1006.897,20.8585,0,30.9536-5.6799-6.056-20.6561-15.8728-25.7947-22.7853-6.2883-8.4592-6.2842-20.7754-22.3554-27.9442.6508-4.5064,1.1806-9.2323,0-13.7572,2.8693-1.166.7516-1.8205.8598-2.5795.0355-.2491,1.0065.1125,1.7196-4.729.0538-.3652-1.7437-2.0141-1.7196-2.1496,1.952-11.0155,10.2135-28.5204,14.617-39.5518,1.1738-2.9404,5.5484-9.751,7.7384-15.4768q2.5795-6.8786,5.1589-13.7572c1.3685-4.083,1.1159-8.7469,2.5795-12.8973,8.5029-24.1135,17.4185-48.0762,25.7947-72.2251,1.572,12.4764-2.418,19.9297-2.5795,21.0657-1.1675,8.2136-5.2081,32.7511-5.1589,38.692.0562,6.7902,3.726,9.3032,2.5795,16.3366-3.2615,22.8825-11.5058,53.885-3.4393,75.2345Z" style="fill:#f6e3a2; stroke-width:0px;"/><path d="m453.5696,819.8541c.7004.7468,3.3224,3.226,3.4393,3.4393,3.9318,7.176-12.0546,7.0475-5.1589,27.5143-2.581-.6787-5.4639-2.0769-7.7384-3.4393-17.0409-10.2071-32.2991-23.1598-44.7108-38.692.7186-5.5066,1.867-10.8607,2.5795-16.3366.2595-1.9945-.0109-1.6344,0-1.7196.9078-7.0711,2.4174-14.4202,3.4393-21.4956,16.0712,7.1688,16.0671,19.485,22.3554,27.9442,5.1386,6.9125,20.1148,16.7293,25.7947,22.7853Z" style="fill:#e1664d; stroke-width:0px;"/><path d="m411.8682,800.938q14.402,8.3833,28.8041,16.7665c-.7684,1.4995-28.4551-12.3675-28.8041-16.7665Z" style="fill:#702417; stroke-width:0px;"/><path d="m441.962,826.7327c10.3136-.3996-5.2297,4.5815-5.5888,3.8692-1.0499-2.0819,4.1808-3.8147,5.5888-3.8692Z" style="fill:#3f0d03; stroke-width:0px;"/><path d="m753.6477,641.8708c-.1234,14.409-1.6993,29.9668-5.1589,43.851-2.98,2.1836-4.1491,11.3559-8.5982,19.346-1.8955,3.4041-12.5773,16.8314-15.4768,19.346-9.6464,8.3659-.7968,1.5951-18.0563-15.0469,15.1188,1.782-1.0859-4.1927-6.0188-6.4487,6.7802-11.905.39-18.5055,1.2897-18.9161,13.4201,11.0107,38.0775,12.7644,36.5425,8.1683-21.8048,5.5936-43.3969-18.441-49.8697-19.346q.4299-3.8692.8598-7.7384c19.6628,3.9932,36.6205,46.9936,55.8885-.8598.9392-2.3326,1.8179-4.4569,2.5795-6.8786,1.8025-5.7321,5.6219-13.004,3.4393-18.9161,2.3553-9.309,2.6356-3.1155,2.5795,3.4393Z" style="fill:#e1664d; stroke-width:0px;"/><path d="m674.544,666.8056c-12.3407,13.26-8.7889,11.6186-4.2991,17.1965,5.2264,6.493,12.8973,11.6119,20.6357,14.617,6.1941,5.3726,7.3315,2.3899,7.7384,2.5795,1.2979.6047.4233,1.1268,1.7196,1.7196,4.9329,2.256,21.1376,8.2307,6.0188,6.4487,17.2594,16.642,8.4099,23.4128,18.0563,15.0469l1.7196,1.7196c-7.9621,11.6018-12.6022,25.8549-26.6545,30.9536-19.187,6.9618-25.2606-.7065-39.9818-11.1777-4.4373-.4992-21.8541,13.1318-41.2715,6.0188-18.8069-6.8894-12.9974-30.2789-36.9724-41.2715-.3897,13.3638,8.6097,17.3726.4299,36.1126-.7844,1.797-8.5746,13.1699-10.3179,15.4768-31.7805,42.0552-38.667,9.5507-46.0005,7.7384-4.4447-1.0984-9.9289,2.1721-10.7478,0,13.4942-12.6181,18.603,10.6204,28.8041,10.3179,8.3752-.2484,17.7568-14.6583,22.7853-20.6357,2.9433-3.4987,8.5813-7.136,11.1777-11.6076,13.3036-22.9126-12.667-40.6315,6.0188-63.6269-6.396-9.7858,7.5109-18.4532,7.7384-13.7572-8.3066,4.7278-4.513,8.0708-6.8786,20.2058-.0445.2282-2.3471,2.9158-2.5795,3.8692-4.5778,18.7832,6.4704,14.5469,17.1965,25.7947,3.5073,5.1292,6.8868,33.7405,37.4023,30.5237,7.0882-.7472,20.5459-9.2406,24.075-8.5982,15.5079,12.2437,21.0893,18.3219,39.9818,7.7384,46.9439-26.2977-23.8449-51.0439-38.2621-69.6456-29.1052,3.2356-19.3257-17.1761-33.5331-11.1777-2.4297,1.0259-7.8137,9.8132-9.4581,10.3179-6.7165,2.0615-28.0018-6.4336-18.4862-15.0469-4.0483-2.6692-9.0852-8.362-10.3179-12.8973-6.7595-24.8702,12.6957-26.1134,14.1871-27.0844,19.0174-12.3824,5.5108-37.5758,20.6357-49.0099,13.5723-10.2604,34.1754-.0002,49.8697-1.7196-.5114,5.1726-25.5702-1.3298-36.9724.8598-17.7751,3.4134-11.9981,24.9577-17.6264,36.5425-8.3126,17.11-25.386,14.7246-27.5143,26.6545-3.6235,20.3111,13.276,24.2778,13.7572,25.7947.9824,3.0967-12.7223,5.504,10.7478,14.1871,19.0597-24.3627,26.6933-8.78,28.3742-7.7384,14.1419,8.7637,19.9542-.1496,28.8041-3.4393Z" style="fill:#0d0c0a; stroke-width:0px;"/><path d="m670.2449,725.2736c-1.0549,1.5542-.1063,1.6374,0,3.4393-2.135-2.1234-7.0964-.1913-7.7384,2.1496-2.9447,10.7364,23.7572,16.3528,30.9536,17.6264,2.1832.3864,6.2033.6372,6.8786,1.7196-18.8925,10.5835-24.4738,4.5053-39.9818-7.7384-3.5292-.6424-16.9869,7.851-24.075,8.5982-30.5155,3.2168-33.895-25.3945-37.4023-30.5237-10.726-11.2478-21.7742-7.0115-17.1965-25.7947.2324-.9534,2.535-3.641,2.5795-3.8692-2.8635,23.83,13.2937,20.0206,18.9161,28.8041,7.4015,29.6264,45.3629,31.8392,58.8979,3.8692,3.115-.6995,5.429.9399,8.1683,1.7196Z" style="fill:#e1664d; stroke-width:0px;"/><path d="m670.2449,728.7129c.033.5583-.1101,1.2191,0,1.7196-8.4239,7.778,8.7362,8.4152,14.617,7.7384.6348.6842,8.0869,5.9008,8.5982,6.0188.2593.0598.5834-.0161.8598,0q-.4299,2.1496-.8598,4.2991c-7.1965-1.2736-33.8983-6.8899-30.9536-17.6264.642-2.3409,5.6034-4.2729,7.7384-2.1496Z" style="fill:#faac75; stroke-width:0px;"/><path d="m689.161,665.086q-.4299,3.8692-.8598,7.7384c-6.6709-.9328-9.7419,1.6769-13.7572,6.0188-1.48,1.6004-2.9727,3.4149-4.2991,5.1589-4.4898-5.5778-8.0416-3.9364,4.2991-17.1965,5.9518-2.2124,8.2183-3.0191,14.617-1.7196Z" style="fill:#c1444c; stroke-width:0px;"/><path d="m696.8994,737.3111c2.4213,4.9533.4048,4.9027-3.4393,6.8786-.5114-.118-7.9634-5.3346-8.5982-6.0188-.2616-.2819-2.4999-5.513-3.4393-6.8786,2.1602.9653,11.1823,1.9398,15.4768,6.0188Z" style="fill:#f48362; stroke-width:0px;"/><path d="m680.5628,731.2923c-1.4496,8.1685-8.571,7.0817-10.3179-.8598-.1101-.5005.033-1.1613,0-1.7196-.1063-1.8019-1.0549-1.8851,0-3.4393,8.2176,2.3392,9.7669,5.7883,10.3179,6.0188Z" style="fill:#f48362; stroke-width:0px;"/><path d="m680.5628,731.2923c.2441.1021.6214-.1065.8598,0,.9394,1.3656,3.1777,6.5967,3.4393,6.8786-5.8808.6768-23.0409.0396-14.617-7.7384,1.7468,7.9416,8.8683,9.0283,10.3179.8598Z" style="fill:#1a0c09; stroke-width:0px;"/><path d="m699.4789,757.087c8.6241,1.8942-.7258,5.6142-6.4487,7.7384-24.7718,9.1949-36.8132-1.836-43.851-2.5795-4.5204-.4775-18.1271,3.136-38.692-2.5795-10.2437-2.847-18.6747-9.9669-28.8041-12.8973,8.1798-18.74-.8196-22.7487-.4299-36.1126,23.975,10.9926,18.1655,34.382,36.9724,41.2715,19.4174,7.1131,36.8342-6.518,41.2715-6.0188,14.7212,10.4712,20.7948,18.1395,39.9818,11.1777Z" style="fill:#c1444c; stroke-width:0px;"/><path d="m514.617,769.9844c.8188,2.1721,6.3031-1.0984,10.7478,0,7.3335,1.8123,14.22,34.3168,46.0005-7.7384-3.0687,14.889,1.4442,34.1579-19.346,36.9724-23.6032,3.1953-45.3883-21.7664-37.4023-29.234Z" style="fill:#c1444c; stroke-width:0px;"/><path d="m641.8708,837.0505c-32.1515,19.9488-61.5941,27.5788-99.3095,27.5143-10.1177-5.5045-21.2483-8.9948-29.6639-17.1965-2.8094-3.6463-5.3414-6.6767-6.8786-11.1777-.2938-.8602.6391-2.5776-.8598-2.5795.0269-.5708-.0348-1.15,0-1.7196.1035-1.6928-.2055-3.4899,0-5.1589,1.0977-8.9136,2.5074-18.4548-1.7196-27.0844q.8598-9.888,1.7196-19.7759c-.7745-1.0914-2.5142-4.4677-2.5795-4.729-.3482-1.3941.6749-4.6758-1.7196-9.4581,1.6667-.2932,2.4266-1.6939,2.5795-1.7196,4.1202-.6928,8.5619-2.5247,9.0281-2.5795,31.1624-3.6599,26.2866,17.6799,38.692,10.3179,3.7674-2.2358,11.7091-14.6827,15.0469-12.0375-5.0285,5.9775-14.4101,20.3874-22.7853,20.6357-10.2011.3025-15.3099-22.936-28.8041-10.3179-7.9861,7.4676,13.799,32.4292,37.4023,29.234,20.7902-2.8145,16.2773-22.0833,19.346-36.9724,1.7433-2.3069,9.5335-13.6798,10.3179-15.4768,10.1293,2.9305,18.5604,10.0504,28.8041,12.8973,20.565,5.7155,34.1717,2.102,38.692,2.5795,7.0378.7435,19.0792,11.7744,43.851,2.5795,5.7228-2.1242,15.0728-5.8442,6.4487-7.7384,14.0523-5.0987,18.6924-19.3518,26.6545-30.9536,9.2578-13.49,15.1829-17.722,20.6357-34.3929,1.643-1.2981,1.4122,3.4645.8598,6.4487-10.3549,55.9453-58.5788,109.5883-105.7582,138.8614Z" style="fill:#e1664d; stroke-width:0px;"/><path d="m748.4888,685.7217c-.5361,2.1515-1.0302,3.9108-1.7196,6.0188-5.4528,16.6709-11.3779,20.9029-20.6357,34.3929l-1.7196-1.7196c2.8995-2.5147,13.5813-15.9419,15.4768-19.346,4.4491-7.9901,5.6182-17.1624,8.5982-19.346Z" style="fill:#5a1307; stroke-width:0px;"/><path d="m627.6837,788.0406c12.0452-1.385,1.849,9.1884,2.1496,9.888,1.0383,2.4167,13.3741-1.1156,8.1683,2.1496-11.5041,7.2155-9.1623-8.1833-11.1777-8.5982-27.1114,17.5736-59.6548,37.287-91.5711,42.5612,24.5002-8.4365,48.4398-18.5211,70.9354-31.3835,3.8224-2.1856,19.3717-14.3727,21.4956-14.617Z" style="fill:#1a0c09; stroke-width:0px;"/><path d="m547.7202,847.3684c10.7673-.6695-5.8004,15.9125,22.7853,3.0094-21.8538,15.8451-19.9829.4271-21.0657-.4299-2.0325-1.6088-13.6364,6.6152-17.1965,5.1589v-1.7196c4.6411.8882,12.481-5.8325,15.4768-6.0188Z" style="fill:#240200; stroke-width:0px;"/><path d="m607.9078,834.4711c2.9115-.1064-2.1485,3.1711-2.5795,3.4393-15.7454,9.8-19.2916,6.6492,2.5795-3.4393Z" style="fill:#5a1307; stroke-width:0px;"/><path d="m642.3007,818.1344c11.2033-2.9211-2.8265,8.7366-3.8692,3.8692-.0573-.2675,1.9892-3.379,3.8692-3.8692Z" style="fill:#0d0c0a; stroke-width:0px;"/><path d="m593.2908,776.0031c5.6907-1.8531,11.4272,2.7898-.8598,1.7196-.8632-.2336.4026-1.5708.8598-1.7196Z" style="fill:#3f0d03; stroke-width:0px;"/><path d="m669.815,799.2183c4.9205-.9146,2.7103,2.6446-2.5795,3.4393-1.5459-1.3956,2.0926-3.3488,2.5795-3.4393Z" style="fill:#5a1307; stroke-width:0px;"/><path d="m506.0188,836.1907h-.8598c-1.3809-1.8263-.0475-1.5718,0-2.5795,1.4989.0018.566,1.7193.8598,2.5795Z" style="fill:#6e7f91; stroke-width:0px;"/><path d="m688.3012,672.8244c6.4728.9051,28.0649,24.9396,49.8697,19.346,1.535,4.596-23.1224,2.8423-36.5425-8.1683-.8998.4106,5.4905,7.0111-1.2897,18.9161-1.2963-.5929-.4218-1.115-1.7196-1.7196,7.3156-13.5264-3.6676-29.545-18.9161-24.075-.8853.3176-2.9573.5603-5.1589,1.7196,4.0153-4.3419,7.0862-6.9515,13.7572-6.0188Z" style="fill:#240200; stroke-width:0px;"/><path d="m679.703,677.1235c2.9247-.3968,2.4581.7986,2.5795.8598-11.0845,6.61,10.5256,10.1925,1.7196.8598,9.179-3.556,10.6035,13.9818,6.8786,19.7759-7.7385-3.0051-15.4093-8.124-20.6357-14.617,1.3264-1.744,2.8191-3.5586,4.2991-5.1589,2.2016-1.1594,4.2737-1.4021,5.1589-1.7196Z" style="fill:#faac75; stroke-width:0px;"/><path d="m698.6191,701.1985c-.4069-.1896-1.5443,2.7931-7.7384-2.5795,3.7249-5.7941,2.3004-23.3319-6.8786-19.7759-.066-.0699-1.2841-.6402-1.7196-.8598-.1214-.0612.3453-1.2566-2.5795-.8598,15.2485-5.47,26.2317,10.5487,18.9161,24.075Z" style="fill:#e1664d; stroke-width:0px;"/><path d="m648.7493,455.2892c-8.1765,2.9573-2.3572,4.1918,2.5795,4.2991,1.3033.0283.5963-1.6302,1.2897-1.7196,4.8369-.6237,34.9981,25.9865,39.1219,32.6733-2.917-.3867-2.2403,3.5604.8598,3.4393,5.1606.096,23.1594,21.3392,27.5143,27.0844,25.9561,34.2426,38.1837,77.9825,33.5331,120.8051.0562-6.5548-.2242-12.7483-2.5795-3.4393-1.5269,6.0352-1.9877,12.1556-4.2991,18.0563-1.8313,4.675-3.7562,8.3903-7.7384,11.6076q3.0094-1.9346,6.0188-3.8692c-19.268,47.8534-36.2257,4.853-55.8885.8598-6.3987-1.2995-8.6652-.4927-14.617,1.7196-8.8498,3.2897-14.6621,12.203-28.8041,3.4393-1.6808-1.0416-9.3144-16.6243-28.3742,7.7384-23.4701-8.6831-9.7654-11.0904-10.7478-14.1871-.4812-1.5169-17.3807-5.4836-13.7572-25.7947,2.1283-11.9299,19.2017-9.5445,27.5143-26.6545,5.6283-11.5848-.1487-33.1291,17.6264-36.5425,11.4022-2.1896,36.461,4.3128,36.9724-.8598-15.6943,1.7195-36.2974-8.5407-49.8697,1.7196-15.1249,11.4341-1.6184,36.6275-20.6357,49.0099-1.4914.971-20.9466,2.2143-14.1871,27.0844,1.2326,4.5353,6.2696,10.2281,10.3179,12.8973-9.5156,8.6133,11.7697,17.1084,18.4862,15.0469,1.6443-.5047,7.0283-9.292,9.4581-10.3179,14.2074-5.9984,4.4279,14.4133,33.5331,11.1777,14.4173,18.6017,85.206,43.3479,38.2621,69.6456-.6753-1.0825-4.6953-1.3332-6.8786-1.7196q.4299-2.1496.8598-4.2991c5.6777.33,6.6515-3.011,2.5795-6.8786-4.2945-4.0789-13.3167-5.0535-15.4768-6.0188-.2384-.1065-.6157.1021-.8598,0-.551-.2305-2.1003-3.6795-10.3179-6.0188-2.7393-.7798-5.0533-2.4191-8.1683-1.7196-13.5349,27.97-51.4963,25.7572-58.8979-3.8692-5.6224-8.7835-21.7796-4.9741-18.9161-28.8041,2.3656-12.1351-1.428-15.478,6.8786-20.2058-.2275-4.6961-14.1344,3.9713-7.7384,13.7572-18.6858,22.9954,7.2849,40.7143-6.0188,63.6269-2.5964,4.4716-8.2344,8.1089-11.1777,11.6076-3.3378-2.6452-11.2795,9.8017-15.0469,12.0375-12.4055,7.362-7.5296-13.9777-38.692-10.3179-.4663.0547-4.9079,1.8867-9.0281,2.5795-.0837-1.9247,1.2555-1.5439,0-3.4393-.3833-.5785-6.1036-6.3955-6.8786-6.8786,7.0512-18.1786,6.7126-39.1725,8.5982-58.468.1103-1.1287-.1142-2.3117,0-3.4393.2815-2.7783,1.5598-5.6488.8598-8.5982-.8519-3.6654,1.9217-4.2072,3.4393-6.8786,4.5311-7.9758-11.6987,1.541-9.4581-17.1965,5.8697-5.8597,11.3312-9.7551,11.1777-19.7759,4.2114-10.3694,11.9344-45.1136,18.0563-61.0474,8.5628-28.8891,14.158-58.7542,12.8973-88.9917q8.3833-4.0842,16.7665-8.1683c3.4777,17.005,14.6764,18.8767,16.7665,24.075.2073.5156-.1661,1.7579,0,2.5795-21.7942-17.4355-8.9161.1137-8.5982,1.2897,2.4897,9.2111-18.4867,10.6667,4.2991,13.3273,3.194-.0493,10.7168-1.5737,13.7572-2.5795.9603-.3177,1.8704-1.3012,4.729-.8598l.4299-2.1496c-5.3569-2.0742-3.2632-16.6182-8.5982-28.8041,4.0325-.1613,5.4364-3.4106,5.1589-6.8786,9.7033-1.4688-2.7391-16.31-3.4393-21.9255-1.4444-11.5835,13.0777-33.0259,13.7572-34.8228,5.4668,2.1423,13.987,6.592,20.2058,10.3179,5.8469,3.5031,28.7021,17.5439,31.3835,20.6357Z" style="fill:#f6e3a2; stroke-width:0px;"/><path d="m575.6644,507.7384c.5146,2.5455,2.1753,5.4324-.4299,7.7384-4.1451-14.7649-7.7775-3.2429-3.8692,6.8786-22.7858-2.6605-1.8094-4.1161-4.2991-13.3273-.3179-1.1761-13.196-18.7252,8.5982-1.2897Z" style="fill:#0d0c0a; stroke-width:0px;"/><path d="m651.3288,459.5883c-4.9366-.1073-10.756-1.3418-2.5795-4.2991,1,1.153,2.5624,2.62,2.5795,4.2991Z" style="fill:#0d0c0a; stroke-width:0px;"/><path d="m691.7405,490.5419c.2565.416,2.9979.6812.8598,3.4393-3.1001.1211-3.7768-3.826-.8598-3.4393Z" style="fill:#0d0c0a; stroke-width:0px;"/><path d="m615.6462,443.2517c3.5013.9461-4.4177,4.4507-9.888,6.4487,18.514,2.7715,23.8515,16.4239,15.9067,16.7665-6.4893.2799.8363-3.5063-5.1589-8.5982-6.1164-5.1948-29.227-4.2263-.8598-14.617Z" style="fill:#0d0c0a; stroke-width:0px;"/><path d="m555.4586,684.8619c15.4691-3.038-2.7845,5.217-3.8692,6.4487-3.6775,4.1758-1.6521,10.7866-3.8692,10.7478-4.5964-4.9534,3.4718-16.3585,7.7384-17.1965Z" style="fill:#0d0c0a; stroke-width:0px;"/><path d="m564.9166,723.5539c1.2929.964,1.345,1.48,1.2897,3.0094-.3548,9.8098-11.5778,20.3797-1.2897-3.0094Z" style="fill:#0d0c0a; stroke-width:0px;"/><path d="m621.6649,527.5143c3.5974-.2294,1.9976,2.2971,0,3.4393-7.9016,4.5179-4.9618-3.1228,0-3.4393Z" style="fill:#0d0c0a; stroke-width:0px;"/><path d="m632.8426,534.3929c4.5189.0448-5.7209,6.2309-6.4487,4.729-.9401-1.9402,6.0117-4.7334,6.4487-4.729Z" style="fill:#0d0c0a; stroke-width:0px;"/><path d="m661.2168,543.851c.8682-.6394,5.3534.0916,4.729,2.1496-1.0207,3.3641-9.0701,1.0474-4.729-2.1496Z" style="fill:#0d0c0a; stroke-width:0px;"/><path d="m558.038,574.8046c4.2831-1.6369,13.592,2.0622-.8598,2.5795-1.1757-.4671.1587-2.3115.8598-2.5795Z" style="fill:#0d0c0a; stroke-width:0px;"/><path d="m548.58,753.6477c11.9681-1.1754,7.7482,4.5916.8598,1.7196-.5813-.2424-1.7046-1.5161-.8598-1.7196Z" style="fill:#0d0c0a; stroke-width:0px;"/><path d="m652.6185,553.309c8.8164-.7054,5.7626,4.7974.8598,1.7196-.9079-.5699-1.6649-1.5583-.8598-1.7196Z" style="fill:#0d0c0a; stroke-width:0px;"/><path d="m570.9354,618.6555c6.1835-.4303-1.5643,6.5312-2.1496,2.1496-.0201-.1507,1.9979-2.139,2.1496-2.1496Z" style="fill:#0d0c0a; stroke-width:0px;"/><path d="m626.8239,482.8035c1.0206-.1199,4.4534,1.7542,3.8692,3.0094-.7415,1.5931-7.8197-2.5455-3.8692-3.0094Z" style="fill:#0d0c0a; stroke-width:0px;"/><path d="m691.3106,512.0375c.3944.0897,1.6205,1.4636,1.2897,2.1496-9.0817,4.6841-2.8224-2.4982-1.2897-2.1496Z" style="fill:#0d0c0a; stroke-width:0px;"/><path d="m566.6363,561.9072c.7766-.4412,3.8637.2712,3.8692,1.2897.0151,2.7785-6.569.2439-3.8692-1.2897Z" style="fill:#0d0c0a; stroke-width:0px;"/><path d="m605.3283,541.2715c2.9074-.8373,2.4978,2.1078.8598,2.5795-2.9074.8373-2.4978-2.1078-.8598-2.5795Z" style="fill:#0d0c0a; stroke-width:0px;"/><path d="m639.7212,531.8134c3.8686-1.6983,9.0014,3.4202,1.7196.8598-.4504-.1583-3.3111-.1611-1.7196-.8598Z" style="fill:#0d0c0a; stroke-width:0px;"/><path d="m601.889,552.4492c2.6615.1215,3.1796,2.464-1.7196,1.7196-1.0537-.2986,1.5982-1.7252,1.7196-1.7196Z" style="fill:#1a0c09; stroke-width:0px;"/><path d="m610.4872,549.0099c.0955-.0111,1.7371,1.2555.8598,1.7196-2.2127,1.1708-2.4838-1.5318-.8598-1.7196Z" style="fill:#0d0c0a; stroke-width:0px;"/><path d="m675.8338,482.8035c4.6325,12.8314-15.6632,4.8916-12.4674,17.6264.8513,3.3923,33.395,26.6911,3.8692,41.7014-3.8294-2.6943,13.507-7.5162,2.1496-26.2246-3.4441-5.6733-11.9381-9.433-11.1777-16.3366,1.7486-15.8763,15.1844-4.547,17.6264-16.7665Z" style="fill:#0d0c0a; stroke-width:0px;"/><path d="m747.629,657.3476q-.4299-.4299-.8598-.8598c2.3114-5.9007,2.7722-12.0211,4.2991-18.0563,2.1826,5.9121-1.6368,13.184-3.4393,18.9161Z" style="fill:#5a1307; stroke-width:0px;"/><path d="m652.6185,708.9369c1.1138-.2412,4.7386,2.509,4.729,3.0094-.0673,3.5228-8.8209-2.1234-4.729-3.0094Z" style="fill:#0d0c0a; stroke-width:0px;"/><path d="m694.32,744.1897c-.2765-.0161-.6005.0598-.8598,0,3.8441-1.9759,5.8606-1.9253,3.4393-6.8786,4.072,3.8676,3.0982,7.2086-2.5795,6.8786Z" style="fill:#5a1307; stroke-width:0px;"/><path d="m651.7587,472.4857c.5402-.2915,3.881-.5766,3.8692,1.2897-.0178,2.8244-6.5853.176-3.8692-1.2897Z" style="fill:#0d0c0a; stroke-width:0px;"/><path d="m702.4883,530.9536c1.8976.0016,2.9216.1146,1.7196,1.7196-6.2728,1.9765-4.9978-1.7224-1.7196-1.7196Z" style="fill:#0d0c0a; stroke-width:0px;"/><path d="m685.2918,505.1589c3.4766.9774-1.6133,4.3819-3.0094,2.1496-.5528-.8839,2.8314-2.1996,3.0094-2.1496Z" style="fill:#281e13; stroke-width:0px;"/><path d="m703.3481,519.7759c3.8276-1.3606.6326,3.2352-.8598,2.5795-1.1999-.5272.2175-2.3511.8598-2.5795Z" style="fill:#1a0c09; stroke-width:0px;"/><path d="m704.2079,560.1876c22.7175-3.151,33.7951,14.3067,40.8416,33.1032-16.1238-29.3364-30.1224-38.8178-60.6175-18.4862-4.9251-.5543,11.2907-13.4401,19.7759-14.617Z" style="fill:#0d0c0a; stroke-width:0px;"/><path d="m744.6196,629.8332c3.4176-1.4626,5.3399,5.4812,1.7196,6.0188-3.2589.4839-4.2687-4.9279-1.7196-6.0188Z" style="fill:#0d0c0a; stroke-width:0px;"/><path d="m747.629,657.3476c-.7615,2.4217-1.6402,4.546-2.5795,6.8786q-3.0094,1.9346-6.0188,3.8692c3.9822-3.2173,5.9071-6.9326,7.7384-11.6076q.4299.4299.8598.8598Z" style="fill:#1a0c09; stroke-width:0px;"/><path d="m730.8624,613.4966c2.9398-.4208,3.788,4.6631.8598,5.1589-3.7556.6359-3.2115-4.8223-.8598-5.1589Z" style="fill:#0d0c0a; stroke-width:0px;"/><path d="m699.049,580.8233c.4333-.1346,3.07-.1338,3.4393,0,12.2042,4.421-11.973,2.6502-3.4393,0Z" style="fill:#0d0c0a; stroke-width:0px;"/><path d="m707.6472,647.0297c4.6531-1.5421,5.6491,5.4165,0,3.4393-1.6213-.5675-1.5989-2.9094,0-3.4393Z" style="fill:#0d0c0a; stroke-width:0px;"/><path d="m712.8061,665.086c3.0978.2759,1.3573,5.5084-1.7196,4.2991-3.0873-1.2133-.3328-4.4819,1.7196-4.2991Z" style="fill:#0d0c0a; stroke-width:0px;"/><path d="m711.9463,609.1975c2.5076-.7362,4.0034,2.4765,2.5795,3.4393-2.2752,1.5384-5.7112-2.5199-2.5795-3.4393Z" style="fill:#0d0c0a; stroke-width:0px;"/><path d="m647.4596,610.0573c1.9246-.411,3.4986,1.2589,3.0094,2.1496-.9492,1.7279-6.2793-1.4512-3.0094-2.1496Z" style="fill:#0d0c0a; stroke-width:0px;"/><path d="m653.4784,641.0109c1.7485.7979-1.2003,4.368-1.7196,4.2991-3.3763-.4478,1.4374-4.4279,1.7196-4.2991Z" style="fill:#0d0c0a; stroke-width:0px;"/><path d="m706.7874,626.394c.8023-.5436,3.0094.6821,3.0094,1.2897,0,2.608-5.9256.6859-3.0094-1.2897Z" style="fill:#13131a; stroke-width:0px;"/><path d="m657.7775,604.8984c3.9769-.6796,2.9327,2.9187,0,2.5795-1.2487-.1445-1.3989-2.3404,0-2.5795Z" style="fill:#0d0c0a; stroke-width:0px;"/><path d="m663.7962,643.5904c.5828-.1237,1.9044-.1836,2.1496.4299,1.2851,3.2168-6.5673.5079-2.1496-.4299Z" style="fill:#0d0c0a; stroke-width:0px;"/><path d="m644.0203,498.2804c3.2261-.4603-.2769,3.571-1.2897,1.2897-.037-.0834,1.1995-1.2769,1.2897-1.2897Z" style="fill:#4f482d; stroke-width:0px;"/><path d="m717.9651,529.234h.8598q.215.215.4299.4299v.8598l-.4299.4299-.4299-.4299-.4299-.4299-.4299-.4299q.215-.215.4299-.4299Z" style="fill:#6f6530; stroke-width:0px;"/><path d="m601.0292,484.5232c5.2026-.0719,2.6782,10.8633,15.9067,19.346.4898,3.7317-9.9822-6.1877-12.4674-6.4487-16.5938-1.7426,8.0537,7.7228,4.2991,18.0563q-9.2431-8.3833-18.4862-16.7665c-3.6799-8.6985,8.4498-14.1553,10.7478-14.1871Z" style="fill:#0d0c0a; stroke-width:0px;"/><path d="m598.4497,488.8223c4.4918-.2567,10.3754,8.5946-1.7196,4.2991-9.1949,8.178-4.1178-3.9656,1.7196-4.2991Z" style="fill:#f6e3a2; stroke-width:0px;"/><path d="m684.0021,678.8431c8.806,9.3327-12.8041,5.7502-1.7196-.8598.4355.2196,1.6537.7899,1.7196.8598Z" style="fill:#0d0c0a; stroke-width:0px;"/><path d="m404.5597,230.8755c16.7604,10.6759,41.6807,24.1904,61.9072,20.6357,16.6523,2.2075,36.0745,1.0849,52.4492-2.5795.7732,3.2271-.3822,7.1323-.8598,10.3179-19.5025,3.5168-39.253,1.3579-58.468-2.5795-16.1936-3.3182-52.6181-17.1718-58.038-23.2152-4.231-4.7177,2.7001-2.4689,3.0094-2.5795Z" style="fill:#0bbdbf; stroke-width:0px;"/><path d="m518.0563,259.2496c-.2282,1.5223-.3583,2.8337-.8598,4.2991-4.3958-.6696-26.2805,3.6222-46.0005.8598-8.3173-1.1651-25.4146-5.2423-11.6076-7.7384,19.215,3.9373,38.9655,6.0963,58.468,2.5795Z" style="fill:#425049; stroke-width:0px;"/><path d="m392.5221,234.3148c-2.3009-1.7256-.1843-9.5564-.8598-16.3366,3.5827.6222,4.2655-1.2995,6.8786-.4299,1.0563,1.7789-4.2848,14.9163-6.0188,16.7665Z" style="fill:#9decf0; stroke-width:0px;"/><path d="m384.3538,142.3137c3.6747-2.3692,2.9024,3.6705,0,1.7196-.7237-.4865-.73-1.249,0-1.7196Z" style="fill:#7e7568; stroke-width:0px;"/><path d="m386.0735,146.6128c.6547,0,.6547,2.5795,0,2.5795s-.6547-2.5795,0-2.5795Z" style="fill:#0d0c0a; stroke-width:0px;"/><path d="m396.8213,491.4018c-.1854,1.3127-2.4485,6.0026-2.5795,7.3085-.6227,6.2066,3.5534,38.2753-1.7196,30.0938-2.475-3.84-2.3896-17.0276.8598-21.4956-13.6279,7.5964,2.3207,26.867-1.7196,33.963-.0602.1057-1.5347,1.5655-1.7196,1.7196-1.1401.9508-.8959,1.5892-1.2897,1.7196-.2284.0756-1.143-1.6683-2.1496-1.7196-.21-.4756-3.4593-3.484-5.1589-9.0281-.431-4.5493,1.7213-4.6562,1.7196-5.5888-.0256-14.691,1.9055-21.7033,1.7196-23.6451-.0671-.7009-4.3288-7.526-3.4393-13.3273h15.4768Z" style="fill:#f6d095; stroke-width:0px;"/><path d="m390.8025,637.5716c-.1204.2198-3.2786,1.2655-2.5795,4.2991-.0284-.0929-1.4505.329-1.7196-.4299-2.0146-5.68,5.5958-14.548,6.0188-16.3366.6606-2.7937-1.5574-11.9448,3.4393-21.4956,3.2206-28.4233-1.8503-33.8651-3.4393-43.851-.9636-6.0556,2.5638-13.7895-2.5795-16.7665.1849-.1542,1.6595-1.614,1.7196-1.7196,9.0888,9.9764,1.6945,19.2329,8.5982,29.6639,1.4236,13.8791-4.0461,24.6891,0,36.9724-7.6713,11.204.659,11.1985-9.4581,29.6639Z" style="fill:#dbefd3; stroke-width:0px;"/><path d="m523.2152,132.8557c-22.2917,2.3299-38.6749,5.7908-59.7577,13.7572-.6335.2394.4722,2.807-4.2991.8598-.7766.3155-.3204,1.6741-.4299,1.7196-7.3597,1.9494-14.3943,5.0411-21.4956,7.7384-4.2716,1.6225-8.5719,3.7903-12.8973,5.1589-2.4439.7733-5.0997,1.1663-7.3085,2.5795q-.215-.6449-.4299-1.2897,4.0842-6.6636,8.1683-13.3273c-22.696,28.2559-10.6901,5.945.4299-7.3085,4.4831-5.3433,10.1664-9.7224,15.4768-14.1871,3.5544-1.8393,8.2016-4.0103,12.0375-5.1589,27.0996-8.115,45.6705-1.2075,70.5055,9.4581Z" style="fill:#f6efc3; stroke-width:0px;"/><path d="m500.8598,238.6139c-.6364,1.9175-.4577,4.4904.8598,6.0188,2.1569,2.5021,1.9128,1.7611,6.4487,1.7196,2.872,1.2679-3.468,5.1146,9.0281.8598.0441,1.3305,1.3823.3116,1.7196,1.7196-16.3747,3.6643-35.7969,4.787-52.4492,2.5795-19.0778-2.5291-35.9274-9.7608-49.8697-22.3554q.4299-2.1496.8598-4.2991c20.7183,17.1347,58.7781,14.4231,83.4028,13.7572Z" style="fill:#dcd8b0; stroke-width:0px;"/><path d="m458.7285,149.1923c-5.4791,2.2799-16.3771,8.7666-21.4956,7.7384,7.1013-2.6973,14.1359-5.789,21.4956-7.7384Z" style="fill:#ada588; stroke-width:0px;"/><path d="m416.5972,229.1558c13.9423,12.5946,30.7919,19.8263,49.8697,22.3554-20.2266,3.5546-45.1469-9.9598-61.9072-20.6357,2.0123-.7192,4.1367-.5073,3.4393-3.4393,1.0005.9685,7.0716,5.223,8.5982,4.729-13.3637-13.5461-15.3969-16.9179,0-3.0094Z" style="fill:#1a0c09; stroke-width:0px;"/><path d="m415.7374,493.9812c-.8831,6.9792-3.0769-.8735-3.8692-.8598-.8882.0153-2.0494,6.4796-8.1683,3.8692,6.8354-8.5997,1.0816-14.1023,6.0188-21.9255.4185.9487,7.8254,4.6386,6.0188,18.9161Z" style="fill:#dcaf78; stroke-width:0px;"/><path d="m396.8213,820.7139c.171,7.5656,7.303,22.1923,14.1871,26.6545h33.1032c2.2745,1.3624,5.1574,2.7606,7.7384,3.4393,1.4397,4.2733,2.4574,2.1456,3.4393,5.1589-17.2216-5.1957-.1977,3.868,0,4.729,1.5927,6.9359-7.3797,6.3727-7.7384,6.8786-6.9029,9.7361,19.5477,9.9455,24.5049,11.6076,13.643-12.7594,6.6621-4.7394,11.1777-2.5795.6962.333,7.9634-.1351,15.0469,3.4393,10.8397,12.2098,30.4746,18.1598,46.4304,15.4768v.8598c-2.9588.6461-29.6212,2.8653-32.2434,2.5795-10.3958-1.4985-17.225-9.6637-23.2152-11.1777-7.4971-1.8948-33.6994-1.759-45.5706-5.1589-29.7733,8.9633-43.0511,9.7096-63.197-13.7572-9.0883-10.5865-15.8254-22.7942-24.075-33.963-2.0654,18.6353-9.538,45.2056,18.4862,28.8041,1.7602.4112,2.5481,7.48,3.8692,10.3179,9.2159,19.7957,20.6658,21.1113,41.2715,23.6451-38.3815,8.303-45.2542-19.2853-70.9354-15.0469-1.4111-27.2053-22.0312-15.3962-30.0938-18.9161-2.2192-.9688-.6488-4.42-1.7196-5.1589-3.1941-2.2039-25.4071,5.8408-29.6639-2.1496-1.8336-3.4418.1403-8.1792,3.0094-9.0281,4.0069-1.1856,48.8136.888,60.1876,0,2.008-.9561,2.6749-10.5047,3.0094-12.8973,1.3207-9.4474,1.3944-18.9466,3.4393-28.3742,2.9245.4,2.4555-.8039,2.5795-.8598.9676-.4364,1.6146-.8126,1.7196-.8598,2.4827-1.1159,4.5414-1.3477,5.1589-1.7196,1.1225-.6762,2.6416.5809,3.0094-4.2991,3.2567,6.1236,8.2946,11.1675,11.6076,17.1965-10.5224,6.6183-4.685,8.5498-3.4393,10.3179,1.9374,2.7498,8.1103,10.9275,8.5982,13.3273.4906,2.4132-.1639,9.6715,0,14.1871.005.1375-1.9153.3855-1.7196,2.1496,4.7943,6.3289,7.4595,12.3212,13.7572,17.6264,5.3191,11.1102,24.9418,11.2696,35.6826,9.4581,1.6637-1.7169-5.9765-5.9645-3.8692-21.9255-.8621-1.7894-2.7586-.0869-6.8786-.4299-3.4167-.2844-12.2403-1.3139-12.0375,0-5.9225-5.7854,1.9559-16.6914-4.2991-11.6076-1.5498,1.2596-2.91,18.3599-3.4393,1.7196-7.5057-1.4819-3.2145-3.1754-3.4393-3.4393-2.3332-2.7392-5.0649-2.8299-6.0188-4.2991-1.0534-1.6227-3.2836-17.1602-9.4581-28.8041q.8598.215,1.7196.4299v-27.0844c.4196,3.955-.2022,38.1933,5.5888,37.8322.3189-.0199,1.6072-4.3377,4.729-4.2991Z" style="fill:#0d0c0a; stroke-width:0px;"/><path d="m380.4846,868.864q-.8598,2.5795-1.7196,5.1589c-1.3211-2.8378-2.109-9.9066-3.8692-10.3179-28.0242,16.4015-20.5516-10.1687-18.4862-28.8041,8.2496,11.1688,14.9867,23.3765,24.075,33.963Z" style="fill:#f0ead1; stroke-width:0px;"/><path d="m394.6717,825.013c1.3011-.1823,2.5474,12.0628,11.1777,22.3554q-4.944-2.7944-9.888-5.5888c-.7914-2.2581-4.8184-16.2723-1.2897-16.7665Z" style="fill:#61d6cf; stroke-width:0px;"/><path d="m423.4758,860.2658c-2.5612,3.3088-8.2487,3.7011-12.0375,0-.2028-1.3139,8.6208-.2844,12.0375,0Z" style="fill:#9decf0; stroke-width:0px;"/><path d="m448.8405,859.4059c.5624-.2165,3.6867,1.4871,3.8692,2.1496,1.9761,7.1708-9.8734.1619-3.8692-2.1496Z" style="fill:#f1e9e1; stroke-width:0px;"/><path d="m586.8421,481.0839c.2775,3.468-1.1264,6.7173-5.1589,6.8786-.6453.0258-8.2046-3.1717-12.4674-1.7196-15.6369-21.1443,16.0718-24.5857,17.6264-5.1589Z" style="fill:#f6d095; stroke-width:0px;"/><path d="m585.1225,519.7759c-3.0404,1.0058-10.5632,2.5302-13.7572,2.5795-3.9083-10.1215-.2759-21.6435,3.8692-6.8786,2.6052-2.3061.9445-5.1929.4299-7.7384-.1661-.8216.2073-2.0639,0-2.5795,5.0887,3.1907,1.578-5.9928,1.7196-6.4487,3.2032-10.3033,5.1654,11.8946,7.7384,21.0657Z" style="fill:#faac75; stroke-width:0px;"/><path d="m383.0641,528.3742c.0016.9327-2.1506,1.0396-1.7196,5.5888,1.6997,5.5442,4.9489,8.5525,5.1589,9.0281,6.6103,14.9689-8.6704,1.5327-13.7572-7.7384,1.7741-.0843,3.3951-.5984,5.1589-.8598.4465-.0662,4.0632,4.4032,1.7196-5.5888-.2053-.8755-2.1698.0434-5.1589-16.7665-.0213-.1197-1.306-1.6005-1.7196-1.7196,8.4078-13.0981-.1176,15.4765,10.3179,18.0563Z" style="fill:#1a0c09; stroke-width:0px;"/><path d="m381.3445,491.4018c-.8895,5.8013,3.3722,12.6263,3.4393,13.3273.1859,1.9418-1.7452,8.9541-1.7196,23.6451-10.4355-2.5797-1.9101-31.1544-10.3179-18.0563-2.9565-3.2225,2.6781-16.9546,2.5795-18.9161h6.0188Z" style="fill:#c3734a; stroke-width:0px;"/><path d="m383.9239,329.7551q-.8598,1.2897-1.7196,2.5795c-5.2224-4.8659-12.8795-9.2606-18.4862-13.7572q-.6449.215-1.2897.4299c1.56,2.3902.5013,5.3522,1.7196,8.1683-1.387-.057.7158,2.1947-1.2897,2.5795-.2734.0525-1.1313-1.6716-2.1496-1.7196-3.5615-8.7112.7981-18.6966,2.5795-27.5143,4.3026,4.7611,1.4109-5.9505,6.0188-3.4393-8.2703,16.4027,7.3022,24.1292,0,1.7196,2.3391.8221,1.4516-4.6513,5.1589-10.3179.083.0311.6279-1.5591,1.7196.4299-4.4366,5.3549-7.1128,17.0306.4299,4.729q.6449.6449,1.2897,1.2897c-3.5721,5.1191-2.5519,18.1731-.8598,12.8973.1613-.503,1.3925-15.2147,2.5795-7.7384.4798,3.0219-4.8876,9.99,4.2991,29.6639Z" style="fill:#1a0c09; stroke-width:0px;"/><path d="m364.148,327.1756c-1.2184-2.8161-.1596-5.7781-1.7196-8.1683q.6449-.215,1.2897-.4299c5.6067,4.4966,13.2638,8.8912,18.4862,13.7572,2.6475,2.4668,4.4748,6.3645,7.7384,8.1683-1.4129-3.893-4.2836-7.0317-6.0188-10.7478-9.1867-19.6739-3.8193-26.6419-4.2991-29.6639-1.1869-7.4763-2.4181,7.2354-2.5795,7.7384-1.6921,5.2758-2.7123-7.7783.8598-12.8973q-.6449-.6449-1.2897-1.2897c-7.5427,12.3015-4.8665.6259-.4299-4.729-1.0918-1.989-1.6367-.3988-1.7196-.4299-.3513-.1319-4.6391.1499-4.2991-1.2897.136-.5758,3.18-.2592,3.4393-1.7196.1351-.761-7.5698-8.3352,7.7384-5.1589-13.9679-7.0632-3.5181-5.3734-2.5795-6.8786.7824-1.2546-2.5902-1.6352-2.5795-2.5795.0683-6.0038,28.6394-26.3349,1.7196-9.4581,17.2225-19.8489,33.0766-14.2527,36.1126,11.1777.5568,4.6637.6959,50.6094-4.2991,44.7108-5.6152-6.631-7.8673-26.5385-3.4393,6.8786-17.4137-43.5672-11.1816-27.9276-2.1496,3.8692-13.0442-12.4784,3.5209,6.6001-.4299,18.4862-.3973,1.1954-9.096,4.3582-17.6264,17.6264-24.2494,5.9496-29.4634,8.551-7.3085-9.888-15.3079-.2146-9.3974,2.6137,0-7.7384-2.3127-3.0952-26.6738,8.9328.8598-5.1589-3.5096-3.2146-13.9834-10.7351-15.4768-14.1871Z" style="fill:#db375c; stroke-width:0px;"/><path d="m369.3069,298.8015c7.3022,22.4096-8.2703,14.6831,0-1.7196.0655.5675-.1275,1.3283,0,1.7196Z" style="fill:#b52643; stroke-width:0px;"/><path d="m382.2043,332.3346q.8598-1.2897,1.7196-2.5795c1.7352,3.716,4.6058,6.8548,6.0188,10.7478-3.2636-1.8038-5.0909-5.7015-7.7384-8.1683Z" style="fill:#3f0d03; stroke-width:0px;"/><path d="m398.5409,484.5232c-1.1128,5.9261-1.6701,6.5275-1.7196,6.8786h-21.4956c-.1899-3.7766-4.9644-2.949-3.0094-6.0188,24.415-2.2382,14.6426-2.9066-3.4393-2.5795-.8806-.27.5148-1.6396.8598-1.7196,1.4404-.3341,27.1831-.3927,28.8041,3.4393Z" style="fill:#b52643; stroke-width:0px;"/><path d="m397.6811,481.0839c-.1473,2.0677,1.1724,1.7744.8598,3.4393-1.6209-3.832-27.3637-3.7733-28.8041-3.4393-.3451.08-1.7405,1.4497-.8598,1.7196,18.0819-.3271,27.8543.3412,3.4393,2.5795-1.955,3.0697,2.8195,2.2422,3.0094,6.0188.0986,1.9615-5.536,15.6936-2.5795,18.9161.4137.1191,1.6984,1.5999,1.7196,1.7196-1.7828,7.5633-1.5307,16.0159,3.4393,22.3554-1.7639.2615-3.3849.7755-5.1589.8598-5.9616-10.8655-6.7919-20.0376-5.1589-32.2434.0285-.2131,2.3933-2.3903,2.5795-3.4393,2.8216-15.8981-4.8401-4.0876-11.1777-23.2152-.3599-3.0558,1.7546-6.4148,2.5795-10.7478,1.2069.4605,3.2426,2.4928,3.4393,2.5795,2.6543,1.169,3.2894.4442,5.1589.8598.5071.1127,1.1898-.0933,1.7196,0,5.0505.8889,10.6834,2.8733,15.9067,1.7196,8.6034-1.9002,4.8563-12.216,7.7384-5.1589,13.1143-6.0031-1.1089,3.7998,7.7384,1.7196,1.368-.3216,17.8922-22.9231,1.7196.8598-10.0708,2.929-27.449,6.0257-3.4393,4.2991-1.6011,5.537-16.1816,1.5664-21.0657,4.729q9.673-.6449,19.346-1.2897c.8806,2.9096-1.8952,1.5895-2.1496,5.1589Z" style="fill:#0d0c0a; stroke-width:0px;"/><path d="m370.1668,469.0464c-1.8695-.4156-2.5047.3092-5.1589-.8598q2.7944-.4299,5.5888-.8598-.215.8598-.4299,1.7196Z" style="fill:#c1444c; stroke-width:0px;"/><path d="m377.9052,534.3929c-4.97-6.3395-5.222-14.7921-3.4393-22.3554,2.9892,16.8099,4.9536,15.8911,5.1589,16.7665,2.3436,9.992-1.2731,5.5227-1.7196,5.5888Z" style="fill:#c3734a; stroke-width:0px;"/><path d="m364.5779,471.6258c.6285-.4596,2.7697.0669,2.1496,1.2897-.6753,1.3315-3.9923.0576-2.1496-1.2897Z" style="fill:#bb5560; stroke-width:0px;"/><path d="m412.2981,417.457c1.5662,5.0383,5.0887,9.2492,6.8786,14.1871,2.9701,8.1937,3.1414,17.3541,5.1589,16.7665-.3863,19.9349-12.621,14.7938-15.4768,22.3554-3.2479,3.6573-5.2265,11.7526-11.1777,10.3179.2543-3.5694,3.0302-2.2493,2.1496-5.1589q-9.673.6449-19.346,1.2897c4.8841-3.1626,19.4645.808,21.0657-4.729-24.0097,1.7265-6.6315-1.3702,3.4393-4.2991,16.1725-23.7829-.3517-1.1815-1.7196-.8598-8.8473,2.0802,5.3759-7.7227-7.7384-1.7196-2.8821-7.057.865,3.2588-7.7384,5.1589-5.2233,1.1537-10.8562-.8308-15.9067-1.7196,17.0638-10.6476-6.0167-2.6571-6.0188-6.4487,26.6545-7.347,11.12-7.0379,11.1777-8.5982.0124-.3356,6.2259-2.9684,5.1589-4.2991-15.3344-1.0449,6.0921-4.5525,5.1589-6.8786-2.0379.3012-13.5525.7477-14.1871.4299-6.9084-3.4595,12.494.3775,12.0375-7.7384-14.7565.7524-10.5075-.8891-.4299-5.5888-21.4115-2.3149-17.8309-3.4697-13.7572-21.4956,18.4728,12.8028-6.7218-8.5055,2.1496-8.1683.8996.0342,16.552,13.5844,6.4487,1.2897,4.6213-4.9526-8.8404-7.3935-2.5795-13.7572-9.0062-11.0002-7.5239-14.0066,3.8692-4.729,6.2454,5.0857,8.1539,11.4423,10.7478,14.1871,6.3089,6.676,15.0927,13.7833,20.6357,20.2058Z" style="fill:#db375c; stroke-width:0px;"/><path d="m424.3356,448.4106c-2.0175.5875-2.1889-8.5729-5.1589-16.7665-1.7899-4.9379-5.3124-9.1488-6.8786-14.1871,7.5742,8.7759,12.2781,18.5385,12.0375,30.9536Z" style="fill:#6b4a42; stroke-width:0px;"/><path d="m399.8306,427.7749c2.8144,1.0254-8.804,6.7503-9.4581,6.8786-9.0189,1.7686-1.9231-3.9241,9.4581-6.8786Z" style="fill:#3f0d03; stroke-width:0px;"/><path d="m395.5315,419.1767c18.0759-1.9783,4.7033,6.2936-4.2991,3.4393-.4384-.139-1.7242-1.4749-.8598-1.7196,1.8329.2678,4.8886-1.6901,5.1589-1.7196Z" style="fill:#3f0d03; stroke-width:0px;"/><path d="m412.728,441.532c15.5936-2.8141,3.4358,4.7044-5.1589,3.4393-.8569-1.3288,4.7356-3.3629,5.1589-3.4393Z" style="fill:#320202; stroke-width:0px;"/><path d="m392.0922,405.4195c11.4967,8.6566,10.4947,12.3936-.4299,1.2897v-.8598l.4299-.4299Z" style="fill:#3f0d03; stroke-width:0px;"/><path d="m380.0547,414.8775c1.4413-.7969,5.722,2.6353,5.5888,3.0094-.3583,1.0067-8.0157-1.6676-5.5888-3.0094Z" style="fill:#3f0d03; stroke-width:0px;"/><path d="m523.2152,132.8557c-24.835-10.6655-43.4059-17.5731-70.5055-9.4581-10.4278-1.7192-30.6756,12.6129-36.9724,21.0657-2.6519,3.5599-9.4992,17.8706-9.4581,21.4956.1065,9.3801,2.2522-7.5583,13.7572-21.4956,6.1768-7.4827,12.1654-11.5236,20.6357-15.9067-5.3104,4.4647-10.9937,8.8438-15.4768,14.1871-11.12,13.2535-23.1259,35.5644-.4299,7.3085q-4.0842,6.6636-8.1683,13.3273.215.6449.4299,1.2897c2.2088-1.4132,4.8646-1.8062,7.3085-2.5795-2.8154,5.4489-23.8365,12.538-19.346,18.9161,2.6403-4.504,19.5376-11.2681,27.5143-14.617,32.6132-13.6919,74.1497-29.7167,109.1975-27.5143,31.9606,38.1019,26.0382,91.1285-24.5049,108.3377-12.4961,4.2547-6.1562.4081-9.0281-.8598-4.5359.0415-4.2918.7824-6.4487-1.7196q8.1683-2.3645,16.3366-4.729c-6.5422-3.1893-10.8343-1.4618-17.1965-1.2897-24.6247.6659-62.6845,3.3775-83.4028-13.7572-4.6524-3.8477-11.554-15.7332-13.7572-21.4956-7.0126-18.341-.7926-38.6766-6.0188-30.5237-6.0245,9.3983,4.9314,29.768,5.1589,31.3835.8313,5.9009-5.7152,12.6894,5.1589,23.2152.6974,2.932-1.427,2.7201-3.4393,3.4393-.3093.1105-7.2403-2.1382-3.0094,2.5795,5.4199,6.0434,41.8445,19.897,58.038,23.2152-13.807,2.4961,3.2904,6.5733,11.6076,7.7384,19.7201,2.7624,41.6047-1.5294,46.0005-.8598,10.2725,1.5648,20.5275,48.6167,20.6357,59.7577,2.9828,12.421,13.8985,19.4194,18.9161,26.6545,3.1626,4.5603,8.4687,22.3933,22.3554,29.234,12.1465,26.0274,13.026,17.8854,15.0469,19.346,8.0811,5.8407,6.056,17.7383,3.0094,25.7947-.6795,1.7969-15.2016,23.2394-13.7572,34.8228.7002,5.6155,13.1426,20.4566,3.4393,21.9255-1.5546-19.4268-33.2632-15.9853-17.6264,5.1589,4.2629-1.4521,11.8221,1.7455,12.4674,1.7196,5.335,12.1858,3.2413,26.7298,8.5982,28.8041l-.4299,2.1496c-2.8586-.4414-3.7688.5422-4.729.8598-2.573-9.171-4.5352-31.369-7.7384-21.0657-.1417.4558,3.369,9.6394-1.7196,6.4487-2.0901-5.1984-13.2889-7.0701-16.7665-24.075q-8.3833,4.0842-16.7665,8.1683c1.2606,30.2375-4.3346,60.1025-12.8973,88.9917-2.188-1.5192,2.0767-4.6123-3.4393-4.2991,4.6276-10.369,12.1291-51.95,12.8973-64.0568,2.1857-34.4466-3.6773-38.5884-7.7384-55.0287-1.8356-7.4312,2.1037-18.329-9.0281-29.6639q-8.3833,3.6542-16.7665,7.3085-.6449,12.6824-1.2897,25.3648c16.1094-11.5517,15.0954-22.4135,15.9067-23.6451,4.088-6.2055,2.0327,6.5401-3.4393,15.4768-2.8369,4.6331-10.2187,10.9478-14.617,14.617-.5293,3.2788-.7497,6.6999-1.7196,9.888q-.8598-2.1496-1.7196-4.2991c2.8674-7.4585-3.6657-8.5046-2.5795-9.888,1.4947-1.9035,6.1832,6.823,7.7384-24.9349-.7939-1.8434-23.2915,1.3036-37.8322-2.1496-4.7669-1.132-30.5614-15.744-34.3929-4.729-4.3558,12.5223,10.2718,6.4112,30.9536,9.888,3.2452.5455,8.031-.4698,6.0188,3.8692-1.3218,2.8503-5.0906.2518-5.5888.4299-1.3726.4908-2.6943,10.3509-2.1496,1.2897-1.89-2.7995-24.018-3.0901-25.7947-.8598-.715,16.221-10.2148,36.7461-12.0375,45.5706-.6342,3.0706,4.8445,6.765-2.5795,6.4487-1.0753-.4743-3.0695-.9061-4.2991-.8598,1.8067-14.2775-5.6002-17.9674-6.0188-18.9161-.4715-1.0687.879-4.1486-.8598-4.2991,2.8558-7.5615,15.0905-2.4205,15.4768-22.3554.2406-12.4151-4.4633-22.1778-12.0375-30.9536-5.543-6.4225-14.3268-13.5299-20.6357-20.2058-2.5939-2.7448-4.5024-9.1014-10.7478-14.1871-11.3931-9.2776-12.8754-6.2711-3.8692,4.729-6.261,6.3637,7.2008,8.8046,2.5795,13.7572,10.1033,12.2947-5.5491-1.2555-6.4487-1.2897-8.8714-.3372,16.3232,20.9711-2.1496,8.1683-4.0737,18.0258-7.6544,19.1806,13.7572,21.4956-10.0776,4.6998-14.3266,6.3412.4299,5.5888.4564,8.1159-18.9459,4.2789-12.0375,7.7384.6346.3178,12.1491-.1287,14.1871-.4299.9331,2.3261-20.4933,5.8337-5.1589,6.8786,1.0669,1.3307-5.1466,3.9636-5.1589,4.2991-.0576,1.5603,15.4768,1.2512-11.1777,8.5982.0021,3.7915,23.0826-4.199,6.0188,6.4487-.5299-.0933-1.2125.1127-1.7196,0q.215-.8598.4299-1.7196-2.7944.4299-5.5888.8598c-.1967-.0866-2.2323-2.119-3.4393-2.5795,3.1349-16.4666,10.706-24.7741.8598-32.6733-2.965-8.666,6.9266-23.6767,3.4393-34.8228-1.059-3.3847-11.7424-6.78-2.5795-24.9349-5.9219-4.4579-2.0271-11.3982.8598-16.3366-11.3436-14.1772-3.7642-23.5334-3.4393-28.8041,1.0182.048,1.8762,1.7721,2.1496,1.7196,2.0055-.3848-.0973-2.6365,1.2897-2.5795,1.4934,3.4519,11.9672,10.9724,15.4768,14.1871-27.5336,14.0918-3.1726,2.0637-.8598,5.1589-9.3974,10.3521-15.3079,7.5238,0,7.7384-22.1549,18.439-16.9409,15.8376,7.3085,9.888,8.5304-13.2682,17.229-16.431,17.6264-17.6264,3.9508-11.8861-12.6143-30.9646.4299-18.4862-9.032-31.7968-15.2642-47.4364,2.1496-3.8692-4.4281-33.4171-2.176-13.5096,3.4393-6.8786,4.995,5.8986,4.8559-40.047,4.2991-44.7108-3.0359-25.4304-18.8901-31.0266-36.1126-11.1777,26.9198-16.8768-1.6513,3.4543-1.7196,9.4581-.0108.9443,3.3619,1.3249,2.5795,2.5795-.9386,1.5051-11.3884-.1846,2.5795,6.8786-15.3082-3.1763-7.6033,4.398-7.7384,5.1589-.2593,1.4605-3.3033,1.1439-3.4393,1.7196-.34,1.4396,3.9478,1.1579,4.2991,1.2897-3.7073,5.6665-2.8199,11.14-5.1589,10.3179-.1275-.3913.0655-1.1522,0-1.7196-4.6079-2.5112-1.7161,8.2004-6.0188,3.4393,2.5444-12.5944,4.0328-26.1548,13.7572-35.6826-15.8666-18.55,11.0539-25.804,15.4768-30.5237,1.7339-1.8503,7.075-14.9877,6.0188-16.7665-2.6131-.8696-3.2959,1.0521-6.8786.4299-5.5177-.9582-7.8545-5.9861-12.8973-9.0281-1.1761-1.7421-1.9254-13.5502.8598-14.617-13.089-7.6532-5.4411-15.2237-6.8786-27.5143-.1576-1.3477-10.3685-8.6162,4.729-21.9255,2.7877.0326-7.123,16.4886,3.4393,18.9161,9.5998,2.2063,4.7021-1.9826,2.1496-8.1683q.6449-.6449,1.2897-1.2897c10.8087,17.0415-5.0797-15.7137,10.3179,4.2991,15.8953-50.3729,68.548-61.208,113.4966-42.1313,2.522,1.0703,25.8008,13.7619,21.4956,16.3366-2.122.154-4.3413-.2203-6.4487,0Z" style="fill:#0d0c0a; stroke-width:0px;"/><path d="m573.5148,488.8223c.4778-.3825,5.1269,1.1091,5.5888,2.1496,3.0229,6.8087-10.3426,1.6561-5.5888-2.1496Z" style="fill:#f3c8a9; stroke-width:0px;"/><path d="m387.7931,370.1668c30.3995-4.4789,33.0362,22.7053,27.5143,45.5706-12.5322-24.0362-33.1952-34.146-33.963-36.5425-2.3964-7.4792,1.107-8.2411,6.4487-9.0281Z" style="fill:#281e13; stroke-width:0px;"/><path d="m429.9244,301.3809c7.9689,16.0906,9.4192,27.2819,0,42.9911,2.2945-14.412,3.5687-28.6714,0-42.9911Z" style="fill:#f3c8a9; stroke-width:0px;"/><path d="m419.6066,327.1756c1.3593,41.4467-19.8996,27.6639-13.7572,37.8322q-5.1589-.8598-10.3179-1.7196c3.9984-3.5493,14.215-4.592,17.6264-9.0281,4.5471-5.913,3.0921-20.1742,6.4487-27.0844Z" style="fill:#4c4334; stroke-width:0px;"/><path d="m423.9057,304.8202c1.7023,2.9885,1.7924,11.9919,1.2897,15.0469-2.0365,12.3775-5.4892-1.3397-1.2897-15.0469Z" style="fill:#a99183; stroke-width:0px;"/><path d="m361.9984,330.6149c.5484-.1814,2.6063,5.032,8.1683,8.1683-21.7032-5.8878,3.7151,8.3274-10.3179,2.5795-.7223-2.1459,1.6292-10.5757,2.1496-10.7478Z" style="fill:#db375c; stroke-width:0px;"/><path d="m372.3163,370.1668c5.8814-1.1946,8.3382,4.4583,7.3085,6.4487-.9358,1.8089-15.1027-4.8655-7.3085-6.4487Z" style="fill:#db375c; stroke-width:0px;"/><path d="m432.9338,346.9515c.9667-4.2469,3.7946-4.4846,6.0188-14.617,1.4031-6.3918.8064-16.251,2.5795-10.7478,1.5956,4.9523-2.5159,21.8515-8.5982,25.3648Z" style="fill:#dac1b3; stroke-width:0px;"/><path d="m416.1673,466.4669c1.4809.2152.2212,8.9961,0,10.3179-2.1598-2.9038-7.3373-11.3842,0-10.3179Z" style="fill:#f6d095; stroke-width:0px;"/><path d="m423.9057,467.3267c1.9168.9055-8.4592,21.1526-4.729,5.5888.3962-1.6532,3.411-4.1587,4.729-5.5888Z" style="fill:#f3c8a9; stroke-width:0px;"/><path d="m533.963,330.6149c22.6642,20.1577,10.4564,29.4729,11.6076,33.1032,10.5665.6981,6.4582,4.3166,12.4674,9.0281,4.5306,3.5522,13.7148,7.4748,16.7665,12.4674,3.59,5.8732,4.5424,20.5782,5.1589,21.4956,3.087,4.5931,10.8414-5.5829,12.0375,11.1777-19.7765-4.8072-.6439,11.3285-10.7478,23.6451-1.5608.0063-15.3322-33.0911-9.888-6.4487-1.2304,3.0964-9.1435-9.023-2.5795-21.4956-4.492-2.7813-16.6345-15.3943-16.7665-18.4862,28.0817,5.5424,30.3471,24.4312,20.2058-9.0281-28.8373-22.1083,3.5243,21.7223-21.0657-.4299-4.6686,12.7797-9.1163,7.4368-3.8692-4.729-11.6292-12.871-10.2057,5.8993-17.1965-9.4581-1.1745-2.5801-3.644-12.7562-3.4393-15.4768q3.6542-12.6824,7.3085-25.3648Z" style="fill:#2a271e; stroke-width:0px;"/><path d="m541.2715,426.0552c.769-.9096,1.0335-2.4229,1.7196-3.4393,14.7059,11.434,32.4568,21.5681,36.1126,41.7014-8.524-.529-15.0461,2.5027-16.3366.8598-7.6363-24.063-3.1915-21.9037-21.4956-39.1219Z" style="fill:#2a271e; stroke-width:0px;"/><path d="m542.9911,422.6159c-.6861,1.0163-.9506,2.5297-1.7196,3.4393-.3516.4158-1.3884-1.5021-1.7196-.4299-.9067,2.9348,3.5724,24.1136,2.5795,30.9536-1.135-3.955-10.1855-39.3546-5.5888-39.9818,2.0662,2.1393,4.0876,4.183,6.4487,6.0188Z" style="fill:#2a271e; stroke-width:0px;"/><path d="m538.2621,390.8025c2.0004-.4304,18.6574,23.6439,2.5795,7.7384.0558,23.0495-8.1027-6.5499-2.5795-7.7384Z" style="fill:#3a3225; stroke-width:0px;"/><path d="m550.2996,407.999c3.9493-1.57,5.3381,8.7659,4.2991,9.4581-1.1981-1.8607-8.3142-7.8619-4.2991-9.4581Z" style="fill:#3f3f31; stroke-width:0px;"/><path d="m525.3648,379.6248q1.7196,4.2991,3.4393,8.5982c-3.8782-2.1892-7.6052-5.0153-3.4393-8.5982Z" style="fill:#7d795e; stroke-width:0px;"/><path d="m364.5779,387.3632c11.5538,12.2754.3785,6.6119-.4299,3.8692-.2016-.684-.1701-3.5006.4299-3.8692Z" style="fill:#b52643; stroke-width:0px;"/><path d="m435.0834,381.3445c3.2252.3665-1.1794,5.8671-2.5795,5.1589-.7154-.3619,1.604-5.2698,2.5795-5.1589Z" style="fill:#dac1b3; stroke-width:0px;"/><path d="m414.4476,261.8291c1.5267.4667,7.6965,4.6522,5.1589,6.0188q-2.5795-3.0094-5.1589-6.0188Z" style="fill:#919489; stroke-width:0px;"/><path d="m420.4664,370.1668c2.562-.1245,2.7073,12.6027-.4299.4299.1388-.2368.28-.4226.4299-.4299Z" style="fill:#655f5a; stroke-width:0px;"/><path d="m370.5967,446.691c3.8984-2.0136,5.6563,3.3747.8598,1.7196-.3181-.1098-1.6828-1.2946-.8598-1.7196Z" style="fill:#88222e; stroke-width:0px;"/><path d="m366.7275,384.7837c.1565.2029,3.0849,1.5521,2.1496,2.5795-2.5423-.135-2.0517-2.4431-2.1496-2.5795Z" style="fill:#bb5560; stroke-width:0px;"/><path d="m366.7275,384.7837c-.0657-.0851-.7955-.0288-1.7196-1.2897,2.1643-1.458,1.5342,1.0313,1.7196,1.2897Z" style="fill:#ae676a; stroke-width:0px;"/><path d="m475.0651,319.4372c-2.8921-.6903-.96,3.6612-2.5795,8.1683-3.61,10.0469-33.1768,36.0426-26.6545,25.3648,8.0815-13.2305,15.557-13.1774,15.4768-32.6733-.0092-2.2368-.6088-4.3654,0-6.8786,4.3675,1.6825,12.6811.436,13.7572,6.0188Z" style="fill:#f6e3a2; stroke-width:0px;"/><path d="m461.308,320.297c.0802,19.4959-7.3953,19.4428-15.4768,32.6733q-1.2897-.8598-2.5795-1.7196c2.4785-3.3601,14.5517-22.3571,14.617-24.5049.1963-6.4532-8.4362-.8663-11.1777,2.5795-1.6832,2.1155-5.3709,12.957-7.7384,17.1965-.9462,1.6943-4.1376,4.4533-4.2991,4.729.2682-4.8284-2.475-.9805-1.7196-4.2991,6.0824-3.5133,10.1938-20.4125,8.5982-25.3648-1.7731-5.5033-1.1764,4.3559-2.5795,10.7478-1.1574-3.0305-.3036-15.2237,1.7196-14.617q.8598.6449,1.7196,1.2897c-1.6189-10.7585,1.8888-4.9712,3.0094,7.3085,4.4031-3.8674,10.6809-8.6027,15.9067-6.0188Z" style="fill:#1a0c09; stroke-width:0px;"/><path d="m443.2517,351.2507c-9.5948,13.0077-22.7509,24.1574-8.5982,0,.1615-.2757,3.353-3.0347,4.2991-4.729,2.3675-4.2395,6.0552-15.0809,7.7384-17.1965,2.7415-3.4457,11.374-9.0327,11.1777-2.5795-.0653,2.1479-12.1385,21.1449-14.617,24.5049Z" style="fill:#f3c8a9; stroke-width:0px;"/><path d="m441.532,304.8202c1.4235.8886,16.3256,7.269,19.7759,8.5982-.6088,2.5132-.0092,4.6418,0,6.8786-5.2258-2.584-11.5036,2.1514-15.9067,6.0188-1.1206-12.2797-4.6282-18.067-3.0094-7.3085q-.8598-.6449-1.7196-1.2897-4.729-11.8226-9.4581-23.6451c4.1434,4.3173,4.8016,7.3041,10.3179,10.7478Z" style="fill:#f6d095; stroke-width:0px;"/><path d="m463.0276,367.5873c.3673-2.3776-1.8286-1.9123-3.4393-4.2991,6.3626-15.9146,16.2948,14.1574,18.4862,20.6357-22.6045-24.8172-40.5937-11.7742-43.851-12.0375-6.4344-.5203,5.0371-6.9343,19.7759-5.1589,3.7046.4462,19.0826,8.3364,9.0281.8598Z" style="fill:#f9ddb8; stroke-width:0px;"/><path d="m459.5883,363.2882c1.6107,2.3868,3.8066,1.9215,3.4393,4.2991-7.1613-5.3252-18.1701-3.7532-18.9161-4.729,9.5308-10.8459,34.1328-26.9268,30.9536-43.4211-1.076-5.5828-9.3897-4.3362-13.7572-6.0188-3.4503-1.3292-18.3525-7.7096-19.7759-8.5982-16.549-17.3659-9.2684-34.7443-18.0563-39.1219,28.3964,7.7082,58.2636,12.1807,88.1318,9.0281,2.2269,3.6957,9.0282,21.8891,9.888,22.7853,1.528,1.5928,13.3492,1.631,12.0375,18.9161-4.6302.1735-15.2623,32.476-15.4768,34.3929-.7913,7.0708,3.3032,16.8958,1.7196,22.3554-.6011,2.0725-5.5356,4.0424-6.0188,7.7384-1.4006,10.7137,11.7888,7.2745,12.0375,18.9161-6.6041,1.4667,4.229,8.201,1.7196,19.7759-1.5572,7.183-3.5593,1.0882-5.5888,1.2897-1.8679.1855-5.6552,11.0572-35.2527,8.5982-16.733-1.3902-32.1366-10.8728-49.0099-12.0375-1.87-1.5984-10.8845-11.43-8.5982-12.8973,2.2545-1.447,2.2783,4.55,7.7384-6.0188,12.2946,4.3828,54.1791,22.6386,63.6269,20.6357,9.6361-6.0637,1.1689-1.0068-1.7196-.8598-10.3602.527-22.8649-9.2687-27.5143-11.1777-5.8219-2.3905-28.7943-8.0652-30.5237-14.1871-2.3463-8.3058,8.7798,8.8279,24.075,2.5795.1913-.9552-14.0139-2.8775-18.0563-6.8786,20.0298.5931-10.5478-6.2422-11.1777-10.3179,12.4855-11.0584,33.0302-3.4457,42.9911,8.5982,6.6772,8.0735,6.0398,13.9489,9.4581,18.0563-.13-6.948-20.0185-64.2333-29.234-45.5706-2.3019,4.6617.7111,3.6488.8598,3.8692Z" style="fill:#f6efc3; stroke-width:0px;"/><path d="m504.729,334.0542c.3028,2.9869-3.6087,9.561-3.8692,11.6076-2.331,18.3126,10.9135,25.0246-3.8692,36.5425q-.6449-.6449-1.2897-1.2897c17.7278-12.7725-6.1698-22.7145,9.0281-46.8603Z" style="fill:#281e13; stroke-width:0px;"/><path d="m500,383.0641c.2209-.2033-.4355-2.2908.4299-2.5795,5.2762,6.2746.7736,2.4571-.4299,2.5795Z" style="fill:#281e13; stroke-width:0px;"/><path d="m500,383.0641c-.3821.3516-1.0048,2.7533-2.5795,1.2897.9748-1.3472,1.4345-1.1733,2.5795-1.2897Z" style="fill:#3a3225; stroke-width:0px;"/><path d="m498.7103,151.7718c6.0218.2637,14.593,33.5728-.4299,62.3372-4.002,7.6626-20.2928,26.1489-8.5982,7.7384-22.5097,7.1278-12.1443-2.4557-12.8973-3.4393-.4829-.6308-12.9254-1.8623-11.1777-9.4581.1446-.6284,6.5369-6.0775,7.7384-10.3179,1.9731-6.9633.1057-23.8712.8598-24.9349.8486-1.197,5.9725.1458,7.3085-.4299,1.2768-.5502,11.6918-21.7366,17.1965-21.4956Z" style="fill:#f2aa25; stroke-width:0px;"/><path d="m520.6357,153.4914c.1681.2392-.4083,1.6159,3.4393,4.729-3.7985,1.7668,3.4413,7.8824,4.2991,18.0563.6239,7.4002-1.0875,17.4855-3.4393,24.5049-7.2677,21.6921-20.1379,23.4959-21.4956,18.4862-.4705-1.7359,10.5852-12.9492,12.0375-33.5331,2.1007-29.774-10.7327-35.0323-10.3179-36.9724.3272-1.5305,8.1285-5.7272,15.4768,4.729Z" style="fill:#fafaef; stroke-width:0px;"/><path d="m549.8697,163.8093c.0659,1.1233-.7564.8266-1.7196.8598-7.838.2705-9.599-2.2739-8.5982,6.8786.4021,2.3279-1.2567,1.7112-3.4393,1.7196-.9834-7.0062-4.0516-9.0014-4.2991-9.4581-3.9688-7.3214-9.6203-13.5422-16.3366-18.4862,17.6654-6.1929,27.9036,2.5149,34.3929,18.4862Z" style="fill:#61d6cf; stroke-width:0px;"/><path d="m542.1313,178.4263c-.8264,8.6216-.5617,17.2768-2.5795,25.7947-.0409.1725-1.2952-.4653-.8598,3.4393-.1195.2442-2.2506,1.4066-1.7196,5.1589-3.5735,1.9701-7.7338,14.2642-12.8973,14.617-.5805-.3316-3.5455-.7516-6.8786-3.4393,12.6372-14.6072,19.9301-27.479,18.9161-47.2903-.0575-1.1241.1528-2.3509,0-3.4393,2.1826-.0085,3.8414.6082,3.4393-1.7196.0399.3651,2.2148,3.5799,2.5795,6.8786Z" style="fill:#61d6cf; stroke-width:0px;"/><path d="m530.9536,163.8093c2.5583,3.9376,3.7053,8.5145,5.1589,12.8973,1.014,19.8112-6.2789,32.6831-18.9161,47.2903-.1123-.0905-1.4137.44-2.5795-1.2897,4.89-5.0588,12.4642-14.8506,10.3179-21.9255,2.3518-7.0194,4.0632-17.1047,3.4393-24.5049-.8578-10.1739-8.0976-16.2895-4.2991-18.0563-3.8476-3.1131-3.2712-4.4898-3.4393-4.729,3.3878,3.1533,7.7836,6.4171,10.3179,10.3179Z" style="fill:#f6e3a2; stroke-width:0px;"/><path d="m536.9724,229.1558q2.1496-8.5982,4.2991-17.1965c8.3183-11.5517,13.3725-33.8404,6.8786-47.2903.9632-.0332,1.7855.2635,1.7196-.8598,8.6469,21.2813,7.077,50.7308-12.8973,65.3465Z" style="fill:#4cccd4; stroke-width:0px;"/><path d="m417.457,224.8567q-.4299,2.1496-.8598,4.2991c-15.3969-13.9086-13.3637-10.5367,0,3.0094-1.5266.4939-7.5977-3.7605-8.5982-4.729-10.8742-10.5259-4.3276-17.3143-5.1589-23.2152l.8598-.8598c2.2032,5.7623,9.1048,17.6479,13.7572,21.4956Z" style="fill:#c4a181; stroke-width:0px;"/><path d="m452.7097,123.3976c-3.8359,1.1487-8.4831,3.3197-12.0375,5.1589-8.4704,4.3831-14.4589,8.4241-20.6357,15.9067-11.505,13.9372-13.6507,30.8756-13.7572,21.4956-.0411-3.625,6.8061-17.9357,9.4581-21.4956,6.2968-8.4528,26.5446-22.7849,36.9724-21.0657Z" style="fill:#e0b195; stroke-width:0px;"/><path d="m541.2715,211.9594q-2.1496,8.5982-4.2991,17.1965c-1.7158,1.2555-3.2607,2.7627-4.729,4.2991-.5065.0292-6.8837-5.2848-8.1683-6.0188,5.1636-.3528,9.3238-12.6468,12.8973-14.617,1.5564-.8581,2.4676-1.0801,4.2991-.8598Z" style="fill:#d1c68b; stroke-width:0px;"/><path d="m460.0182,177.5664c7.0839,11.8082-.5602,25.3188-14.617,20.6357,8.5553-6.1598,12.1515-9.8631,14.617-20.6357Z" style="fill:#fdc32e; stroke-width:0px;"/><path d="m442.3919,230.0156v2.5795c-18.4675-7.034-31.5829-19.7319-36.9724-39.1219,9.5923,18.188,17.614,28.579,36.9724,36.5425Z" style="fill:#958f7e; stroke-width:0px;"/><path d="m403.6998,203.3611l-.8598.8598c-.2276-1.6155-11.1834-21.9853-5.1589-31.3835,5.2262-8.1529-.9938,12.1827,6.0188,30.5237Z" style="fill:#dcd4c7; stroke-width:0px;"/><path d="m501.7196,244.6326c-1.3175-1.5283-1.4962-4.1013-.8598-6.0188,6.3621-.172,10.6543-1.8996,17.1965,1.2897q-8.1683,2.3645-16.3366,4.729Z" style="fill:#cbc7aa; stroke-width:0px;"/><path d="m439.3825,204.221c5.5466-.1011-12.8404,19.6086-12.4674,11.6076.0678-1.454,10.5344-11.5724,12.4674-11.6076Z" style="fill:#fbd437; stroke-width:0px;"/><path d="m442.3919,232.5951v-2.5795c10.0527,4.1354,20.3071,6.3438,30.9536,8.1683-10.6606.9849-21.0765-1.8268-30.9536-5.5888Z" style="fill:#cbc7aa; stroke-width:0px;"/><path d="m472.9156,228.296c.3559-.105,7.2805.8666,7.3085,1.2897-6.0045,9.6195-12.7728.3222-7.3085-1.2897Z" style="fill:#f2aa25; stroke-width:0px;"/><path d="m456.5789,171.5477q.6449.6449,1.2897,1.2897c-11.3966,15.2473-15.9056,15.0404-1.2897-1.2897Z" style="fill:#dcaf78; stroke-width:0px;"/><path d="m536.1126,173.2673c.1528,1.0884-.0575,2.3152,0,3.4393-1.4536-4.3828-2.6007-8.9597-5.1589-12.8973h.8598c.2475.4567,3.3157,2.4519,4.2991,9.4581Z" style="fill:#446d47; stroke-width:0px;"/><path d="m451.42,209.3799c12.5006-.679,12.4478,2.4021,0,1.7196v-1.7196Z" style="fill:#c18f3e; stroke-width:0px;"/><path d="m466.037,192.1834c3.37-1.1349,3.0432,4.2092.8598,4.2991-3.6905.152-2.2383-3.8349-.8598-4.2991Z" style="fill:#fbd437; stroke-width:0px;"/><path d="m432.5039,182.7254c6.1913-.6383-4.9845,5.692-5.5888,3.8692.9729-1.3497,5.2508-3.8344,5.5888-3.8692Z" style="fill:#885532; stroke-width:0px;"/><path d="m437.6628,181.8656c.7041-.4058,4.0081,2.8075,3.8692,3.0094-1.554,2.2587-6.3136-1.6004-3.8692-3.0094Z" style="fill:#d99555; stroke-width:0px;"/><path d="m374.036,154.3512c.5303,0,.6279,3.0906.4299,3.8692-1.2965,5.0985-1.5125-3.8692-.4299-3.8692Z" style="fill:#7e7568; stroke-width:0px;"/><path d="m380.0547,203.3611c.8728-.3327,2.163,1.1562,2.1496,1.2897-.1427,1.4197-3.4768-.7839-2.1496-1.2897Z" style="fill:#c4bcb9; stroke-width:0px;"/><path d="m381.7744,194.7629l.4299.4299v.8598l-.4299.4299h-.8598l-.4299-.4299.4299-.4299q.215-.215.4299-.4299l.4299-.4299Z" style="fill:#786c6a; stroke-width:0px;"/><path d="m548.1501,164.6691c6.494,13.4499,1.4397,35.7386-6.8786,47.2903-1.8315-.2203-2.7427.0018-4.2991.8598-.531-3.7523,1.6001-4.9147,1.7196-5.1589.0845-.1727.7216-.2494,1.7196-3.4393,2.8625-9.1491,2.75-16.4739,1.7196-25.7947-.3646-3.2987-2.5395-6.5134-2.5795-6.8786-1.0008-9.1525.7603-6.608,8.5982-6.8786Z" style="fill:#d1c68b; stroke-width:0px;"/><path d="m540.4117,204.221h-.8598c2.0178-8.5178,1.7531-17.1731,2.5795-25.7947,1.0303,9.3208,1.1429,16.6456-1.7196,25.7947Z" style="fill:#2f5940; stroke-width:0px;"/><path d="m540.4117,204.221c-.998,3.1899-1.6352,3.2666-1.7196,3.4393-.4354-3.9046.8189-3.2668.8598-3.4393h.8598Z" style="fill:#d1c68b; stroke-width:0px;"/><path d="m377.0453,171.5477c-.4189.4076.1518,4.8461,3.0094,4.2991,3.4455-.6595-2.542-4.7539-3.0094-4.2991q.6449-.8598,1.2897-1.7196c17.8761,6.2324,14.2145-16.3917,15.4768,22.3554-11.1948-10.9733-22.3916,7.4804-16.7665-20.6357Z" style="fill:#f0ead1; stroke-width:0px;"/><path d="m379.1949,179.2861c.8493-.4246,8.2367.6233,8.5982.8598,7.5359,4.9298-13.4522,1.5666-8.5982-.8598Z" style="fill:#0d0c0a; stroke-width:0px;"/><path d="m377.0453,171.5477c.4674-.4548,6.4548,3.6396,3.0094,4.2991-2.8575.547-3.4282-3.8915-3.0094-4.2991Z" style="fill:#0d0c0a; stroke-width:0px;"/><path d="m379.1949,183.5852c.8265-.0785,2.0757,3.1117.8598,3.4393-.2004.054-1.9279-3.3378-.8598-3.4393Z" style="fill:#54250c; stroke-width:0px;"/><path d="m465.6071,773.4237c-6.5337,5.7044,1.3279,13.6643-2.5795,32.2434.1472,1.6546,2.4896,5.2248,2.5795,5.5888.9777,3.9602.1834,7.6999,1.7196,7.7384,5.8511,11.8087,13.2242,5.2271,17.6264,6.0188,2.0597.3704,12.7163,6.947,20.2058,6.8786-.0348.5696.0269,1.1489,0,1.7196-.0475,1.0077-1.3809.7532,0,2.5795-2.4649-1.2882-5.2781-2.2318-7.7384-3.4393-.7637-.3748-4.225-3.0547-9.888-5.1589-5.4939-.5906-6.117,1.6829-6.4487,1.7196-2.4923.2765-9.036-.4366-9.888,0-7.1054,3.6408,7.483,10.0244,9.0281,11.1777,6.0309,4.5016,12.0023,9.0513,18.4862,12.8973,5.0285,15.7945,38.4205,37.464,50.2996,28.3742.0757.1227.7829-.3516,1.2897,2.5795,1.0675-7.1948,1.0389-2.4739,1.2897-2.5795,3.1768,6.7617-21.189,5.5142-27.9442,4.2991-11.0125-1.9808-18.9868-9.2822-28.8041-13.7572-12.9658-5.9102-25.7829-12.1826-39.5518-16.3366-.9819-3.0134-1.9995-.8856-3.4393-5.1589-6.8956-20.4669,9.0907-20.3383,5.1589-27.5143,2.8742-.7582.5462-12.2106.8598-23.6451.0944-3.4398,4.8811-18.3857-1.7196-13.3273,2.1827-4.3225,4.1118-1.5338,5.1589-3.0094.3772-.5315.3271-13.247,4.2991-9.888Z" style="fill:#0d0c0a; stroke-width:0px;"/><path d="m455.2892,855.9666c13.7689,4.1541,26.586,10.4265,39.5518,16.3366-4.6314,4.2713-.0264,3.8346,3.4393,7.7384-7.0835-3.5744-14.3507-3.1063-15.0469-3.4393-4.5156-2.1599,2.4654-10.18-11.1777,2.5795-4.9573-1.6621-31.4079-1.8715-24.5049-11.6076.3587-.5059,9.3311.0574,7.7384-6.8786-.1977-.861-17.2216-9.9248,0-4.729Z" style="fill:#f0ead1; stroke-width:0px;"/><path d="m544.7108,896.3783v-.8598c2.422-.4072,5.7099-2.2588,7.3085-4.2991q.215.6449.4299,1.2897c-2.3909,3.2698-4.308,3.1202-7.7384,3.8692Z" style="fill:#7e7568; stroke-width:0px;"/><path d="m497.4205,832.7514h-.8598c-3.9186,1.0543,1.8866,12.3338,3.4393,14.1871,1.3923,1.6618,13.1837,9.5978,15.4768,10.7478,5.1923,2.6039,14.5514,7.3972,19.7759,5.1589,1.5539.7995,6.378,1.2422,8.5982,3.8692,2.6061,3.0835,2.6284,10.9442,5.1589,15.0469-11.8791,9.0899-45.2711-12.5797-50.2996-28.3742-6.4839-3.846-12.4553-8.3957-18.4862-12.8973q.4299-5.5888.8598-11.1777c.3317-.0368.9548-2.3102,6.4487-1.7196,5.6629,2.1043,9.1243,4.7841,9.888,5.1589Z" style="fill:#0bbdbf; stroke-width:0px;"/><path d="m481.0839,829.3121q-.4299,5.5888-.8598,11.1777c-1.5452-1.1533-16.1335-7.5369-9.0281-11.1777.852-.4366,7.3956.2765,9.888,0Z" style="fill:#e6525c; stroke-width:0px;"/><path d="m505.1589,836.1907h.8598c1.5372,4.501,4.0692,7.5314,6.8786,11.1777,7.6205,9.8907,11.8686,10.0809,22.3554,15.4768-5.2245,2.2382-14.5837-2.5551-19.7759-5.1589-1.6448-9.267-17.4386-4.6966-18.9161-24.9349h.8598c2.4603,1.2074,5.2735,2.1511,7.7384,3.4393Z" style="fill:#61d6cf; stroke-width:0px;"/><path d="m515.4768,857.6863c-2.2931-1.15-14.0845-9.086-15.4768-10.7478-1.5527-1.8533-7.3579-13.1328-3.4393-14.1871,1.4775,20.2382,17.2713,15.6678,18.9161,24.9349Z" style="fill:#022931; stroke-width:0px;"/><path d="m499.5701,837.0505c1.1429.8994,10.4526,11.1818,7.7384,12.0375q-3.8692-6.0188-7.7384-12.0375Z" style="fill:#042522; stroke-width:0px;"/><path d="m496.5607,753.6477c-10.8838-6.7838-35.5663-7.6093-25.7947,11.1777h-.8598c-.2189-.154-3.3748.6312-4.2991-3.0094-1.9613-7.7244,4.4764-10.132,6.0188-15.9067.5596.063,1.2937-.1248,1.7196,0,7.5569,2.2155,14.771-6.1876,15.4768-12.8973,1.489-14.1544-6.5866-9.0985-7.7384-10.7478-.4069-.5826.6759-8.6216-.8598-14.1871-.4866-1.7635-2.6868-6.2755-5.1589-6.0188.864-3.1023-1.7762-4.2926,3.8692-5.1589,7.0449-1.0811,19.3988,9.6604,26.2246-1.7196-1.8856,19.2955-1.547,40.2894-8.5982,58.468Z" style="fill:#0bbdbf; stroke-width:0px;"/><path d="m500,659.0672c-9.5073,9.4912-6.4174,10.3541-20.2058,9.4581-1.7781-.7191-.3422-20.0382,2.1496-22.3554,3.8611,4.9007,6.4345,5.1534,7.3085,12.0375,12.8376-8.1547,15.535-3.1816,21.9255-18.9161.1535,10.0208-5.308,13.9162-11.1777,19.7759Z" style="fill:#0bbdbf; stroke-width:0px;"/><path d="m507.7384,675.4039c.5911.2963,1.075.7366,1.7196.8598-1.5176,2.6714-4.2912,3.2132-3.4393,6.8786-5.8761,3.3514-21.7115-7.5522-30.0938,7.7384-8.2125-3.1904,12.5286-9.881,12.8973-10.7478.1676-.394-1.2527-5.2732,0-7.3085,11.1229,1.3544,13.4068,9.5754,18.9161,2.5795Z" style="fill:#1a0c09; stroke-width:0px;"/><path d="m505.1589,691.7405c-.1142,1.1276.1103,2.3106,0,3.4393-6.8258,11.38-19.1797.6385-26.2246,1.7196-5.6454.8663-3.0052,2.0567-3.8692,5.1589-.2332.8372-1.3046,1.6539-.8598,4.2991.0358-.5517-2.8118-7.8199,1.2897-10.3179,6.3542-3.87,21.3993,8.6745,13.3273-3.4393,3.6403.7533,7.4679.2717,10.7478,2.5795,3.5628-2.496.823-2.8967.4299-5.1589-.1402-.8067,1.9533-.3919-1.7196-4.2991,1.5038.5745,4.1758.0102,6.8786,6.0188Z" style="fill:#1a0c09; stroke-width:0px;"/><path d="m506.0188,683.1423c.7,2.9494-.5783,5.82-.8598,8.5982-2.7027-6.0085-5.3748-5.4443-6.8786-6.0188-12.4119-4.7418-21.2281,5.5969-22.3554,5.1589,8.3823-15.2906,24.2177-4.387,30.0938-7.7384Z" style="fill:#29a6af; stroke-width:0px;"/><path d="m377.9052,755.3674c-1.0137,8.9985-.8246,21.5644,0,30.5237.653,7.0957,5.2922,17.9972,2.5795,23.6451-10.268-12.1081-4.1941-42.3829-18.4862-48.1501.0117,3.7936-1.1714,9.0016-1.2897,12.0375h-.8598c.3406-2.7279,1.2765-14.0388.8598-15.4768,10.1229-7.7886,6.2024,2.5029,11.6076,1.7196.3489-.0505,3.1491-3.4063,5.5888-4.2991Z" style="fill:#028287; stroke-width:0px;"/><path d="m366.7275,712.3762c-2.9446-.8502,2.0805-22.7215,3.4393-27.0844,4.6658-14.9814,19.4322-37.3611,19.7759-39.5518.5806-3.7003-1.3246-2.5767-1.7196-3.8692-.6991-3.0336,2.459-4.0793,2.5795-4.2991q1.2897,3.6542,2.5795,7.3085c-11.3984,24.052-23.6326,39.4501-26.6545,67.4961Z" style="fill:#a8ddda; stroke-width:0px;"/><path d="m366.7275,802.6576c-.6175.372-2.6762.6037-5.1589,1.7196-6.429-15.4959-8.9219-13.0841-1.7196.8598-.1239.0559.3451,1.2598-2.5795.8598-.8763-2.02-2.2626-3.7533-2.5795-6.0188-.377-2.6952-.0668-4.6283,0-7.3085,1.8999-5.1903,4.51-14.149,5.1589-19.346h.8598c-.3992,10.2443,1.1404,20.2052,6.0188,29.234Z" style="fill:#0e1c1e; stroke-width:0px;"/><path d="m465.6071,432.9338c-2.5561-.2257-3.549,3.0385-3.4393,5.1589-20.6818-3.4768-35.3094,2.6343-30.9536-9.888,3.8315-11.015,29.626,3.597,34.3929,4.729Z" style="fill:#0bbdbf; stroke-width:0px;"/><path d="m482.8035,772.5638c.4659.4172-.3127,2.2689,4.2991,4.2991,5.5521,2.4441,11.0499,2.4885,9.4581-.8598,2.1455-.1053,3.9257-.632,6.0188-.8598.0653.2613,1.8049,3.6377,2.5795,4.729q-.8598,9.888-1.7196,19.7759c4.2271,8.6297,2.8173,18.1708,1.7196,27.0844q-8.5982-3.6542-17.1965-7.3085c5.4704-9.4748-1.572-31.8494-13.7572-22.7853,6.0821-22.6825-3.6803-35.0694,8.5982-24.075Z" style="fill:#0bbdbf; stroke-width:0px;"/><path d="m380.4846,809.5362c.3144,1.5952,4.1567,4.0305,4.2991,4.2991,6.1744,11.6438,8.4046,27.1814,9.4581,28.8041.9538,1.4692,3.6856,1.56,6.0188,4.2991.2248.2639-4.0664,1.9574,3.4393,3.4393.5293,16.6402,1.8895-.46,3.4393-1.7196,6.255-5.0838-1.6233,5.8222,4.2991,11.6076,3.7888,3.7011,9.4764,3.3088,12.0375,0,4.12.343,6.0165-1.3595,6.8786.4299-2.1073,15.9609,5.5329,20.2086,3.8692,21.9255-10.7409,1.8116-30.3636,1.6522-35.6826-9.4581,12.6613,10.666,14.7666,1.4119,14.617.4299-.2584-1.6959-15.0597-5.7038-26.6545-20.2058-.1639-4.5155.4906-11.7739,0-14.1871-.4879-2.3998-6.6608-10.5774-8.5982-13.3273,11.8811-2.1645,5.6517-6.2917,3.4393-10.3179-3.313-6.029-8.3509-11.0728-11.6076-17.1965-.3677,4.8801-1.8868,3.6229-3.0094,4.2991-4.8784-9.0288-6.4179-18.9896-6.0188-29.234.1183-3.0359,1.3014-8.2439,1.2897-12.0375,14.2921,5.7672,8.2182,36.042,18.4862,48.1501Z" style="fill:#0bbdbf; stroke-width:0px;"/><path d="m386.5034,754.5075c-.1762,2.2098.6299,10.4056,2.5795,9.4581.8703,11.5793-.738,23.5633,12.8973,26.6545-.0109.0853.2595-.2749,0,1.7196-6.4955-1.1573-12.659-4.3603-15.9067-10.3179-.97.9724.1532,2.5508.4299,5.1589v27.0844q-.8598-.215-1.7196-.4299c-.1424-.2686-3.9847-2.7039-4.2991-4.2991,2.7127-5.6479-1.9264-16.5494-2.5795-23.6451-.8246-8.9593-1.0137-21.5252,0-30.5237,3.1043-1.136,5.4371-.9531,8.5982-.8598Z" style="fill:#022931; stroke-width:0px;"/><path d="m401.9802,792.3398c-.7124,5.4759-1.8608,10.83-2.5795,16.3366-.4042,3.0972-2.6459,9.0996-2.5795,12.0375-3.1219-.0386-4.4101,4.2792-4.729,4.2991-5.791.3611-5.1692-33.8772-5.5888-37.8322-.2767-2.6082-1.3999-4.1865-.4299-5.1589,3.2477,5.9576,9.4112,9.1606,15.9067,10.3179Z" style="fill:#0bbdbf; stroke-width:0px;"/><path d="m398.5409,873.1631c-6.2977-5.3052-8.9629-11.2975-13.7572-17.6264-.1957-1.7641,1.7246-2.012,1.7196-2.1496,11.5948,14.502,26.3961,18.51,26.6545,20.2058.1496.982-1.9557,10.2361-14.617-.4299Z" style="fill:#29a6af; stroke-width:0px;"/><path d="m381.3445,815.555c2.2124,4.0262,8.4418,8.1534-3.4393,10.3179-1.2457-1.768-7.0831-3.6996,3.4393-10.3179Z" style="fill:#db375c; stroke-width:0px;"/><path d="m361.5685,804.3773c-.105.0472-.7521.4235-1.7196.8598-7.2022-13.9439-4.7093-16.3557,1.7196-.8598Z" style="fill:#028287; stroke-width:0px;"/><path d="m465.6071,811.2559c-.0899-.364-2.4323-3.9342-2.5795-5.5888,3.9074-18.5791-3.9542-26.5389,2.5795-32.2434,4.2608,6.5886,2.1174,14.3768,2.5795,21.9255.4015,6.5589,6.3749,9.5835-2.5795,15.9067Z" style="fill:#048496; stroke-width:0px;"/><path d="m457.0089,823.2934c-.1168-.2133-2.7389-2.6925-3.4393-3.4393.897-10.0951.4718-20.8531,0-30.9536,1.7233.4341,1.6736-.7855,2.5795-2.5795,6.6007-5.0585,1.814,9.8875,1.7196,13.3273-.3137,11.4345,2.0143,22.8869-.8598,23.6451Z" style="fill:#028287; stroke-width:0px;"/><path d="m457.0089,594.5805c-1.6401,4.4459-3.8184,8.7574-5.1589,13.3273q-.8598-.215-1.7196-.4299c8.3827-28.9071,11.5663-44.3591,13.7572-74.3747,1.2185-16.6932-5.3731-13.0592,12.0375-22.3554-4.0188-19.8734,14.732-11.5399.8598-26.2246,13.8388,10.2693,5.7748,6.9436,0,17.6264.9765,28.5812-9.7457,65.2413-19.7759,92.431Z" style="fill:#0bbdbf; stroke-width:0px;"/><path d="m456.149,742.47c-.0138,1.5375-2.2056.5712-2.5795.8598-8.0665-21.3495.1778-52.352,3.4393-75.2345,1.1465-7.0334-2.5233-9.5464-2.5795-16.3366-.0492-5.9409,3.9914-30.4785,5.1589-38.692.1615-1.1359,4.1515-8.5893,2.5795-21.0657.3253-.9378.3427-4.3356,2.5795-7.7384,1.2324,22.3698-2.6602,44.9338-7.7384,66.6363,7.6975,19.83-13.8539,75.5389-.8598,91.5711Z" style="fill:#0bbdbf; stroke-width:0px;"/><path d="m506.0188,636.7118c5.9596,4.2177-4.6283,14.0577-14.1871,12.0375-.9346-.1975-6.9892-4.499-7.3085-5.1589-6.6606-13.7653,14.4684-11.8518,21.4956-6.8786Z" style="fill:#b28572; stroke-width:0px;"/><path d="m460.4482,744.1897c.1713.0149.3425,2.0991,3.4393,0,5.0249,4.6872-2.8906,8.3197-3.4393,11.6076-.6926,4.1505,7.9158,13.9837-3.0094,11.6076-2.4942-.5425-3.1695-3.1351-3.8692-5.1589-1.2556-3.6317-2.9898-16.6083,0-18.9161.3739-.2886,2.5657.6777,2.5795-.8598,2.7793,3.4291,4.0369,1.6969,4.2991,1.7196Z" style="fill:#9e252a; stroke-width:0px;"/><path d="m511.1777,606.618c-1.0856,4.7653-2.572,9.2062-4.2991,13.7572-14.4833-4.5994-24.5775,4.0181-19.7759-14.617,3.8127,6.6256,18.9634,5.5386,24.075.8598Z" style="fill:#0bbdbf; stroke-width:0px;"/><path d="m500,474.2053c-.8626,2.8351-6.0785,17.516-6.0188,18.4862.6624,10.7535,8.9946-17.7217,29.234-13.7572-.7363,1.3189-20.3018,4.3497-19.7759,11.1777,20.394-5.1608-8.9311,15.0959-16.3366,21.0657-.5537.4464-3.1906.5864-3.4393,2.1496q.8598,37.4023,1.7196,74.8046c5.8401-.561-4.0457,11.2462,1.7196,9.888-.0899,1.0488.7154.7733.8598.8598.3436,2.4598-.2617,4.5571-.8598,6.8786-4.8016,18.6351,5.2926,10.0176,19.7759,14.617h1.7196c-1.7934,1.5053-3.3122.5126-3.4393,1.2897,2.1872,1.3158,5.9873.4698,6.8786,3.8692-3.6534-2.0003-26.4082-8.1083-27.5143-5.5888-2.5694,5.8527,10.6753.799,26.6545,8.1683-.4552,3.6139,1.736,2.4973,0,4.2991-13.2433-11.2355-31.7249-6.9605-26.2246-3.4393.5443.3485,6.624-1.8674,12.8973-.8598,3.3473.5376,7.9192,3.7662,10.7478,4.2991-1.4584,3.2068-4.2242.041-2.5795,4.2991-7.0272-4.9733-28.1562-6.8867-21.4956,6.8786.4896,2.1255-1.6091,1.6771-2.5795,2.5795-2.4917,2.3172-3.9276,21.6363-2.1496,22.3554,13.7884.896,10.6985.0331,20.2058-9.4581-2.2407,18.7374,13.9891,9.2207,9.4581,17.1965-.6446-.1232-1.1286-.5635-1.7196-.8598-4.9236-2.4684-23.7157-8.1605-27.9442-5.1589-7.9473,5.6412,4.0884,1.9779,9.0281,2.5795-1.2527,2.0353.1676,6.9145,0,7.3085-.3687.8668-21.1099,7.5574-12.8973,10.7478,1.1273.4379,9.9435-9.9008,22.3554-5.1589,3.6729,3.9072,1.5795,3.4925,1.7196,4.2991-6.5404-2.4757-13.9012-2.7252-19.7759,1.2897,3.4458-.842,5.5788.6649,8.5982,1.2897,8.072,12.1138-6.973-.4307-13.3273,3.4393-4.1016,2.498-1.254,9.7662-1.2897,10.3179-.5631,8.6827-1.6289,35.9931-2.5795,39.5518-1.5424,5.7747-7.98,8.1823-6.0188,15.9067.9243,3.6405,4.0802,2.8554,4.2991,3.0094,1.5373,1.0813,1.4719.5333,2.5795.8598.1031.0304.4767,1.4833,1.2897,1.7196,1.656.4814,5.082-2.2864,7.7384,0,.9043.7783,1.1226,4.9522,1.2897,5.1589-12.2785-10.9944-2.5161,1.3925-8.5982,24.075-.5744,2.1421-3.226,4.535-2.5795,7.3085.6774,2.906,6.3954-4.5762,4.729,9.0281,5.7228-4.3061-2.2713-15.2337,2.5795-14.617,5.421.6892,1.5186,16.3077-.8598,19.7759-3.0781-8.1734-1.0017,1.5603-3.4393,2.5795-2.0205.8447-6.5325-4.156-7.3085-1.7196-1.5363-.0385-.742-3.7782-1.7196-7.7384,8.9543-6.3232,2.981-9.3478,2.5795-15.9067-.4621-7.5486,1.6813-15.3368-2.5795-21.9255-3.9721-3.359-3.9219,9.3565-4.2991,9.888-1.0471,1.4756-2.9763-1.3131-5.1589,3.0094-.9059,1.794-.8561,3.0135-2.5795,2.5795-.0267-.571.0268-1.1486,0-1.7196-.3894-8.3046-3.0092-14.9588-.8598-24.075.0449-.041-.1857-.9557.8598-.8598.6997,2.0239,1.375,4.6165,3.8692,5.1589,10.9252,2.3761,2.3167-7.4571,3.0094-11.6076.5487-3.2879,8.4641-6.9204,3.4393-11.6076,6.0084-4.0727,1.9819-7.3921-3.4393,0-.2622-.0228-1.5199,1.7095-4.2991-1.7196-12.994-16.0323,8.5574-71.7412.8598-91.5711,5.0782-21.7025,8.9708-44.2664,7.7384-66.6363-4.8998,2.1952-4.5274,15.8708-7.7384,10.3179,10.0302-27.1897,20.7524-63.8497,19.7759-92.431,5.7748-10.6827,13.8388-7.3571,0-17.6264l.4299-1.7196c9.5561.8509,14.6164,21.6369,21.0657-12.8973q.8598,2.1496,1.7196,4.2991Z" style="fill:#0d0c0a; stroke-width:0px;"/><path d="m507.7384,675.4039c-5.5093,6.996-7.7932-1.225-18.9161-2.5795-4.9398-.6015-16.9754,3.0617-9.0281-2.5795,4.2286-3.0016,23.0207,2.6906,27.9442,5.1589Z" style="fill:#f4d1c2; stroke-width:0px;"/><path d="m475.925,732.1522c-.3823,2.2396-.7838,3.0224-.8598,3.4393-.6277,3.443-.8163,6.928-1.7196,10.3179-.4259-.1248-1.1601.063-1.7196,0,.9505-3.5587,2.0164-30.8691,2.5795-39.5518l1.7196-.4299c-.9008,9.8527-2.3322,18.559,0,26.2246Z" style="fill:#cad0c9; stroke-width:0px;"/><path d="m500,690.0208c.3931,2.2623,3.1329,2.6629-.4299,5.1589-3.2799-2.3077-7.1075-1.8262-10.7478-2.5795-3.0194-.6248-5.1525-2.1318-8.5982-1.2897,5.8747-4.0149,13.2355-3.7654,19.7759-1.2897Z" style="fill:#ebcecf; stroke-width:0px;"/><path d="m512.0375,625.5341c1.1585,4.4185-.8045,2.14-.8598,2.5795-15.9792-7.3693-29.2239-2.3157-26.6545-8.1683,1.1061-2.5195,23.861,3.5885,27.5143,5.5888Z" style="fill:#bb6a57; stroke-width:0px;"/><path d="m511.1777,632.4127c-1.298,1.3473-1.5674.1907-2.5795,0-2.8285-.5329-7.4004-3.7615-10.7478-4.2991-6.2733-1.0076-12.353,1.2083-12.8973.8598-5.5003-3.5212,12.9813-7.7962,26.2246,3.4393Z" style="fill:#9decf0; stroke-width:0px;"/><path d="m453.5696,787.1808c-5.0387-1.8779-4.7784-20.5002-.8598-24.075-2.1493,9.1163.4704,15.7704.8598,24.075Z" style="fill:#29a6af; stroke-width:0px;"/><path d="m471.1959,776.0031c.8507,2.2345,2.9438,5.2783,3.0094,5.5888,2.6047,12.331-2.2732,14.3541-3.0094-5.5888Z" style="fill:#29a6af; stroke-width:0px;"/><path d="m500.8598,494.8411c-2.2221,2.9544-5.2623,8.3983-9.4581,9.0281,3.7906-3.9176,4.3844-6.0599,9.4581-9.0281Z" style="fill:#88b2b2; stroke-width:0px;"/><path d="m463.8874,744.1897c-3.0968,2.0991-3.268.0149-3.4393,0,5.4212-7.3921,9.4477-4.0727,3.4393,0Z" style="fill:#cdd7e6; stroke-width:0px;"/><path d="m472.0558,810.396c2.2441.0173,1.3428,5.7901.8598,6.0188-.3151.1492-3.8547-6.0418-.8598-6.0188Z" style="fill:#028287; stroke-width:0px;"/><path d="m468.6165,812.9755c.1711-.0461,1.4341,2.6009,1.2897,3.0094-.5376,1.5211-2.9162-2.5711-1.2897-3.0094Z" style="fill:#028287; stroke-width:0px;"/><path d="m500.8598,494.8411c.1245-.0728,1.0161-2.7928,2.5795-1.2897-1.1865,1.7596-2.4928,1.1745-2.5795,1.2897Z" style="fill:#6d8982; stroke-width:0px;"/><path d="m472.4857,764.8254v.8598c-1.1076-.3265-1.0422.2215-2.5795-.8598h2.5795Z" style="fill:#405c63; stroke-width:0px;"/><path d="m480.2241,708.0771c-2.5201,7.7709-2.9288,16.0486-4.2991,24.075-2.3322-7.6656-.9008-16.3719,0-26.2246l-1.7196.4299c-.4448-2.6452.6267-3.4619.8598-4.2991,2.4722-.2567,4.6723,4.2553,5.1589,6.0188Z" style="fill:#716454; stroke-width:0px;"/><path d="m488.8223,733.012c-.7058,6.7097-7.92,15.1129-15.4768,12.8973.9033-3.3899,1.092-6.8749,1.7196-10.3179,1.5207,1.745,1.4901,4.0213,2.5795,6.0188.8797,1.6131-1.1594,4.5998,4.729.8598,3.6538-2.3206,4.2029-6.7516,5.5888-10.3179.0539.6548.1296.9492.8598.8598Z" style="fill:#345247; stroke-width:0px;"/><path d="m487.1027,511.1777c.0187.981-1.6376,1.6947-1.7196,2.1496-.6453,3.5753.1912,69.0841.8598,72.655.1097.5861-.3214,1.3013.4299,1.7196,1.4814.2614,1.2384-.8018,1.2897-.8598.3561-.4025,2.7321-6.9675,6.4487-8.5982,7.7303-3.3917,22.2864.7693,24.075-3.4393,4.9936-.3973,3.4865,7.704,7.3085-.8598,5.516-.3131,1.2513,2.7799,3.4393,4.2991-6.1219,15.9338-13.8449,50.6781-18.0563,61.0474-6.3905,15.7345-9.0879,10.7614-21.9255,18.9161-.874-6.8841-3.4474-7.1368-7.3085-12.0375.9704-.9024,3.069-.454,2.5795-2.5795.3193.66,6.3739,4.9614,7.3085,5.1589,9.5588,2.0202,20.1467-7.8198,14.1871-12.0375-1.6447-4.2581,1.1211-1.0923,2.5795-4.2991,1.0121.1907,1.2814,1.3473,2.5795,0,1.736-1.8018-.4552-.6852,0-4.2991.0554-.4395,2.0183,1.839.8598-2.5795-.8913-3.3994-4.6913-2.5534-6.8786-3.8692.1271-.7772,1.6459.2155,3.4393-1.2897,4.4405-3.7271,11.9615-31.6309,15.4768-39.1219q-5.1589,4.2991-10.3179,8.5982c-.3369,5.5763-1.3434,11.3405-2.5795,16.7665-5.1117,4.6788-20.2623,5.7658-24.075-.8598.5982-2.3215,1.2034-4.4188.8598-6.8786,8.6365,5.1739,23.9198,5.4837,24.075-7.3085-18.4747,15.0759-25.9616-8.3452-24.9349,6.4487-5.7653,1.3583,4.1205-10.449-1.7196-9.888q-.8598-37.4023-1.7196-74.8046c.2486-1.5632,2.8856-1.7032,3.4393-2.1496Z" style="fill:#1a0c09; stroke-width:0px;"/><path d="m508.5982,620.3752h-1.7196c1.7271-4.551,3.2135-8.9918,4.2991-13.7572,1.236-5.426,2.2426-11.1902,2.5795-16.7665q5.1589-4.2991,10.3179-8.5982c-3.5153,7.4911-11.0363,35.3948-15.4768,39.1219Z" style="fill:#4cccd4; stroke-width:0px;"/><path d="m487.9625,598.8796c-.1444-.0865-.9498.189-.8598-.8598-1.0268-14.7939,6.4601,8.6272,24.9349-6.4487-.1553,12.7922-15.4385,12.4824-24.075,7.3085Z" style="fill:#e0b195; stroke-width:0px;"/><path d="m496.1308,579.9635c13.9978,10.5596,23.5474-2.3578,22.7853,3.0094-.1167.8215-12.5684,9.5524-13.3273,9.888-10.7853,4.77-24.8067-3.207-9.4581-12.8973Z" style="fill:#f3c8a9; stroke-width:0px;"/><path d="m487.9625,586.8421c-.0514.058.1916,1.1212-1.2897.8598-.7513-.4184-.3202-1.1335-.4299-1.7196q.8598.4299,1.7196.8598Z" style="fill:#405c63; stroke-width:0px;"/><path d="m422.6159,696.0396c-1.2956,3.0952-2.8473,6.4274-4.2991,9.4581-6.3985,13.3573-27.1042,50.1066-12.0375,40.4117-.024.1355,1.7734,1.7844,1.7196,2.1496-.7132,4.8415-1.6841,4.48-1.7196,4.729q-9.4581-.4299-18.9161-.8598c1.6812-2.9845,7.694-1.9047,9.888-3.4393,8.8831-6.2135-24.4959-5.0038-24.5049-6.4487,16.5495,2.0771,39.2646-19.0126,12.0375-22.3554,4.1691-2.693,8.6199-4.7799,12.8973-7.3085,4.1134-2.4316,11.5627-1.4911-7.7384-6.8786.253-.7861-.1956-4.7726,2.1496-5.1589,1.9006-.3131,13.1309,10.2735,18.4862,3.0094,1.2945-1.7559-3.3117-5.4874,12.0375-7.3085Z" style="fill:#0bbdbf; stroke-width:0px;"/><path d="m432.9338,645.3101c1.3362,3.7598,1.4407,7.4465,2.5795,11.1777-.4265,2.5089-1.4923,4.6243-2.5795,6.8786-20.208-13.257-28.1204,2.0735-15.4768-16.7665-1.9659-3.8223-1.4955-6.8434-1.7196-10.7478q5.1589,3.2243,10.3179,6.4487-5.1589-5.8038-10.3179-11.6076c5.3207-10.1357,3.9735,10.3891,17.1965,14.617Z" style="fill:#0bbdbf; stroke-width:0px;"/><path d="m435.5133,656.4877c-1.1388-3.7312-1.2433-7.4179-2.5795-11.1777-1.5791-4.4433-6.144-6.3722-9.4581-11.6076-.385-2.5369.9129-2.0466.8598-2.1496.7893,1.3776,2.8563,1.9319,4.2991,1.7196.6346-.0934,1.2121.3065,1.7196-.4299.0657-.0953-.3728-.0183-.8598-2.1496-.7496-3.28-4.9765-9.5118-7.7384-12.0375-.5856-2.4862-3.319-4.5018,1.2897-4.2991,2.8797.1267-.5993,2.1876,0,2.5795.2506.1639,4.7675-.587,5.5888,2.1496.5502,1.8332-4.122,12.8339,16.3366,5.1589-1.9113,5.97-3.8166,13.0386-9.4581,16.3366,1.7298,5.2905.903,10.5949,0,15.9067Z" style="fill:#0bbdbf; stroke-width:0px;"/><path d="m406.2793,752.7879c-.1083.759,2.0094,1.4134-.8598,2.5795q-8.8132-.4299-17.6264-.8598c-.5975.3091,1.1698,7.8627,1.2897,9.4581-1.9496.9475-2.7557-7.2482-2.5795-9.4581.0108-.1355.7931-2.461.8598-2.5795q9.4581.4299,18.9161.8598Z" style="fill:#3f0d03; stroke-width:0px;"/><path d="m397.6811,712.3762c-14.5789-2.9559-8.2651-5.2419-7.7384-6.8786,19.3011,5.3875,11.8518,4.4469,7.7384,6.8786Z" style="fill:#96545e; stroke-width:0px;"/><path d="m409.7186,475.0651c-4.9371,7.8231.8167,13.3258-6.0188,21.9255,6.1189,2.6104,7.2802-3.8539,8.1683-3.8692.7923-.0137,2.9861,7.839,3.8692.8598,1.2296-.0463,3.2238.3855,4.2991.8598.4537.2002,4.1435,2.6875,4.2991,3.0094,3.3967,7.0236,6.8497,61.3816,5.1589,80.8233-1.1746,13.5063-8.1662,15.3046.8598,22.7853-1.113-.3274-2.2921-.6359-3.4393-.8598-.087-.017.2582-1.7521-.4299-1.7196-.6175.0291-1.1888,1.6828-1.2897,1.7196-.1142.0417.6266,2.283-1.7196,1.7196-.2177-1.54.3078-3.7509,0-4.729-3.939-12.5159-4.2202,3.7157,0,4.729.0394.2784-.0208.576,0,.8598-2.594,3.1769-3.4244,5.5391-4.2991,9.4581-.2341,1.0487-.989,2.2992-.8598,3.4393-17.0978-8.6248,2.1021,6.0456,3.4393,8.1683,2.1817,3.4632,2.4019,6.964,2.5795,7.3085.053.1029-1.2448-.3873-.8598,2.1496,3.3141,5.2354,7.879,7.1643,9.4581,11.6076-13.223-4.2279-11.8757-24.7527-17.1965-14.617-2.3753,4.5248-.226,1.2218,0,5.1589.2241,3.9044-.2463,6.9255,1.7196,10.7478-12.6436,18.84-4.7312,3.5096,15.4768,16.7665-3.0515,6.3274-3.3834,7.3131-11.1777,7.7384-11.8229-1.7534,6.8151,1.9404,12.0375,6.0188q-2.5795,6.8786-5.1589,13.7572c-3.0364-5.6846-6.0564-5.727-12.0375-3.4393-14.3171-7.2626-25.9331.1992-2.5795,2.5795-.5816,3.9068,5.9335,4.0167,9.0281,3.4393q.6449,1.0748,1.2897,2.1496c-.0148.696-1.6854.3481-1.7196.4299-15.3492,1.8211-10.743,5.5526-12.0375,7.3085-5.3553,7.2641-16.5856-3.3225-18.4862-3.0094-2.3451.3864-1.8966,4.3728-2.1496,5.1589-.5267,1.6367-6.8405,3.9227,7.7384,6.8786-4.2775,2.5286-8.7283,4.6155-12.8973,7.3085,27.2271,3.3428,4.512,24.4325-12.0375,22.3554.009,1.4449,33.3881.2352,24.5049,6.4487-2.194,1.5346-8.2067.4548-9.888,3.4393-.0667.1184-.849,2.444-.8598,2.5795-3.1612-.0933-5.4939-.2761-8.5982.8598-2.4398.8928-5.2399,4.2486-5.5888,4.2991-5.4052.7833-1.4847-9.5083-11.6076-1.7196q-1.7196-1.0748-3.4393-2.1496c.7857-14.9424-6.1878-25.5896.4299-28.8041,9.3742-4.5533,6.5888,6.7945,7.3085,9.0281,2.2645,7.0283-.1597-14.1942,1.7196-23.6451,3.0219-28.0459,15.2561-43.4441,26.6545-67.4961q-1.2897-3.6542-2.5795-7.3085c10.1171-18.4654,1.7867-18.4599,9.4581-29.6639-4.0461-12.2833,1.4236-23.0933,0-36.9724-6.9037-10.431.4906-19.6874-8.5982-29.6639,4.0404-7.096-11.9083-26.3666,1.7196-33.963-3.2494,4.468-3.3348,17.6555-.8598,21.4956,5.2731,8.1815,1.097-23.8872,1.7196-30.0938.131-1.3059,2.394-5.9958,2.5795-7.3085.0496-.351.6068-.9525,1.7196-6.8786.3126-1.6649-1.0071-1.3716-.8598-3.4393,5.9512,1.4347,7.9298-6.6605,11.1777-10.3179,1.7388.1505.3883,3.2304.8598,4.2991Z" style="fill:#0d0c0a; stroke-width:0px;"/><path d="m382.6342,721.8343c13.4755-.8339,18.2168,6.552,6.8786,14.617-15.7182,11.1805-11.3664-4.9345-6.8786-14.617Z" style="fill:#dc3a38; stroke-width:0px;"/><path d="m418.3168,616.0761c1.1283.5692,2.5142,1.7335,3.4393,2.5795,2.7619,2.5257,6.9888,8.7576,7.7384,12.0375q-.4299,1.2897-.8598,2.5795c-1.4428.2123-3.5098-.3421-4.2991-1.7196-.1775-.3445-.3978-3.8453-2.5795-7.3085-1.3372-2.1227-20.5371-16.7932-3.4393-8.1683Z" style="fill:#916456; stroke-width:0px;"/><path d="m412.728,673.6842c1.0916-.3523,23.9732,10.6273,15.4768,12.0375-.8587.1425-15.7764-5.3525-16.3366-6.0188-.8894-1.0578-.7829-5.4885.8598-6.0188Z" style="fill:#f4d1c2; stroke-width:0px;"/><path d="m410.1485,660.7869c13.4596-4.2173,31.0878,15.6699-2.1496,2.1496.7503-.5413,1.6964-2.0076,2.1496-2.1496Z" style="fill:#d19988; stroke-width:0px;"/><path d="m395.5315,690.0208c2.7555-1.0129,19.5626,2.7507,19.346,4.729-.5055,4.6176-6.0459-.4018-6.4487-.4299-1.7092-.1192-2.0936,3.514-6.0188-.8598-4.4239,4.4869-12.4133-1.4049-6.8786-3.4393Z" style="fill:#f9ddb8; stroke-width:0px;"/><path d="m416.5972,687.4414c-1.2456.4764-.9662,2.4405-2.5795,2.5795-23.3536-2.3803-11.7376-9.842,2.5795-2.5795Z" style="fill:#1fabd2; stroke-width:0px;"/><path d="m436.3731,664.2262c-1.4635,4.1504-1.211,8.8144-2.5795,12.8973-5.2224-4.0783-23.8604-7.7722-12.0375-6.0188,14.1579,2.0998,6.9927-1.8999,14.617-6.8786Z" style="fill:#0bbdbf; stroke-width:0px;"/><path d="m415.7374,635.852c-.226-3.9371-2.3753-.6342,0-5.1589q5.1589,5.8038,10.3179,11.6076-5.1589-3.2243-10.3179-6.4487Z" style="fill:#446d47; stroke-width:0px;"/><path d="m423.4758,602.3189c-4.2202-1.0133-3.939-17.2449,0-4.729.3078.9782-.2177,3.1891,0,4.729Z" style="fill:#dac1b3; stroke-width:0px;"/><path d="m406.7092,667.6654q-1.7196,5.5888-3.4393,11.1777c-.7503-4.0244.9693-8.13,3.4393-11.1777Z" style="fill:#b6c0c7; stroke-width:0px;"/><path d="m465.6071,432.9338c14.5407,3.4531,37.0383.3062,37.8322,2.1496-1.5552,31.7579-6.2437,23.0313-7.7384,24.9349-1.0863,1.3834,5.4469,2.4295,2.5795,9.888-6.4493,34.5342-11.5096,13.7482-21.0657,12.8973l-.4299,1.7196c13.8722,14.6847-4.8786,6.3512-.8598,26.2246-17.4106,9.2962-10.819,5.6622-12.0375,22.3554-2.1909,30.0156-5.3744,45.4675-13.7572,74.3747-6.6301-1.8841-13.1641-4.0735-19.7759-6.0188-9.026-7.4807-2.0344-9.279-.8598-22.7853,1.6907-19.4418-1.7622-73.7997-5.1589-80.8233-.1556-.3218-3.8454-2.8092-4.2991-3.0094,7.424.3163,1.9452-3.378,2.5795-6.4487,1.8227-8.8245,11.3225-29.3496,12.0375-45.5706,1.7767-2.2302,23.9047-1.9397,25.7947.8598-.5448,9.0612.7769-.799,2.1496-1.2897.4982-.1781,4.267,2.4204,5.5888-.4299,2.0122-4.339-2.7735-3.3237-6.0188-3.8692-.1097-2.1204.8831-5.3847,3.4393-5.1589Z" style="fill:#0bbdbf; stroke-width:0px;"/><path d="m442.8218,469.0464c11.1103-2.1768,9.5726,17.4034-1.7196,11.1777-4.8738-2.6871-2.8986-10.2728,1.7196-11.1777Z" style="fill:#e94f6f; stroke-width:0px;"/><path d="m439.8124,565.3465v-3.4393c21.3445-3.1016,16.4341,9.3423,6.4487,7.7384-2.9054-.4666-4.3079-3.2411-6.4487-4.2991Z" style="fill:#d05a7a; stroke-width:0px;"/><path d="m453.9995,446.691c7.1729,19.5557,24.211-1.2364,36.5425,8.1683-11.7423-5.5871-34.9987,12.6939-36.5425-8.1683Z" style="fill:#042522; stroke-width:0px;"/><path d="m439.3825,542.9911c7.7175-2.2813,8.0992,8.1249,2.5795,8.5982-4.5032.3862-7.84-7.0432-2.5795-8.5982Z" style="fill:#b13f7a; stroke-width:0px;"/><path d="m443.6816,493.1214c3.1659-1.7052,6.5349,2.4411,4.2991,5.1589-3.3904,4.1214-7.9421-3.1968-4.2991-5.1589Z" style="fill:#985283; stroke-width:0px;"/><path d="m439.8124,561.9072v3.4393c-.3366-.1663-5.3872.323-6.8786-3.0094,2.8828,1.2363,4.7063-.1142,6.8786-.4299Z" style="fill:#abe6f8; stroke-width:0px;"/><path d="m525.7947,573.9448c-3.822,8.5639-2.3149.4626-7.3085.8598-1.7886,4.2086-16.3447.0476-24.075,3.4393-3.7166,1.6307-6.0925,8.1958-6.4487,8.5982q-.8598-.4299-1.7196-.8598c-.6686-3.571-1.5051-69.0798-.8598-72.655.0821-.4548,1.7384-1.1686,1.7196-2.1496,7.4056-5.9698,36.7307-26.2265,16.3366-21.0657-.5258-6.828,19.0396-9.8588,19.7759-11.1777-20.2394-3.9646-28.5716,24.5106-29.234,13.7572-.0598-.9702,5.1562-15.6511,6.0188-18.4862.9699-3.1881,1.1904-6.6092,1.7196-9.888,4.3982-3.6692,11.7801-9.9839,14.617-14.617,5.472-8.9367,7.5273-21.6823,3.4393-15.4768-.8113,1.2316.2027,12.0934-15.9067,23.6451q.6449-12.6824,1.2897-25.3648,8.3833-3.6542,16.7665-7.3085c11.1318,11.3349,7.1925,22.2327,9.0281,29.6639,4.0611,16.4403,9.9241,20.582,7.7384,55.0287-.7682,12.1068-8.2697,53.6878-12.8973,64.0568Z" style="fill:#0bbdbf; stroke-width:0px;"/><path d="m509.888,551.5894c8.662-2.4617,10.169,9.8719,4.2991,11.1777-6.7079,1.4923-10.4244-9.437-4.2991-11.1777Z" style="fill:#d05a7a; stroke-width:0px;"/><path d="m523.6451,462.1678c1.1485,1.012.0268,1.7256-.8598,2.5795-5.79,5.5763-38.2921,17.3219.8598-2.5795Z" style="fill:#042522; stroke-width:0px;"/><path d="m496.5607,753.6477c.775.4831,6.4953,6.3,6.8786,6.8786-4.8903,3.0967-7.1653,6.1782-12.8973,2.5795,3.8964.4352,3.2678-.8151,3.4393-.8598,18.4766-4.8205-29.573-21.205-20.6357,0-.0479.1273,2.214,1.4759-.8598,2.5795h-1.7196c-9.7716-18.787,14.9109-17.9615,25.7947-11.1777Z" style="fill:#321809; stroke-width:0px;"/><path d="m490.5419,763.1058c5.732,3.5987,8.007.5172,12.8973-2.5795,1.2555,1.8953-.0837,1.5146,0,3.4393-.1529.0257-.9127,1.4265-2.5795,1.7196-8.9362,2.1661-10.6249-.5555-12.0375-.8598-4.6316-.9976-7.5984-5.5489-11.6076-1.7196,2.6158-11.1584,12.5331-.4986,13.3273,0Z" style="fill:#a8ddda; stroke-width:0px;"/><path d="m500.8598,765.6852c2.3945,4.7823,1.3714,8.0639,1.7196,9.4581-2.093.2279-3.8733.7545-6.0188.8598-6.4994.3191-10.3556-1.7847-9.4581.8598-4.6118-2.0302-3.8332-3.8819-4.2991-4.2991,3.9417,4.8771,10.8412.4245,6.0188-7.7384,1.4126.3043,3.1013,3.026,12.0375.8598Z" style="fill:#0d0c0a; stroke-width:0px;"/><path d="m493.9812,762.246c-.1715.0448.4571,1.295-3.4393.8598-.7942-.4986-10.7114-11.1584-13.3273,0,4.0092-3.8293,6.976.7221,11.6076,1.7196,4.8224,8.1629-2.0771,12.6155-6.0188,7.7384-.1671-.2068-.3855-4.3806-1.2897-5.1589-2.6564-2.2864-6.0824.4814-7.7384,0-.813-.2363-1.1866-1.6893-1.2897-1.7196v-.8598c3.0739-1.1035.812-2.4522.8598-2.5795,4.0963-10.8934,15.8809-9.7826,20.6357,0Z" style="fill:#1a0c09; stroke-width:0px;"/><path d="m493.9812,762.246c-4.7548-9.7826-16.5394-10.8934-20.6357,0-8.9372-21.205,39.1124-4.8205,20.6357,0Z" style="fill:#dac1b3; stroke-width:0px;"/><path d="m496.5607,776.0031c1.5918,3.3483-3.9059,3.3039-9.4581.8598-.8976-2.6445,2.9587-.5407,9.4581-.8598Z" style="fill:#ebebf2; stroke-width:0px;"/><path d="m505.1589,826.7327c-.2055,1.6691.1035,3.4661,0,5.1589-7.4895.0684-18.1462-6.5082-20.2058-6.8786-4.4022-.7917-11.7753,5.7899-17.6264-6.0188.776-2.4364,5.288,2.5644,7.3085,1.7196,2.4376-1.0192.3612-10.7528,3.4393-2.5795,2.3784-3.4683,6.2808-19.0867.8598-19.7759-4.8508-.6167,3.1433,10.3109-2.5795,14.617,1.6663-13.6043-4.0516-6.1221-4.729-9.0281-.6465-2.7735,2.0051-5.1664,2.5795-7.3085,12.1851-9.0641,19.2276,13.3105,13.7572,22.7853q8.5982,3.6542,17.1965,7.3085Z" style="fill:#039596; stroke-width:0px;"/><path d="m482.3736,806.0969c4.0926-.3198,1.6801,13.7519.8598,13.7572l-.8598-13.7572Z" style="fill:#0e1c1e; stroke-width:0px;"/><path d="m405.4195,755.3674c1.1806,4.5248.6508,9.2508,0,13.7572-1.0219,7.0754-2.5315,14.4245-3.4393,21.4956-13.6354-3.0912-12.027-15.0752-12.8973-26.6545-.1199-1.5954-1.8872-9.1489-1.2897-9.4581q8.8132.4299,17.6264.8598Z" style="fill:#0bbdbf; stroke-width:0px;"/><path d="m420.8963,706.3575c-4.4035,11.0314-12.665,28.5363-14.617,39.5518-15.0667,9.6949,5.639-27.0543,12.0375-40.4117-.2045,2.4737.9621,1.8739,2.5795.8598Z" style="fill:#1a0c09; stroke-width:0px;"/><path d="m464.7473,584.2626c-2.2368,3.4028-2.2542,6.8006-2.5795,7.7384-8.3762,24.1489-17.2918,48.1116-25.7947,72.2251-7.6243,4.9787-.4591,8.9783-14.617,6.8786,7.7943-.4253,8.1262-1.411,11.1777-7.7384,1.0872-2.2543,2.153-4.3696,2.5795-6.8786.903-5.3119,1.7298-10.6162,0-15.9067,5.6415-3.298,7.5468-10.3667,9.4581-16.3366-20.4587,7.675-15.7864-3.3257-16.3366-5.1589-.8214-2.7365-5.3383-1.9857-5.5888-2.1496-.5993-.3919,2.8797-2.4528,0-2.5795-4.6087-.2027-1.8754,1.813-1.2897,4.2991-.9251-.846-2.311-2.0103-3.4393-2.5795-.1292-1.1401.6258-2.3906.8598-3.4393,4.9975.2744,2.6031-2.7607,3.0094-3.4393,1.0687-1.7852,2.102,5.0565,1.2897-6.0188-.0208-.2839.0394-.5814,0-.8598,2.3462.5634,1.6054-1.6779,1.7196-1.7196h1.7196c1.1472.2239,2.3263.5324,3.4393.8598,6.6118,1.9453,13.1458,4.1346,19.7759,6.0188q.8598.215,1.7196.4299c1.3405-4.5699,3.5189-8.8814,5.1589-13.3273,3.211,5.553,2.8386-8.1227,7.7384-10.3179Z" style="fill:#0d0c0a; stroke-width:0px;"/><path d="m419.1767,612.6368c.8747-3.919,1.7051-6.2812,4.2991-9.4581.8122,11.0753-.221,4.2335-1.2897,6.0188-.4062.6786,1.9881,3.7137-3.0094,3.4393Z" style="fill:#dac1b3; stroke-width:0px;"/><path d="m426.9151,600.5993h-1.7196c.101-.0368.6723-1.6905,1.2897-1.7196.6881-.0325.3429,1.7026.4299,1.7196Z" style="fill:#ffead7; stroke-width:0px;"/><path d="m427.345,604.0386c1.0362-.7568,16.61,8.9164,21.4956,6.8786,1.8336,19.1746-29.9544-.7011-21.4956-6.8786Z" style="fill:#e0b195; stroke-width:0px;"/><path d="m487.9625,732.1522c-1.3859,3.5662-1.935,7.9972-5.5888,10.3179-5.8884,3.7399-3.8493.7533-4.729-.8598,3.8123-5.2003,9.5092-19.2758,10.3179-9.4581Z" style="fill:#999e84; stroke-width:0px;"/><path d="m488.8223,733.012c-.7303.0894-.8059-.205-.8598-.8598-.8086-9.8177-6.5056,4.2577-10.3179,9.4581-1.0894-1.9975-1.0587-4.2737-2.5795-6.0188.076-.4169.4775-1.1997.8598-3.4393,1.3703-8.0265,1.7791-16.3041,4.2991-24.075,1.5358,5.5654.4529,13.6044.8598,14.1871,1.1518,1.6493,9.2274-3.4066,7.7384,10.7478Z" style="fill:#281e13; stroke-width:0px;"/><path d="m483.2335,723.5539c1.6613-.334,1.496,1.6989,1.2897,3.0094-.6436,4.09-10.7026,11.9221-1.2897-3.0094Z" style="fill:#acb6a5; stroke-width:0px;"/><path d="m428.6347,633.2725q.4299-1.2897.8598-2.5795c.4871,2.1313.9255,2.0543.8598,2.1496-.5075.7364-1.085.3366-1.7196.4299Z" style="fill:#281e13; stroke-width:0px;"/><path d="m428.6347,690.8807c-2.19,5.7258-6.5647,12.5364-7.7384,15.4768-1.6174,1.0141-2.784,1.6138-2.5795-.8598,1.4518-3.0307,3.0035-6.3629,4.2991-9.4581.0342-.0818,1.7048.2661,1.7196-.4299q-.6449-1.0748-1.2897-2.1496c-3.0946.5774-9.6097.4675-9.0281-3.4393,1.6133-.139,1.3339-2.1031,2.5795-2.5795,5.9812-2.2877,9.0011-2.2453,12.0375,3.4393Z" style="fill:#171b07; stroke-width:0px;"/><path d="m422.186,687.4414c4.9907-2.2561,4.2541,5.2846,0,4.2991-1.997-.4626-.7454-3.9621,0-4.2991Z" style="fill:#0e85b4; stroke-width:0px;"/></svg>