<svg width="113" height="48" viewBox="0 0 113 48" fill="none" xmlns="http://www.w3.org/2000/svg">
<path d="M48.2375 25.6482C48.2375 30.9714 44.0732 34.894 38.9625 34.894C33.8519 34.894 29.6875 30.9714 29.6875 25.6482C29.6875 20.2874 33.8519 16.4023 38.9625 16.4023C44.0732 16.4023 48.2375 20.2874 48.2375 25.6482ZM44.1774 25.6482C44.1774 22.3217 41.7638 20.0457 38.9625 20.0457C36.1613 20.0457 33.7477 22.3217 33.7477 25.6482C33.7477 28.9413 36.1613 31.2507 38.9625 31.2507C41.7638 31.2507 44.1774 28.9372 44.1774 25.6482Z" fill="#EA4335"/>
<path d="M68.2473 25.6521C68.2473 30.9753 64.0829 34.8979 58.9723 34.8979C53.8616 34.8979 49.6973 30.9753 49.6973 25.6521C49.6973 20.2955 53.8616 16.4062 58.9723 16.4062C64.0829 16.4062 68.2473 20.2913 68.2473 25.6521ZM64.1871 25.6521C64.1871 22.3256 61.7736 20.0496 58.9723 20.0496C56.171 20.0496 53.7574 22.3256 53.7574 25.6521C53.7574 28.9452 56.171 31.2546 58.9723 31.2546C61.7736 31.2546 64.1871 28.9411 64.1871 25.6521Z" fill="#FBBC05"/>
<path d="M87.4219 16.9648V33.564C87.4219 40.3921 83.3951 43.1808 78.6346 43.1808C74.1534 43.1808 71.4564 40.1837 70.4393 37.7325L73.9742 36.261C74.6037 37.7659 76.146 39.5417 78.6305 39.5417C81.6777 39.5417 83.566 37.6617 83.566 34.1226V32.7928H83.4243C82.5156 33.9142 80.7648 34.8938 78.5554 34.8938C73.9325 34.8938 69.6973 30.8669 69.6973 25.6854C69.6973 20.4664 73.9325 16.4062 78.5554 16.4062C80.7606 16.4062 82.5114 17.3859 83.4243 18.4738H83.566V16.969H87.4219V16.9648ZM83.8537 25.6854C83.8537 22.4298 81.6818 20.0496 78.9181 20.0496C76.1168 20.0496 73.7699 22.4298 73.7699 25.6854C73.7699 28.9077 76.1168 31.2546 78.9181 31.2546C81.6818 31.2546 83.8537 28.9077 83.8537 25.6854Z" fill="#4285F4"/>
<path d="M93.7795 7.23438V34.3299H89.8193V7.23438H93.7795Z" fill="#34A853"/>
<path d="M109.211 28.6915L112.363 30.7924C111.346 32.2973 108.895 34.8901 104.659 34.8901C99.407 34.8901 95.4844 30.8299 95.4844 25.6443C95.4844 20.146 99.4403 16.3984 104.205 16.3984C109.003 16.3984 111.35 20.2168 112.117 22.2803L112.538 23.3307L100.178 28.4497C101.124 30.3047 102.596 31.251 104.659 31.251C106.727 31.251 108.161 30.2338 109.211 28.6915ZM99.5112 25.365L107.773 21.9343C107.319 20.7796 105.952 19.9751 104.343 19.9751C102.279 19.9751 99.407 21.7967 99.5112 25.365Z" fill="#EA4335"/>
<path d="M14.6975 23.2457V19.3231H27.9159C28.0451 20.0068 28.1118 20.8155 28.1118 21.6909C28.1118 24.6338 27.3073 28.273 24.7145 30.8658C22.1925 33.492 18.9702 34.8926 14.7016 34.8926C6.78972 34.8926 0.136719 28.4481 0.136719 20.5362C0.136719 12.6243 6.78972 6.17969 14.7016 6.17969C19.0786 6.17969 22.1967 7.89713 24.5394 10.1356L21.7715 12.9036C20.0916 11.3278 17.8155 10.1023 14.6975 10.1023C8.91985 10.1023 4.40114 14.7586 4.40114 20.5362C4.40114 26.3138 8.91985 30.97 14.6975 30.97C18.445 30.97 20.5793 29.4652 21.9466 28.0979C23.0554 26.9891 23.7849 25.405 24.0725 23.2416L14.6975 23.2457Z" fill="#4285F4"/>
</svg>
