<svg width="113" height="48" viewBox="0 0 113 48" fill="none" xmlns="http://www.w3.org/2000/svg">
<path d="M29.377 33.987V12.0316H32.7881V20.6873C33.8623 19.0874 35.4735 18.2871 37.6214 18.2865C39.4536 18.2865 40.8699 18.8288 41.8704 19.9133C42.8709 20.9979 43.3713 22.509 43.3714 24.4466V33.987H39.9601V24.9205C39.9601 22.4146 38.8439 21.1615 36.6114 21.1611C35.4949 21.1611 34.5788 21.4981 33.8631 22.172C33.1476 22.846 32.7893 23.7937 32.7887 25.0152V33.9867L29.377 33.987Z" fill="#323232"/>
<path d="M59.4928 32.092C57.9764 33.6084 56.0707 34.3665 53.7751 34.3665C51.4796 34.3665 49.5684 33.6084 48.0413 32.092C46.5143 30.5756 45.7509 28.6483 45.751 26.3101C45.7511 23.972 46.5145 22.0503 48.0413 20.5452C49.5681 19.0397 51.4793 18.2868 53.7751 18.2865C56.0708 18.2861 57.9767 19.0391 59.4928 20.5452C61.0094 22.0512 61.7676 23.9729 61.7675 26.3101C61.7673 28.6473 61.0091 30.5746 59.4928 32.092ZM50.5371 30.1648C51.3473 31.1124 52.4267 31.5864 53.7751 31.5864C55.1236 31.5864 56.2028 31.1124 57.013 30.1648C57.8235 29.2171 58.2289 27.9322 58.2292 26.3101C58.2292 24.7097 57.8186 23.4356 56.9973 22.4877C56.176 21.5399 55.1019 21.066 53.7751 21.0661C52.427 21.0661 51.3476 21.5347 50.5371 22.4718C49.7264 23.409 49.321 24.6882 49.3208 26.3094C49.3208 27.9322 49.7262 29.2173 50.5371 30.1648Z" fill="#323232"/>
<path d="M69.6636 34.366C66.5253 34.366 64.9561 32.6811 64.9561 29.3114V21.5403H62.5874V18.6657H65.0515L65.8414 14.1491H68.3998V18.6657H74.4966V21.5403H68.4V29.2168C68.4 30.628 68.916 31.3336 69.9479 31.3335C70.9164 31.3335 71.7903 30.4488 72.5698 28.6797L75.2236 30.0382C73.9175 32.9237 72.0641 34.3663 69.6636 34.366Z" fill="#323232"/>
<path d="M76.3203 41C74.8039 41 73.5508 40.5788 72.561 39.7364L73.8247 37.0512C74.4356 37.7669 75.099 38.125 75.8149 38.1258C76.7625 38.1258 77.2363 37.5151 77.2363 36.2936V18.6656H80.6475V36.3559C80.6475 37.9986 80.2422 39.1833 79.4312 39.9097C78.6205 40.6363 77.5835 40.9997 76.3203 41ZM78.9422 16.075C78.3814 16.0941 77.836 15.8896 77.4259 15.5065C77.2286 15.3206 77.0732 15.0949 76.9697 14.8444C76.8663 14.5939 76.8173 14.3243 76.8258 14.0534C76.8182 13.7803 76.8678 13.5086 76.9711 13.2556C77.0744 13.0027 77.2293 12.7741 77.4259 12.5844C77.8383 12.2084 78.3762 12 78.9344 12C79.4924 12 80.0304 12.2084 80.4429 12.5844C80.6436 12.7717 80.8023 12.9995 80.9085 13.2528C81.0146 13.506 81.066 13.7789 81.0589 14.0534C81.0638 14.3229 81.0115 14.5904 80.9053 14.8382C80.7991 15.086 80.6415 15.3084 80.4429 15.4907C80.2435 15.6821 80.0083 15.8322 79.7508 15.9325C79.4933 16.0328 79.2186 16.0812 78.9422 16.075Z" fill="#323232"/>
<path d="M89.1205 34.3661C87.3722 34.3661 85.9557 33.9291 84.8715 33.0552C83.7871 32.1812 83.245 31.0074 83.2447 29.5336C83.2447 28.1859 83.808 27.0431 84.9348 26.1054C86.0615 25.1677 87.4778 24.6991 89.1836 24.6997C90.9317 24.6997 92.4059 25.2578 93.6063 26.3741V24.51C93.6063 23.4152 93.3272 22.5676 92.7691 21.967C92.2108 21.3664 91.4158 21.0662 90.3842 21.0666C88.2992 21.0666 87.004 22.1301 86.4984 24.2571L83.3709 23.5938C83.7916 21.9512 84.6236 20.656 85.8667 19.7082C87.1098 18.7605 88.6577 18.2866 90.5103 18.2866C92.5323 18.2866 94.1277 18.8184 95.2964 19.8821C96.4651 20.9457 97.0495 22.4988 97.0497 24.5414V33.9871H93.7326V32.0598C92.6161 33.5975 91.0787 34.3664 89.1205 34.3661ZM89.7515 31.8389C91.2681 31.8389 92.5529 31.0808 93.6062 29.5646V29.0902C92.5528 27.8266 91.2679 27.1948 89.7515 27.1949C88.8671 27.1949 88.1508 27.411 87.6025 27.8431C87.3433 28.034 87.1335 28.2841 86.9907 28.5727C86.8477 28.8611 86.776 29.1796 86.781 29.5014C86.7727 29.8267 86.8414 30.1493 86.9814 30.443C87.1214 30.7367 87.3289 30.9932 87.5868 31.1915C88.1249 31.6232 88.8461 31.839 89.7515 31.8389Z" fill="#323232"/>
<path d="M100.369 33.987V18.6656H103.686V21.3192C104.528 19.3817 105.981 18.4129 108.046 18.4128C109.267 18.4128 110.278 18.813 111.078 19.6132C111.879 20.4135 112.279 21.4876 112.278 22.8354C112.27 23.6421 112.131 24.4422 111.868 25.2047L108.74 24.8888C108.805 24.4701 108.847 24.0484 108.866 23.6253C108.866 22.0458 108.214 21.256 106.908 21.2559C106.023 21.2559 105.281 21.7245 104.681 22.6616C104.081 23.5988 103.781 24.8361 103.78 26.3737V33.987H100.369Z" fill="#323232"/>
<path d="M8.07188 21.0095C10.6142 19.5971 14.0962 17.6623 14.0962 12.0312H9.87997C9.87997 15.1818 8.34614 16.0339 6.02431 17.3239C3.48197 18.7368 0 20.6708 0 26.3023H4.21623C4.21623 23.1515 5.75006 22.2994 8.07188 21.0095Z" fill="#FF3C00"/>
<path d="M15.3692 19.7155C15.3692 22.8662 13.8354 23.7183 11.5136 25.008C8.9719 26.4205 5.48926 28.355 5.48926 33.9864H9.70531C9.70531 30.8357 11.2391 29.9836 13.561 28.6937C16.1033 27.2813 19.5851 25.347 19.5851 19.7155H15.3692Z" fill="#FF3C00"/>
</svg>
