<?xml version="1.0" encoding="UTF-8"?><svg xmlns="http://www.w3.org/2000/svg" viewBox="0 0 1000 1000"><g id="AIrtwork"><path d="m826.1303,533.8866c-11.3771-2.6982-9.7307,8.4312-22.2564,26.7077-.3672.5358-1.3999-.9189-8.9026,9.459-2.9068,4.0208-6.8368,17.4813-13.3538,17.2487-6.3567-4.229-21.6897-18.0347-30.0461-10.0154-9.4378,9.0571,14.9592,13.3206,15.5795,19.4743.7667,7.6063-9.923,2.7016-10.5718,2.782-.2455.0304-2.9646,2.2538-3.8949,2.2256-14.7214-.4458-14.3644-4.1322-21.1436-4.4513q-1.391-.5564-2.782-1.1128c1.1341,6.6601-11.4115,3.0933-9.459,11.6846,1.3289,5.847,15.3172,9.1009,15.5795,10.0154.1.3487-3.5489,6.0114-3.8949,6.1205-.3799.1198-6.8361-3.309-7.2333-3.3385-3.1539-10.8168-7.8012-10.8571-16.6923-11.1282-4.4499-.1357-6.8743,2.1244-7.7897.5564,6.8538-16.7631,40.7724-76.3677,52.8589-84.0179,12.9102-8.1715,67.9461-12.7882,74.0025,7.7897Z" style="fill:#fdfaf2; stroke-width:0px;"/><path d="m791.6329,474.9071c-.0812.1835-.4601-1.8539-2.2256,3.3385-.4952,1.4565-2.5463,3.3543-3.3385,5.0077,21.4968,14.4078,1.6757,2.4431.5564,2.782-2.1172.6412-1.2366,5.5846-3.8949,8.9026-17.4317-10.0825-26.5702-5.3754-26.1513-11.1282-40.5721,11.6959-.4794-18.3998,12.7974-23.3692,43.6691-16.3449,23.9913,5.8316,21.1436,12.7974-.0691.1692,1.442.9256,1.1128,1.6692Z" style="fill:#014548; stroke-width:0px;"/><path d="m842.8226,490.4866c18.5647,27.2955-5.7933,6.6198,7.7897,40.6179-.8655,4.8509-16.0678-10.7957-16.6923-11.6846-7.2604-10.3334-6.6051-26.1145,2.2256-35.6102.3806.4252,2.3677.3412,6.6769,6.6769Z" style="fill:#01312d; stroke-width:0px;"/><path d="m835.5893,487.1481c1.2709-.1498,11.3196,13.6916,7.7897,14.4667-18.3963-.9733-9.4821-14.2672-7.7897-14.4667Z" style="fill:#014548; stroke-width:0px;"/><path d="m836.1457,483.8097c-8.8307,9.4957-9.486,25.2768-2.2256,35.6102-1.2248,3.9512-3.8783,7.4782-5.5641,11.1282-1.439-30.4744-71.7965-22.0418-89.0256-8.9026.4152-.8722-.2796-4.2573,0-6.1205,6.079-10.0625,39.877-16.19,43.4-20.5872,2.6583-3.3179,1.7776-8.2613,3.8949-8.9026,1.1193-.339,20.9404,11.6258-.5564-2.782.7922-1.6534,2.8432-3.5512,3.3385-5.0077,16.1389-1.8977,18.7535,10.2655,26.1513,21.1436,2.8094.344,9.1967-18.9602,18.9179-21.1436,1.4442.8507,1.4755,5.3477,1.6692,5.5641Z" style="fill:#fdfaf2; stroke-width:0px;"/><path d="m840.597,442.6354c6.2196-17.8395,29.9654-31.9328,17.8051-64.5435.273.3613,4.7395,1.7508,6.6769,6.1205,8.249,18.6056-3.8739,51.9791-24.482,58.423Z" style="fill:#fdfaf2; stroke-width:0px;"/><path d="m858.4021,378.0918c12.1603,32.6108-11.5855,46.704-17.8051,64.5435-5.5526,15.9265-5.7832,32.2891,2.2256,47.8512-4.3092-6.3357-6.2963-6.2517-6.6769-6.6769-.1937-.2164-.225-4.7134-1.6692-5.5641-9.7213,2.1834-16.1086,21.4876-18.9179,21.1436-7.3978-10.8781-10.0123-23.0413-26.1513-21.1436,1.7655-5.1924,2.1445-3.155,2.2256-3.3385,9.1117,2.3905,10.3727-14.9861,21.7-8.9026,10.5736,5.6788-5.1543,31.6171,2.782,27.2641,2.8619-1.5697,20.5186-28.7576,13.3538-47.8512,4.016,2.2154,23.9271-34.5196,24.482-36.723,5.8917-23.3949-9.396-40.6818-27.2641-53.9717-39.3067-29.2356-52.6205-6.2044-55.641-5.5641-3.4789.7375-42.7846-12.9977-54.5282,31.1589-2.6789-.1634,2.6482-21.3253,15.0231-30.0461,8.1057-5.7123,26.3084-11.2129,36.1666-7.7897,29.2762-23.1507,72.5124,11.5511,90.6948,35.6102Z" style="fill:#060503; stroke-width:0px;"/><path d="m806.656,469.343c10.135-2.7535,7.6443,11.5954,3.3385,12.241-3.4749.5211-11.6657-9.9787-3.3385-12.241Z" style="fill:#fdfaf2; stroke-width:0px;"/><path d="m791.6329,474.9071c.3291-.7436-1.182-1.5001-1.1128-1.6692,2.8477-6.9659,22.5256-29.1423-21.1436-12.7974.7765-4.0894-4.8855-1.37-9.459-2.2256-10.2583-1.9191-44.8889-17.9095-49.5205-26.1513-1.8048-3.2116-4.8249-21.0848,0-12.7974,11.862,20.3744,7.6154,9.7943,25.0384,18.9179,4.2493,2.2252,13.8513,14.8739,35.6102,12.241,18.2956-2.2139,15.4711-22.0531,33.941.5564-12.2033-32.8238-20.3323,3.9602-52.8589-7.2333-5.7886-1.9921-11.5655-9.0618-15.5795-11.1282-8.5489-4.4009-21.1681-3.6912-25.0384-14.4667-2.6126-13.6452-7.8888-24.1282-5.5641-39.5051,1.3642-9.0232,15.8511-35.7441,25.5948-28.3769-12.3748,8.7208-17.702,29.8828-15.0231,30.0461,11.7436-44.1566,51.0492-30.4214,54.5282-31.1589,3.0205-.6403,16.3343-23.6715,55.641,5.5641,17.8681,13.29,33.1558,30.5768,27.2641,53.9717-.5549,2.2035-20.466,38.9385-24.482,36.723,7.1648,19.0936-10.492,46.2815-13.3538,47.8512-7.9363,4.353,7.7916-21.5853-2.782-27.2641-11.3273-6.0836-12.5883,11.2931-21.7,8.9026Z" style="fill:#fdfaf2; stroke-width:0px;"/><path d="m710.3971,419.2662l1.1128-1.1128c3.8703,10.7754,16.4895,10.0657,25.0384,14.4667,4.0139,2.0664,9.7909,9.1361,15.5795,11.1282,32.5267,11.1936,40.6556-25.5905,52.8589,7.2333-18.4699-22.6095-15.6454-2.7703-33.941-.5564-21.7589,2.6329-31.3609-10.0159-35.6102-12.241-17.4231-9.1236-13.1764,1.4565-25.0384-18.9179Z" style="fill:#060503; stroke-width:0px;"/><path d="m804.4303,359.1739c5.6726,1.2029-1.6851,5.3709,6.1205,12.7974-7.3333,12.865,19.5499,26.1892,21.1436,38.9487,1.8174,14.5507-15.3777,21.2535-15.5795,28.9333-.1054,4.012,15.39,15.733-8.3461,18.3615-4.5405-8.3082,1.1243-.7966,4.4513-1.1128,12.5806-1.1956,1.9739-10.8727,1.6692-11.6846-6.1096-16.2804,13.4557-21.1319,12.241-33.3846-.6049-6.1021-18.699-22.0107-22.2564-28.9333-1.3722-2.6703-.8873-8.4799-1.1128-8.9026-.7298-1.3677-16.7932,10.9898,1.6692-15.0231Z" style="fill:#060503; stroke-width:0px;"/><path d="m803.3175,414.8149c6.5426-1.2974,1.3953,13.4505-4.4513,11.1282-4.1067-1.6312,3.7787-10.9948,4.4513-11.1282Z" style="fill:#060503; stroke-width:0px;"/><path d="m794.415,412.5892c7.5128-.1498-.622,12.2188-4.4513,11.1282-4.8303-1.3757,3.7658-11.1145,4.4513-11.1282Z" style="fill:#060503; stroke-width:0px;"/><path d="m753.2406,363.6252c18.403-4.2744,14.9424,27.8787,13.9102,38.3923-.2539,2.5862-4.3569,10.9263-4.4513,12.241-.5378,7.4862,8.0143,16.8265-.5564,18.3615-11.1581,1.9984-7.7596-23.2696-9.459-27.2641-.2277-.5353-5.9-2.1846-6.6769-4.4513-2.404-7.0135,6.2685-18.0617-3.3385-12.241.8413-6.1603,2.8992-23.2564,10.5718-25.0384Z" style="fill:#060503; stroke-width:0px;"/><path d="m754.9099,379.2047c-1.7638-.5238-3.8234-1.5115-5.5641-2.2256,3.3505-9.7636,12.7372-9.8048,14.4667.5564,3.2794,19.6472-17.9604,32.666-12.241,20.0308,2.6575-5.8709,17.8509-14.0516,3.3385-18.3615Z" style="fill:#ebe17f; stroke-width:0px;"/><path d="m754.9099,379.2047c.427,8.3559-9.7876,10.0817-5.5641-2.2256,1.7407.7142,3.8003,1.7018,5.5641,2.2256Z" style="fill:#f6eab9; stroke-width:0px;"/><path d="m350.9564,470.4559c3.6061,5.7485,6.4907,15.6078,8.9026,22.2564,9.633,26.5544,17.441,66.7908,18.9179,70.1076.5966,2.4388-2.3645,2.8242-2.2256,5.0077.7892,12.4082,16.3505-.0311,8.9026,27.2641q-13.0756-8.3461-26.1513-16.6923c-37.2657,5.0591-74.8707,5.9896-112.3948,5.5641-2.6204,1.7682,4.6192,11.8509,6.1205,14.4667-4.6479-1.2328-8.7268-7.7908-8.9026-2.2256-2.7051-6.9163-4.5969-23.5575-4.4513-31.1589.493-25.7314,25.7371-43.4042,41.1743-62.3179,11.21.8925,46.966.844,56.1974-3.3385,15.4843-7.0155,4.2396-33.5027,10.0154-34.4974,2.2126,1.4571,2.6573,3.5913,3.8949,5.5641Z" style="fill:#c3b827; stroke-width:0px;"/><path d="m260.818,610.6711c.1963.2973,3.6448,3.1949,4.4513,5.5641v1.1128c-3.493-.7568-9.2557.6067-12.7974-2.2256-2.6555,1.3632,4.6058,11.1428,13.9102,12.241q21.9782,19.4743,43.9564,38.9487c13.5766,1.738,49.4295-3.968,56.7538-2.2256.8269.1967.5668,1.4757.5564,2.2256-18.252,1.1513-36.3348,2.5003-54.5282,4.4513-9.4502,1.0134-42.494,1.9482-47.8512,7.7897-14.7509-6.6745-19.4713-61.3717-20.0308-79.0102,3.5485,5.6506,9.6297,7.8189,15.5795,11.1282Z" style="fill:#c3b827; stroke-width:0px;"/><path d="m570.1818,424.8303q-.5564,1.6692-1.1128,3.3385c-11.4951-13.0886-29.4278-3.3606-10.5718-4.4513,5.6787,2.185,14.2401,12.3244,15.0231,17.2487.3039,1.9114-2.0941,2.3121-2.2256,3.8949-11.0855-1.1618-9.859,16.8924-16.6923-7.2333,6.9006-10.8957-2.8584-5.9624-3.3385-4.4513-.159.5004,4.3517,10.6864-2.2256,5.0077.1622-4.142-8.1047-8.531-6.6769-18.9179,12.6567-4.0948-4.8765,2.6621,0-17.8051,11.5384,5.3558,19.0461,14.8131,27.8205,23.3692Z" style="fill:#ac3e1f; stroke-width:0px;"/><path d="m591.3254,443.7482c.4119,3.4305,3.3329,11.077,3.3385,11.6846.0239,2.6196-2.1758,1.5044-2.2256,1.6692-15.5603-2.9019-11.401-9.7756-18.9179-1.1128-.6538-.3085-3.2415-2.05-3.3385-2.2256,5.7971-8.3578,5.8421-17.6758-1.1128-25.5948q.5564-1.6692,1.1128-3.3385c6.2944,6.1378,14.1766,15.543,21.1436,18.9179Z" style="fill:#ec581e; stroke-width:0px;"/><path d="m598.0023,734.1941c.7613.9455,2.1475,1.1788,3.3385,5.0077.237,2.7312-.3388,5.642,0,8.3461-5.6181,7.7865-7.3025,18.6645-12.241,26.7077-.5035.82-10.7379,13.0394-12.241,14.4667-4.2816,4.0656-34.0182,23.2295-36.1666,23.3692-5.5329.3598-4.7582-2.5336-8.3461-8.9026-5.062-8.9857-13.7762-34.1248-18.9179-27.8205-.0306-.7665,1.7571-8.8617,3.3385-11.1282,3.1239-1.5006,10.3737-4.5727,13.3538-5.5641,4.106-1.366,3.1517-2.1523,3.3385-2.2256.3205-.1259.7844.1187,1.1128,0,3.6106.3933,3.1888,6.2865,8.3461,7.7897,1.2153.3542,6.6962.0454,9.459,0,7.4847-.1231,13.4931-2.1718,20.0308-5.5641,20.8349-10.8109,10.9552-23.6463,11.1282-26.7077.5055-8.9443,12.3567-.3947,14.4667,2.2256Z" style="fill:#f6eab9; stroke-width:0px;"/><path d="m571.2947,444.861c-.4594,5.5261-2.4196,6.5369-1.1128,8.9026.097.1756,2.6846,1.9171,3.3385,2.2256-1.2296,1.417-1.0092,3.1963-1.1128,3.3385-5.2481-4.9905-8.4776-.3229-3.3385,3.3385.1433.1021,2.8352.9741,3.3385,1.1128-.0609.901.107,2.1352,0,2.2256-.1425.1205-3.177.0919-3.3385,1.6692-.3187,3.1134,18.5186,32.4878,22.8128,37.2795-2.338-7.764-7.6567-30.5024-10.5718-35.6102.9451.1157,1.043-.2653,1.1128-1.1128q7.2333,21.9782,14.4667,43.9564c4.9655,5.8879,22.4906,18.9447,24.482,21.7.9621,1.3312,3.2393,4.4098,3.3385,5.5641.5744,6.6874-7.6942,20.8271-3.3385-.5564-39.295-35.4456-30.6001-8.0801-2.2256,12.241-7.5225,6.3967,6.8945,39.9481,11.6846,52.8589-19.1648-16.7464-15.4576-34.9576-25.5948-53.4153,4.6823,19.9107,8.9157,41.1722,15.0231,61.2051-3.5994-4.0125-4.2252-8.6741-5.5641-15.0231l-2.2256,1.6692c-1.4788-6.3579-2.8367-15.8747-7.7897-20.0308-5.0037-25.3693-10.7632-65.2299-30.0461-83.4615-.4598-1.678-.2581-5.5892-2.2256-6.6769-5.0086-16.8526-21.0308-28.3746-25.5948-45.6256-.9633-3.9064,2.168-2.9808,2.2256-4.4513,6.5773,5.6787,2.0666-4.5072,2.2256-5.0077.4801-1.5111,10.2391-6.4445,3.3385,4.4513,6.8333,24.1257,5.6068,6.0716,16.6923,7.2333Z" style="fill:#1d0d07; stroke-width:0px;"/><path d="m624.71,539.4507h6.6769c5.1843,17.9471,7.1145,24.1224,10.0154,43.4,1.5342,10.1956,3.3419,20.3433,4.4513,30.6025-6.6217,7.4219-19.1398,5.5265-25.5948-1.6692-6.1074-20.0329-10.3408-41.2944-15.0231-61.2051,10.1372,18.4578,6.43,36.6689,25.5948,53.4153-4.7901-12.9108-19.2071-46.4623-11.6846-52.8589-28.3745-20.3211-37.0694-47.6866,2.2256-12.241-4.3557,21.3835,3.9129,7.2438,3.3385.5564Z" style="fill:#ec581e; stroke-width:0px;"/><path d="m650.3048,867.7324c.5667,18.3983,19.4222,90.4498-4.4513,71.2204-6.3036-5.0774-4.1791-27.8898-5.5641-36.1666-2.3994-14.3392-6.6595-28.4054-8.9026-42.8435-.0563-.3622.056-.7506,0-1.1128,2.4749-1.8852,15.2531,6.0971,18.9179,8.9026Z" style="fill:#01312d; stroke-width:0px;"/><path d="m661.433,871.0709c-.208,2.1275.9364,2.6109,2.2256,3.8949-1.3857,1.5536-5.299,5.416-7.2333,5.0077-7.137-1.5066,3.6723-4.7446-6.1205-12.241-3.6648-2.8055-16.443-10.7878-18.9179-8.9026-2.7578-17.8221-4.1768-35.6325-6.6769-53.4153,5.7857-1.7387,14.8339-.3148,17.8051-5.5641,10.5458,2.8045,5.8075,54.1417,8.9026,63.9871.3404,1.0827,7.7617,7.0124,10.0154,7.2333Z" style="fill:#051613; stroke-width:0px;"/><path d="m661.433,871.0709c-2.2537-.2209-9.675-6.1507-10.0154-7.2333-3.0951-9.8454,1.6432-61.1827-8.9026-63.9871.1885-.3329-.5286-2.2932,1.1128-4.4513.4708.3508,3.7778-.6078,7.7897,6.1205,9.1369,15.323,11.7738,51.5712,10.0154,69.5512Z" style="fill:#015661; stroke-width:0px;"/><path d="m629.1613,749.7735c1.3782,19.3494,6.4832,42.0059.5564,38.9487-2.0251-1.0447-10.6993-38.7372-13.9102-43.4-.4984-3.1899-2.2512-6.6523-2.2256-10.0154,6.3082.3812,9.9281-2.4803,14.4667-6.6769-.7799,7.1404.6109,14.0966,1.1128,21.1436Z" style="fill:#016673; stroke-width:0px;"/><path d="m628.0485,521.6456c-.3915,2.2659-.9918,2.6339-1.1128,3.3385-1.3365,7.7789-4.7969,18.7179,3.3385,10.0154.4532,1.5254.7021,3.0293,1.1128,4.4513h-6.6769c-.0992-1.1543-2.3764-4.2329-3.3385-5.5641,4.1853-.2429,4.4268-9.4935,4.4513-13.3538.0889.087,1.6379.9408,2.2256,1.1128Z" style="fill:#6d6e5a; stroke-width:0px;"/><path d="m640.2895,491.5994c.3264,1.0725.7749,2.0897,1.1128,3.3385-.0147,18.5267,4.281,37.874,5.5641,56.7538-2.5396,10.65-4.166,2.7739-5.5641,7.2333-.8538,2.7234,10.5136,47.0896,10.0154,56.1974-6.7031-6.7162-3.0031-36.2602-10.0154-32.2718-2.9008-19.2776-4.8311-25.4528-10.0154-43.4-.4107-1.4219-.6596-2.9259-1.1128-4.4513-.9343-3.1445-1.7039-7.2856-3.3385-10.0154.121-.7045.7213-1.0725,1.1128-3.3385,3.9431-22.8237,3.0453-34.8294,12.241-30.0461Z" style="fill:#051613; stroke-width:0px;"/><path d="m631.3869,468.2302c4.0419,5.7317,6.8218,16.5328,8.9026,23.3692-9.1957-4.7833-8.2979,7.2224-12.241,30.0461-.5877-.172-2.1367-1.0258-2.2256-1.1128-8.3-8.1195-14.9151-26.5109-21.1436-36.723,1.0031-5.3033,13.4663-6.8421,18.9179-10.0154,5.3138-3.093,2.7351-6.2373,7.7897-5.5641Z" style="fill:#016673; stroke-width:0px;"/><path d="m594.6639,441.5226c5.8601,2.2299,33.3232,21.8864,36.723,26.7077-5.0546-.6732-2.4759,2.4711-7.7897,5.5641-6.0537-1.5649-20.9917-2.7938-24.482-8.3461-.3157-9.3834-10.0234-24.2807-4.4513-23.9256Z" style="fill:#016673; stroke-width:0px;"/><path d="m594.6639,441.5226c-5.5721-.3551,4.1356,14.5422,4.4513,23.9256,3.4903,5.5524,18.4283,6.7812,24.482,8.3461-5.4516,3.1733-17.9148,4.7121-18.9179,10.0154-1.8182-2.9812-12.6592-21.8602-13.9102-22.2564-5.0224-1.5906-7.9622,2.0155-8.3461,6.6769-.0698.8475-.1677,1.2285-1.1128,1.1128-2.3512-4.1197-3.967-6.0114-8.9026-3.3385.107-.0904-.0609-1.3247,0-2.2256.4921.1356,2.5472-2.9982,7.2333,1.1128,3.0434-3.8039,8.5334-6.2223,13.3538-4.4513,1.3121-.6369-1.1784-1.2819-.5564-3.3385.0499-.1648,2.2495.9504,2.2256-1.6692-.0056-.6076-2.9265-8.2541-3.3385-11.6846-.1671-1.3913-2.6849-1.9924.5564-4.4513,2.6319,1.4121,2.6156,2.1623,2.782,2.2256Z" style="fill:#06231b; stroke-width:0px;"/><path d="m646.9664,551.6917c-1.2831-18.8798-5.5788-38.2271-5.5641-56.7538.0786.2905,2.432.6997,3.3385,5.0077,1.3914,6.6124,3.4997,46.4032,2.2256,51.7461Z" style="fill:#9bbdc0; stroke-width:0px;"/><path d="m630.2741,534.9994c-8.1353,8.7025-4.6749-2.2365-3.3385-10.0154,1.6346,2.7297,2.4042,6.8709,3.3385,10.0154Z" style="fill:#057e7f; stroke-width:0px;"/><path d="m604.6793,483.8097c6.2284,10.2122,12.8435,28.6035,21.1436,36.723-.0245,3.8603-.266,13.1109-4.4513,13.3538-1.9914-2.7553-19.5165-15.812-24.482-21.7q-7.2333-21.9782-14.4667-43.9564c.384-4.6614,3.3237-8.2675,8.3461-6.6769,1.251.3962,12.092,19.2752,13.9102,22.2564Z" style="fill:#ec581e; stroke-width:0px;"/><path d="m569.069,428.1687c6.9549,7.919,6.91,17.2371,1.1128,25.5948-1.3067-2.3657.6535-3.3765,1.1128-8.9026.1316-1.5828,2.5295-1.9835,2.2256-3.8949-.783-4.9243-9.3444-15.0637-15.0231-17.2487-18.8561,1.0907-.9233-8.6374,10.5718,4.4513Z" style="fill:#2b0300; stroke-width:0px;"/><path d="m592.4382,457.102c-.622,2.0565,1.8685,2.7015.5564,3.3385-4.8204-1.771-10.3104.6474-13.3538,4.4513-4.6861-4.1111-6.7412-.9772-7.2333-1.1128-.5033-.1387-3.1951-1.0107-3.3385-1.1128.906-1.3161,1.7718-1.19,3.3385-3.3385.1036-.1422-.1168-1.9214,1.1128-3.3385,7.5169-8.6628,3.3577-1.789,18.9179,1.1128Z" style="fill:#1d0d07; stroke-width:0px;"/><path d="m581.31,469.343c2.9151,5.1078,8.2337,27.8462,10.5718,35.6102-4.2942-4.7917-23.1315-34.1661-22.8128-37.2795.1614-1.5773,3.196-1.5487,3.3385-1.6692,4.9356-2.6729,6.5514-.7812,8.9026,3.3385Z" style="fill:#ce5121; stroke-width:0px;"/><path d="m353.182,138.8357c3.3925,8.5814,6.3226,25.9016,4.4513,35.0538-3.1856,5.4154-62.1649,8.2466-70.664,7.2333-1.881-.2243-9.922-1.3031-10.5718-2.782-.7213-12.418-2.1731-26.0175-1.1128-38.3923.2912-3.3985-1.1072-6.9852,1.6692-8.9026,17.0761-.9653,34.1665.8078,51.1897,1.1128,16.2533.2913,18.7942-9.118,25.0384,6.6769Z" style="fill:#060503; stroke-width:0px;"/><path d="m343.7231,135.4972c8.4547,1.4813-5.7279,28.125-27.8205,24.482-2.0174-.3327-17.6853-9.1332-20.0308-11.1282-23.7025-20.1603,6.5953-8.6267,36.723-10.0154,1.6601-.0765,10.556-3.4387,11.1282-3.3385Z" style="fill:#fdfaf2; stroke-width:0px;"/><path d="m284.7437,144.3998c17.0366,21.8432,46.588,31.9622,63.4307,4.4513q1.391,9.7372,2.782,19.4743c-2.0274,4.5715-58.3438,6.9615-66.2128,6.1205v-30.0461Z" style="fill:#fdfaf2; stroke-width:0px;"/><path d="m354.2949,457.102c-3.0476,5.6279,3.5778,8.5945-3.3385,13.3538-1.2376-1.9728-1.6823-4.107-3.8949-5.5641-5.7758.9947,5.4689,27.4819-10.0154,34.4974-9.2314,4.1824-44.9874,4.231-56.1974,3.3385-4.1808-.3328-23.6877-2.2377-25.5948-5.0077q-.5564-23.9256-1.1128-47.8512c22.2554-.1738,44.5311-1.1929,66.7692-1.6692,5.3332-.1142,22.621-1.5485,23.9256-1.1128,3.9368,1.3148,3.0362,11.3147,9.459,10.0154Z" style="fill:#060503; stroke-width:0px;"/><path d="m263.6001,454.8764c3.6184-.627,58.5357,3.0426,73.4461,0,3.9622,2.3886-20.1309,28.6943-38.9487,26.7077-7.0693-.7463-38.4904-21.3901-37.2795-25.0384.7996-.1039,2.5987-1.6375,2.782-1.6692Z" style="fill:#fdfaf2; stroke-width:0px;"/><path d="m335.3769,468.2302c-3.4368,13.7175-7.6488,19.1318-21.1436,23.3692-14.7248,4.6236-35.3547,4.1696-50.6333,1.1128-6.2661-42.3861,1.6761-19.0409,20.0308-11.1282,31.8071,13.712,41.8521-7.5146,51.7461-13.3538Z" style="fill:#fdfaf2; stroke-width:0px;"/><path d="m314.2334,491.5994c13.4948-4.2374,17.7067-9.6517,21.1436-23.3692.1198-.0707,1.0009-2.9443,2.2256-1.6692,1.2878,21.2252.3255,29.357-23.3692,25.0384Z" style="fill:#cbd339; stroke-width:0px;"/><path d="m425.5153,375.8662c-1.7356.8043-1.7024,1.4576-4.4513,2.2256-15.5524-15.7061-14.3567-.9631-25.5948-2.782,12.0983-23.8964,1.4709-34.5631,8.3461-36.1666,14.0221-3.2704,7.2406,21.0529,5.0077,28.3769.7739,1.8338,15.8205,4.1673,16.6923,8.3461Z" style="fill:#060503; stroke-width:0px;"/><path d="m407.1538,343.5944c.5647-.3277,2.9525,3.6223,1.1128,4.4513-2.0786.9366-2.3071-3.7581-1.1128-4.4513Z" style="fill:#cdc9cd; stroke-width:0px;"/><path d="m408.823,405.9123c-.059-.7337.0273-1.4871,0-2.2256v-1.1128c.0596.1559,2.9794,1.8619,0,3.3385Z" style="fill:#943d24; stroke-width:0px;"/><path d="m171.7925,285.7278c-.9418-12.4095,2.3065-24.5659,7.7897-35.6102,1.7195,6.0618-19.8603,33.5379,14.4667,70.664,16.6821,18.0424,43.0453,26.0868,66.7692,20.0308-19.3033,15.9077-39.786-2.2618-59.5358-3.8949-13.5971-11.3434-28.1703-33.8048-29.4897-51.1897Z" style="fill:#060503; stroke-width:0px;"/><path d="m196.2745,153.3023c-11.8115,8.8713-17.7063,26.2088-18.9179,40.6179-3.2584,38.7493,16.5966,39.9719,7.7897,50.0769-6.0661,6.9601-.7943-1.7879-1.1128-3.3385-.6041-2.9406-20.959-19.1859-12.241-56.1974,2.6186-11.1171,12.2159-30.2142,24.482-31.1589Z" style="fill:#060503; stroke-width:0px;"/><path d="m133.4002,477.1328c-2.4957,42.1983,65.7476,94.3081,103.4922,66.7692-.3584,15.3379-19.4848,16.4131-31.1589,15.5795-33.2236-2.3726-81.2906-45.1266-72.3333-82.3486Z" style="fill:#060503; stroke-width:0px;"/><path d="m365.9795,259.0202c11.369-2.6321,29.5507,5.0541,2.2256,3.3385-13.4401,1.7211-10.3701,25.2044-26.1513,42.8435-10.0263,11.2068-11.4971-2.3227-7.7897-11.1282-21.1974-16.0897-18.5071-35.3052,9.459-3.8949,13.5128-12.9637,12.6606-28.9373,22.2564-31.1589Z" style="fill:#060503; stroke-width:0px;"/><path d="m220.2001,190.0253c2.1323-.7653,44.7656-.1654,43.9564,5.0077-1.3065,8.3513-67.1046,3.3-43.9564-5.0077Z" style="fill:#060503; stroke-width:0px;"/><path d="m285.8565,410.3636c4.5203-.2499,31.0268-.0033,28.3769,6.1205-.8542,1.9741-40.8779,4.7684-42.8435,3.8949-5.6919-2.5293-3.3904-9.0281,14.4667-10.0154Z" style="fill:#060503; stroke-width:0px;"/><path d="m207.9591,234.5381c19.3124-5.2088,51.2163,14.2165,13.3538,8.9026-25.8001,5.7316-18.952-7.3927-13.3538-8.9026Z" style="fill:#060503; stroke-width:0px;"/><path d="m345.9487,241.215c1.6992-.5319,33.9078-.5216,35.6102,0,15.1794,4.6508-33.4796,10.4204-35.6102,10.0154-5.1003-.9695-4.4288-8.629,0-10.0154Z" style="fill:#060503; stroke-width:0px;"/><path d="m289.1949,348.0457c9.135-2.4059,5.2332,6.1487,10.0154,7.7897,4.9186,1.6879,25.7327-4.5237,26.1513-2.782-7.361,3.409-43.751,19.8901-42.2871,3.3385.0784-.8867,4.7863-7.9948,6.1205-8.3461Z" style="fill:#060503; stroke-width:0px;"/><path d="m169.0104,410.3636c24.3694,27.874-32.4044,33.596-34.4974,63.4307-5.0287-30.3928,48.6-32.6678,34.4974-63.4307Z" style="fill:#060503; stroke-width:0px;"/><path d="m143.4156,385.8816c.1267,13.3449,3.0188,31.6552,19.4743,32.8282-13.392,11.1612-27.582-12.7109-19.4743-32.8282Z" style="fill:#060503; stroke-width:0px;"/><path d="m440.5384,342.4816c5.1598.4327-.0384,18.7955-12.7974,12.7974,7.5913-4.6474,9.9415-13.0369,12.7974-12.7974Z" style="fill:#060503; stroke-width:0px;"/><path d="m422.7333,295.7432c13.6017-3.7432,40.2463,15.0142-2.782,1.6692.8811-.1183,2.3281-1.5443,2.782-1.6692Z" style="fill:#060503; stroke-width:0px;"/><path d="m407.1538,287.9535c2.2779-.3178,4.6257.1055,6.6769,1.1128,21.994,10.8009-28.8474,1.9799-6.6769-1.1128Z" style="fill:#060503; stroke-width:0px;"/><path d="m157.8822,348.0457l1.6692.5564c-18.2291,26.4885-19.47,23.4576-1.6692-.5564Z" style="fill:#c8c0b5; stroke-width:0px;"/><path d="m290.3077,277.9381c4.5613.2476,10.5642.4769,12.7974,5.0077.94,1.907,4.6257,38.986,4.4513,42.2871-.7615,14.4127-8.6771,1.9096-9.459,1.6692-3.4468-1.0596-59.3697,6.2609-71.7769-1.6692q-.8346-22.5346-1.6692-45.0692c19.2103,2.5443,49.4105-3.1076,65.6563-2.2256Z" style="fill:#060503; stroke-width:0px;"/><path d="m266.9385,285.7278c16.0825-.2078,39.3771-2.6364,24.482,11.1282-1.8304,1.6915-18.7976,13.1318-21.1436,13.3538-9.4671.8959-25.3266-16.8975-35.0538-21.7.836-1.3547,28.0098-2.7342,31.7154-2.782Z" style="fill:#fdfaf2; stroke-width:0px;"/><path d="m234.6668,295.7432c30.275,21.1654,28.7482,30.9637,62.3179,4.4513q.8346,9.1808,1.6692,18.3615c-21.082,3.8662-42.6753,3.2763-63.9871,1.6692v-24.482Z" style="fill:#fdfaf2; stroke-width:0px;"/><path d="m216.8617,449.3123c4.9647.4632-6.4563,5.5-7.2333,8.3461-6.4901,23.7737,35.9324,42.2885-32.2718,48.9641-2.2479,5.4062,15.0322,18.3844,30.0461,12.241-17.3349,13.9465-43.7096-8.4422-36.723-27.8205,2.2307-6.1871,9.6988-7.5719,13.3538-12.241,3.2148-4.1067,4.8563-18.2965,32.8282-29.4897Z" style="fill:#060503; stroke-width:0px;"/><path d="m200.1694,463.7789c7.971-1.0373-6.5824,9.0461-9.459,18.3615-.7314,2.3686.7398,9.1301,0,11.1282-5.6302,15.2058-6.9623-27.3528,9.459-29.4897Z" style="fill:#fdfaf2; stroke-width:0px;"/><path d="m296.9847,191.1382c.5273-.025,9.2779,2.8793,10.0154,3.3385,9.1214,5.6787,7.0328,16.1042,9.459,20.5872,11.2387,20.7661,47.6561,37.846-46.7384,31.1589-2.7616-14.5782,10.1953-54.276,27.2641-55.0846Z" style="fill:#060503; stroke-width:0px;"/><path d="m308.6693,217.8458q2.782,10.0154,5.5641,20.0308c-8.8024-.2965-2.004-2.2513-3.3385-3.8949-8.1306-10.0138-10.6111-.0241-11.1282.5564-10.1529-2.4942.997-14.6325-6.1205-18.9179-3.4024-2.0485-14.0804-2.5431-13.9102,3.3385-2.6061-.7586-3.2784-.2993-1.1128-5.0077,5.3418-11.6144,23.3458-2.1939,30.0461,3.8949Z" style="fill:#e7e0d4; stroke-width:0px;"/><path d="m299.7667,234.5381c-.6035.6775,3.2729,5.522-15.0231,4.4513-2.0099-1.127,4.3827-14.8876,2.782-18.3615-1.3466-2.9226-5.7398-1.0725-7.7897-1.6692-.1701-5.8815,10.5079-5.387,13.9102-3.3385,7.1175,4.2854-4.0324,16.4237,6.1205,18.9179Z" style="fill:#cebf86; stroke-width:0px;"/><path d="m279.1796,220.0715c7.4408-1.1223,1.1609,16.4329.5564,17.2487-7.1561,9.657-6.1415-16.4063-.5564-17.2487Z" style="fill:#e0af27; stroke-width:0px;"/><path d="m298.6539,197.8151q.5564-1.1128,1.1128-2.2256c15.8339.9825,17.8839,32.647-1.1128,2.2256Z" style="fill:#b0a60a; stroke-width:0px;"/><path d="m314.2334,237.8766q-2.782-10.0154-5.5641-20.0308c6.5268,5.931,12.9376,19.2107,10.5718,21.1436-1.6916,1.382-4.7514-1.1042-5.0077-1.1128Z" style="fill:#b0a60a; stroke-width:0px;"/><path d="m294.759,202.2664c9.8513-2.0474,11.9491,9.1529-3.8949,2.782-.0279-.3516,3.5101-2.7021,3.8949-2.782Z" style="fill:#fdfaf2; stroke-width:0px;"/><path d="m299.7667,195.5894q-.5564,1.1128-1.1128,2.2256c-7.8974-1.1267-6.6395-2.7067,1.1128-2.2256Z" style="fill:#fdfaf2; stroke-width:0px;"/><path d="m366.5359,341.3688c.5452,1.7751,3.8062,4.7891,4.4513,6.6769.8631,2.5259,3.1655,4.5136,2.2256,10.5718-.2586.9681-2.1738.4313-2.2256.5564,5.6651-3.6594-13.2002-26.3128-20.0308-25.5948-.1332-4.9723,2.4959-.8964,3.8949-2.2256,2.1535-2.0463,4.6445-8.2031,7.7897-11.1282,25.6661-23.87,17.1373-4.3617,17.2487-2.782,3.2173,45.6259,45.32-14.3915,40.0615,7.7897-1.1753,4.9577-36.5723,31.8474-45.0692-6.1205-7.0666,9.2814-23.4375,12.6592-8.3461,22.2564Z" style="fill:#060503; stroke-width:0px;"/><path d="m370.9872,359.1739c-3.0709-.3184-5.9269.6459-8.9026,1.1128-2.4577-8.6727-2.5621-16.0064-10.0154-22.2564-.5408-.4534,1.5708-.9385-2.2256-2.2256-.1062-1.0077,1.1413-1.1623,1.1128-2.2256,6.8306-.718,25.6958,21.9355,20.0308,25.5948Z" style="fill:#d0d3d3; stroke-width:0px;"/><path d="m370.9872,348.0457c-.645-1.8878-3.906-4.9018-4.4513-6.6769-2.5356-8.2554,5.7939-18.8058,18.9179-1.6692q-7.2333,4.1731-14.4667,8.3461Z" style="fill:#e7e0d4; stroke-width:0px;"/><path d="m362.0846,360.2867c-.2216.0348-3.672,2.251-3.8949,2.2256-5.4297-.618-11.351-20.2925-6.1205-24.482,7.4533,6.25,7.5576,13.5836,10.0154,22.2564Z" style="fill:#c3b827; stroke-width:0px;"/><path d="m349.8436,335.8047c3.7965,1.2871,1.6849,1.7722,2.2256,2.2256-5.2305,4.1896.6908,23.864,6.1205,24.482.2228.0254,3.6733-2.1909,3.8949-2.2256,2.9756-.4669,5.8316-1.4312,8.9026-1.1128-8.3385,20.1504-37.8284,14.5202-40.0615,11.6846-6.3559-8.0705.8254-41.1878,18.9179-35.0538Z" style="fill:#060503; stroke-width:0px;"/><path d="m343.7231,349.1585c1.2684-.1822,11.9692,15.7508,2.2256,12.241-1.2711-.4579-6.3912-11.6425-2.2256-12.241Z" style="fill:#fafcfe; stroke-width:0px;"/><path d="m341.4974,360.2867c3.6525-1.0215,4.251,5.2896,2.2256,5.5641-4.6129.6251-3.5674-5.1889-2.2256-5.5641Z" style="fill:#793a1f; stroke-width:0px;"/><path d="m217.4181,390.3329c4.0982,10.5363-.6074,7.903-4.4513,18.9179-6.256,17.9271-4.1398,35.0848,18.9179,26.7077-.3815.4445.6205,1.1686,1.1128,1.6692-4.4423.6646-4.2167,2.6644-4.4513,2.782-20.8027,10.4323-20.3604-11.743-21.1436-15.0231-.1975-.8272-1.4756-.5668-2.2256-.5564-.0841-.3279-.259-2.5235-1.1128-6.6769.6107-5.4298,4.3655-16.4705,6.6769-21.1436,2.2221-4.4926,1.9876-3.0015,2.2256-3.3385-.857,5.4193,3.7482,2.8976,1.1128-1.1128,1.6949-1.1852.8262-2.7237,3.3385-2.2256Z" style="fill:#d7fdfd; stroke-width:0px;"/><path d="m214.0796,418.1533c1.4667,15.3904,10.4259,19.6073,22.2564,8.9026,4.4808-.5707.0635,3.6421-4.4513,8.9026-23.0577,8.3772-25.1739-8.7806-18.9179-26.7077,5.7338,2.26,1.0566,8.313,1.1128,8.9026Z" style="fill:#057e7f; stroke-width:0px;"/><path d="m210.7412,397.0098c-2.3114,4.6731-6.0662,15.7138-6.6769,21.1436-.1549-.7537-6.8429-1.6648-1.1128-13.9102-1.1652-1.4943-7.0081.1057-8.9026-.5564-.9517-2.031,9.0558-3.8381,16.6923-6.6769Z" style="fill:#016673; stroke-width:0px;"/><path d="m228.5463,440.4097c-20.7941,17.9472-21.4005-7.9033-23.3692-15.5795.7501-.0104,2.0281-.2708,2.2256.5564.7832,3.2801.3409,25.4554,21.1436,15.0231Z" style="fill:#016673; stroke-width:0px;"/><path d="m222.9822,372.5277c22.2305-.5314,10.961,7.2135-17.8051,5.5641-3.5398-.2029-19.4038.9353-9.459-2.2256,2.4405-.7757,23.1743-3.2407,27.2641-3.3385Z" style="fill:#94f3f9; stroke-width:0px;"/><path d="m241.9001,419.2662c-11.2865,5.2426-12.6427-8.5281-13.3538-9.459-13.5305-17.7106-15.0675,10.4099-3.8949,15.0231,5.0529,2.0863,10.1854-2.2292,15.0231-2.2256-.8799,1.3185-2.2228,3.4418-3.3385,4.4513-12.6798,5.6939-14.8784-.3558-22.2564-8.9026-.0562-.5896,4.621-6.6425-1.1128-8.9026,3.8439-11.015,8.5495-8.3816,4.4513-18.9179-1.7324-4.4539-3.5541-6.5256-7.7897-8.9026-3.0704-1.7231-4.9773-.4674-4.4513-3.3385,28.7661,1.6494,40.0356-6.0955,17.8051-5.5641q.5564-1.6692,1.1128-3.3385c2.4968-.157,20.5313-1.4187,21.1436-.5564,1.8878,18.0121,4.6506,33.4257-3.3385,50.6333Z" style="fill:#016673; stroke-width:0px;"/><path d="m241.9001,419.2662c-1.349,2.9056-1.6767,2.5159-2.2256,3.3385-4.8376-.0035-9.9701,4.312-15.0231,2.2256-11.1726-4.6132-9.6356-32.7337,3.8949-15.0231.7111.9309,2.0673,14.7016,13.3538,9.459Z" style="fill:#d7fdfd; stroke-width:0px;"/><path d="m225.7642,393.6713c17.0231-5.7297,19.7418,23.5188,3.3385,11.1282-10.1708-7.6828,10.0109.7086,8.3461-5.0077-.5744-1.9723-19.3981-3.5243-11.6846-6.1205Z" style="fill:#d7fdfd; stroke-width:0px;"/><path d="m236.336,427.0559c-11.8305,10.7048-20.7897,6.4879-22.2564-8.9026,7.378,8.5468,9.5766,14.5964,22.2564,8.9026Z" style="fill:#d7fdfd; stroke-width:0px;"/><path d="m241.3437,379.2047c2.3296,26.611,5.5752,14.8851-10.5718,10.5718q5.2859-5.2859,10.5718-10.5718Z" style="fill:#d7fdfd; stroke-width:0px;"/><path d="m234.6668,379.2047c8.7446-1.116-13.1956,13.6657-13.9102,8.3461,1.7792-1.3974,13.1057-8.2434,13.9102-8.3461Z" style="fill:#94f3f9; stroke-width:0px;"/><path d="m234.6668,411.4764c4.0781-1.3422,8.1404,1.0868,6.1205,3.8949-1.8145,2.5226-10.8622-2.3343-6.1205-3.8949Z" style="fill:#d7fdfd; stroke-width:0px;"/><path d="m224.095,369.1893q-.5564,1.6692-1.1128,3.3385c-4.0898.0978-24.8235,2.5627-27.2641,3.3385-9.9449,3.1609,5.9192,2.0227,9.459,2.2256-.526,2.871,1.3809,1.6154,4.4513,3.3385-4.5428,13.1567-21.1676,14.7072-24.482,6.1205-1.3695-3.548,3.8538-2.3817-4.4513-9.459,5.9001-5.4101,34.3748-8.3351,43.4-8.9026Z" style="fill:#014548; stroke-width:0px;"/><path d="m199.0566,381.4303c18.4532-4.7759-2.5401,12.2074-7.2333,5.0077,5.1218-1.6951,6.724-4.8759,7.2333-5.0077Z" style="fill:#fafcfe; stroke-width:0px;"/><path d="m180.695,378.0918c8.305,7.0773,3.0818,5.9109,4.4513,9.459,3.3144,8.5867,19.9392,7.0362,24.482-6.1205,4.2356,2.377,6.0573,4.4487,7.7897,8.9026-2.5123-.4981-1.6436,1.0405-3.3385,2.2256-.7097.4963-.6196.4148-1.1128,1.1128-.2381.3369-.0035-1.1541-2.2256,3.3385-7.6365,2.8388-17.644,4.6459-16.6923,6.6769-8.237-2.8788-20.3867-19.1461-13.3538-25.5948Z" style="fill:#94f3f9; stroke-width:0px;"/><path d="m211.2976,385.8816c3.3609.2413-.6764,6.2627-2.2256,5.5641-1.5581-.7026,1.6029-5.6088,2.2256-5.5641Z" style="fill:#015661; stroke-width:0px;"/><path d="m212.9668,393.6713c.4932-.698.4031-.6165,1.1128-1.1128,2.6354,4.0104-1.9698,6.5321-1.1128,1.1128Z" style="fill:#016673; stroke-width:0px;"/><path d="m542.3614,447.0866c7.0652,14.5074,11.4165,39.2842,30.0461,41.1743,1.9675,1.0877,1.7658,4.999,2.2256,6.6769,7.863,28.6937,4.3625,62.7723,30.0461,83.4615,4.9531,4.156,6.311,13.6729,7.7897,20.0308,1.2337,5.304,4.4247,10.2614,3.3385,16.1359-10.5435,11.7341-42.2581,47.4125-43.4,60.6487-8.2345-12.2833-17.7809-8.32-25.5948,2.2256-20.423-.9523-30.3775,15.2398-25.5948,34.4974-5.6004-1.3833-7.6017-12.6318-6.6769-17.2487,1.0776-5.3794,7.4128-6.6819,7.7897-11.1282-7.5524-35.1869-14.3214-70.2858-23.3692-105.1614-1.3372-5.1543-1.7905-10.303-3.3385-15.5795-6.8559-23.3695-8.2058-40.0996-36.723-45.6256-15.5731-43.4507-2.6416-26.9067,7.7897-45.0692.5753-1.0016,3.4054-10.0215,3.3385-10.5718h2.2256c-.5361,11.3936-4.4868,12.8094-3.3385,16.1359,2.6365,7.6373,15.8589-6.0317,13.3538-17.8051-.863-4.0562-18.1804-23.5547-19.4743-30.6025,15.4,23.1629,56.4609,32.3119,79.5666,17.8051Z" style="fill:#f6eab9; stroke-width:0px;"/><path d="m546.8126,442.6354c4.564,17.251,20.5863,28.773,25.5948,45.6256-18.6296-1.8901-22.981-26.6669-30.0461-41.1743.0816-.7156-.1631-1.6563,0-2.2256.0598-.2089,1.7862-.0653,2.782-3.3385q.8346.5564,1.6692,1.1128Z" style="fill:#ae9253; stroke-width:0px;"/><path d="m604.6793,578.3993c-25.6836-20.6892-22.1831-54.7678-30.0461-83.4615,19.2829,18.2316,25.0424,58.0922,30.0461,83.4615Z" style="fill:#937331; stroke-width:0px;"/><path d="m542.3614,419.2662c-1.4278,10.3869,6.8391,14.7759,6.6769,18.9179-.0576,1.4705-3.189.5449-2.2256,4.4513q-.8346-.5564-1.6692-1.1128c-.9959,3.2732-2.7222,3.1296-2.782,3.3385-6.0989-5.2824-12.4548,1.99-23.9256,4.4513-.3309.071-2.2402-1.6944-6.6769-1.1128-1.2675.1662,3.047,8.0051-22.8128-.5564,5.8897-8.5933,16.54-7.9669,21.7-10.5718,13.0178-6.5717,17.7186-13.2768,31.7154-17.8051Z" style="fill:#1d0d07; stroke-width:0px;"/><path d="m542.3614,401.461c-4.8765,20.4672,12.6567,13.7104,0,17.8051-13.9968,4.5283-18.6976,11.2334-31.7154,17.8051-5.16,2.6049-15.8102,1.9785-21.7,10.5718,25.8598,8.5615,21.5453.7226,22.8128.5564,4.4367-.5816,6.346,1.1838,6.6769,1.1128,11.4708-2.4613,17.8267-9.7336,23.9256-4.4513-.1631.5693.0816,1.5101,0,2.2256-23.1057,14.5068-64.1666,5.3578-79.5666-17.8051,1.2939,7.0478,18.6113,26.5464,19.4743,30.6025,2.505,11.7734-10.7174,25.4424-13.3538,17.8051-1.1483-3.3265,2.8024-4.7423,3.3385-16.1359.3759-7.9884-10.6231-28.8427-15.5795-36.1666-7.2256-10.6772-17.2199-18.746-25.5948-28.3769,40.0346-48.7745,23.9444-73.3842,30.0461-103.4922.8021-3.9579-2.4018-1.6776.5564-4.4513,18.5632-15.1272,7.5716,9.3696,23.9256,31.7154,10.9911,15.018.6877-11.7369,0-18.9179-.9395-9.8104,2.4037-30.2339-3.3385-37.8359-8.6894-11.5037-1.6798,13.9076-17.2487,18.3615-31.2495,8.9397-21.8936-36.7363-12.241-38.9487,8.8088-2.019,5.0536,16.7114,16.1359,29.4897.1703-14.7708,3.0586-36.9237-18.3615-32.8282-12.6013,2.4094-10.7452,20.7055-15.0231,21.1436-2.858-8.2174-11.8605-14.4055-10.0154-23.9256-7.3478,6.0054-3.1527-12.9045-6.1205-13.9102-35.8219,25.045-17.5364-10.8722-21.7-18.3615-.2238-.4026-7.2386,2.614-5.5641-4.4513.1183-.4992,6.8672-7.1243,6.6769-7.7897-1.0298-3.6011-26.144.8346-30.6025-.5564-7.658-2.3892,5.2322-4.2841,4.4513-8.9026,11.3425,7.5628,18.59-1.7353,18.3615-2.782-.4292-1.9665-4.7224-1.2135-5.5641-3.3385-3.8569-9.737,23.0394-23.0692,12.241-27.8205,9.0001-12.7726-17.0105,4.9494-16.6923-11.6846.1676-8.7628,13.3026-8.8863,17.2487-12.241,5.1424-4.3718,3.1919-15.419,14.4667-6.6769.9075.7037,5.833,6.8632,14.4667,13.3538,3.9317-12.4093-25.5338-28.92-26.1513-33.941-1.5629-12.7098,20.8818-19.7002,30.6025-17.2487,6.3053,1.5901,15.5115,18.877,18.9179,18.9179,9.3524-11.713,33.6359-6.479,7.7897-14.4667-18.0601-12.8112,6.396-53.8785,31.1589-13.3538,5.0689,2.2662,8.8081-.7366,12.241,4.4513,1.337-.3619-6.6646-17.5368,5.5641-13.3538.6878-15.0461,16.9473-13.2661,20.0308,4.4513,7.0658-2.6646,8.3735,2.293,8.9026,2.2256,3.384-.4309.8013-4.7518,1.6692-6.1205,3.0374-4.7902,18.3464,2.0962,25.0384-2.782,17.7345,5.3559,15.3962,20.3519,17.8051,21.1436.4229.139,8.4721.1136,8.9026,0,1.6554-.4369,11.0582-23.3592,25.5948-12.241,4.9816-6.2477,21.615-9.8358,15.0231,1.6692,11.1212,1.8943,1.5591,20.5089-6.6769,24.482,30.3537.4231,23.5944,9.8471,24.482,11.1282,1.9639,2.8344,4.8041.9667,5.5641,2.2256.6465,1.071-.888,5.6147.5564,7.2333,1.6365,1.8338,11.1227-.3003,12.241,0,8.4761,2.276,29.3496,39.3772-.5564,48.4076-.6768,33.6069-26.9308,44.0396-27.8205,46.7384v26.7077c8.0514,4.2759,50.8614-.1756,44.5128,15.5795-.9686,2.4036-6.1689,2.1517-7.7897,4.4513-1.8136,2.5731-6.4477,47.4871-40.0615,35.6102,1.2581,6.119,1.7191,13.8861,1.1128,20.0308-1.4263,14.4572-17.9838,45.8723-27.8205,58.9794,3.4556,10.4075-9.8643,30.0535-19.4743,31.7154-7.9496,1.3747-33.1903-7.3881-37.8359-15.5795-4.2896,4.1044-6.8807,6.0905-8.3461,12.241Z" style="fill:#060503; stroke-width:0px;"/><path d="m638.0638,244.5535v-1.1128c33.3864.1408,38.7868,1.0709,27.8205,28.3769-8.8054,21.9254-31.8718,30.0775-35.6102,7.7897-4.8338-28.8187,17.5488-7.4536,7.7897-35.0538Z" style="fill:#c8c0b5; stroke-width:0px;"/><path d="m582.4229,240.1022c10.1344,1.1575,34.9128,9.1925,37.2795,8.9026,3.8856-.4761,4.6838-4.3657,5.0077-4.4513,7.677-2.0276,6.3224-1.1425,13.3538-1.1128v1.1128c-26.5776,1.3852-12.7832,32.4777-12.241,48.9641-4.0539-1.4512-4.9524,19.6016-4.4513,3.3385.1265-4.1034.6273-8.1367,0-12.241-7.3621-14.7856.9864-28.8358-17.2487-33.3846-.3567,15.8171-6.8763,32.3142-21.7,40.0615-8.9,4.6514-10.3847,3.7745-18.9179,4.4513-1.8324.1453-6.3975-2.3095-10.0154-2.2256-.1423-1.2066-1.1492-1.8803-2.2256-2.2256-17.2187-15.2849,2.2692-44.6028,3.3385-36.1666-27.9045,36.1548,23.7989,50.6408,40.0615,17.8051,8.5754-17.3144,8.1164-28.49-12.7974-30.6025-4.621-.4668-15.6488-.0165-20.0308,1.1128-23.5105,6.0593-16.0997,42.0862-28.3769,1.6692,19.6897-4.1209,28.3536-7.3618,48.9641-5.0077Z" style="fill:#fdfaf2; stroke-width:0px;"/><path d="m485.0512,233.4253c14.6593,4.0405,29.1816,9.5782,44.5128,10.0154q3.6167,9.7372,7.2333,19.4743c-20.8481-11.6412-54.0089-5.917-51.7461-29.4897Z" style="fill:#fdfaf2; stroke-width:0px;"/><path d="m559.6101,255.6817c46.353,20.7194-.5138,40.4374-1.6692,26.1513-.4397-5.4372,18.5207-.9,1.6692-26.1513Z" style="fill:#572513; stroke-width:0px;"/><path d="m536.2409,264.5843c.358-.0585,6.6195,3.0735,6.1205,3.8949-2.0708,3.4085-11.9547-2.9408-6.1205-3.8949Z" style="fill:#fdfaf2; stroke-width:0px;"/><path d="m621.3715,284.615c-3.1054-1.6959-9.4538-19.4745-12.7974-18.9179-2.0103.3346-6.9106,12.0571-1.6692,22.2564-2.4147,4.9789-4.6655-1.3137-16.6923,2.2256-3.5309,1.0391-7.2183,3.6828-7.7897,1.1128,14.8236-7.7473,21.3433-24.2444,21.7-40.0615,18.2351,4.5487,9.8866,18.599,17.2487,33.3846Z" style="fill:#060503; stroke-width:0px;"/><path d="m461.1255,293.5176c-26.3412-.5058-20.2168-16.8087-25.5948-32.2718,4.2778-.4381,2.4218-18.7342,15.0231-21.1436,21.4201-4.0955,18.5319,18.0574,18.3615,32.8282-11.0822-12.7783-7.3271-31.5087-16.1359-29.4897-9.6525,2.2124-19.0085,47.8884,12.241,38.9487,15.5689-4.4539,8.5594-29.8653,17.2487-18.3615,5.7422,7.602,2.3989,28.0255,3.3385,37.8359.6877,7.181,10.9911,33.936,0,18.9179-16.354-22.3458-5.3624-46.8425-23.9256-31.7154-2.9582,2.7737.2457.4934-.5564,4.4513Z" style="fill:#2b1106; stroke-width:0px;"/><path d="m557.9408,331.3534q4.4513,4.7295,8.9026,9.459c.593,1.2642-1.345,1.8457-1.1128,2.782.1013.4086-2.6957.4815,1.1128,8.3461,5.0941,10.5195,20.2817,20.0866,31.1589,11.6846-6.5195,7.2476-17.1446,16.0323-28.3769,11.1282-9.6544-4.2151-43.0969-72.8992-20.0308-43.4,5.1448,2.4089,4.066-.7079,8.3461,0Z" style="fill:#44170b; stroke-width:0px;"/><path d="m606.9049,287.9535c.1271.2473,2.5946-.5726,3.3385.5564,2.9383,4.4599,3.748,13.6425,11.1282,8.3461-.5011,16.2631.3974-4.7896,4.4513-3.3385,8.2977,7.3119-1.1694,17.3747-3.8949,17.8051-3.1532.498-18.3976-14.459-42.8435-13.3538,4.7122-4.7215,7.4162-3.5568,11.1282-7.7897,12.0268-3.5393,14.2776,2.7532,16.6923-2.2256Z" style="fill:#793a1f; stroke-width:0px;"/><path d="m590.2126,290.1791c-3.712,4.2329-6.416,3.0682-11.1282,7.7897-2.1314,2.1356-4.7372,3.1999-4.4513,7.2333.3884,5.479,21.7794,19.9378,8.3461,13.9102-13.1523-5.9015-.8896-17.6928-40.0615-2.2256q-.8346-.8346-1.6692-1.6692c5.5612-8.3663,16.302-11.1614,22.2564-19.4743,8.5332-.6768,10.018.2002,18.9179-4.4513.5714,2.57,4.2588-.0737,7.7897-1.1128Z" style="fill:#572513; stroke-width:0px;"/><path d="m551.2639,291.2919c1.0764.3453,2.0833,1.019,2.2256,2.2256-24.997,9.8597-49.2829-8.2531-10.5718-13.3538,1.0759,6.0093,2.4206,9.227,8.3461,11.1282Z" style="fill:#44170b; stroke-width:0px;"/><path d="m589.6562,324.6765q10.85,1.391,21.7,2.782c-7.3292,3.247-15.4796,3.003-21.7-2.782Z" style="fill:#ddc8bf; stroke-width:0px;"/><path d="m624.71,244.5535c-.3239.0855-1.1221,3.9752-5.0077,4.4513-2.3666.29-27.145-7.745-37.2795-8.9026,1.2271-3.968-6.423-1.2172-6.6769-2.782,19.5518-2.8064,20.3586-16.6978,6.6769-20.5872.7075-16.3699-.2115-32.5121-6.6769-47.8512,41.3285-4.8212,56.258,19.0072,54.5282,57.3102-19.5118-2.3166-22.8515,10.1653-5.5641,18.3615Z" style="fill:#793a1f; stroke-width:0px;"/><path d="m553.4896,176.6715c-1.1316.949-2.3198,1.7156-3.3385,2.782-.7174,13.2967.4639,26.3044,6.6769,38.3923-6.5013,1.5841-11.5184,3.326-16.6923,7.7897-10.4317-2.7107-13.5511-13.626-22.2564-18.9179.9678-9.6254-3.3004-21.1488,11.1282-11.6846q.8346-14.1884,1.6692-28.3769,11.4064,5.0077,22.8128,10.0154Z" style="fill:#2b1106; stroke-width:0px;"/><path d="m582.4229,216.733c-8.8058-2.5033-17.1034-.9562-25.5948,1.1128-6.213-12.0878-7.3943-25.0956-6.6769-38.3923,1.0186-1.0665,2.2068-1.8331,3.3385-2.782,1.0321-.8656,20.3171-7.5635,22.2564-7.7897,6.4654,15.3392,7.3845,31.4813,6.6769,47.8512Z" style="fill:#572513; stroke-width:0px;"/><path d="m540.1357,225.6356c-2.4859,2.1447-6.0989,11.7088-10.5718,12.241-16.5279,1.9667-12.6629-21.43-11.6846-31.1589,8.7052,5.292,11.8247,16.2073,22.2564,18.9179Z" style="fill:#2b1106; stroke-width:0px;"/><path d="m558.4972,235.6509c.6961-.0954,1.4653-.1324,1.6692.5564.9505,3.2097-6.7075.1344-1.6692-.5564Z" style="fill:#9c9894; stroke-width:0px;"/><path d="m621.3715,284.615c.6273,4.1043.1265,8.1377,0,12.241-7.3802,5.2964-8.1899-3.8862-11.1282-8.3461-.7439-1.1291-3.2114-.3091-3.3385-.5564-5.2413-10.1993-.341-21.9218,1.6692-22.2564,3.3436-.5566,9.692,17.222,12.7974,18.9179Z" style="fill:#793a1f; stroke-width:0px;"/><path d="m571.2947,346.9329c7.7226,6.5864,15.3542,13.9139,26.1513,14.4667q.2782,1.1128.5564,2.2256c-10.8772,8.402-26.0649-1.1651-31.1589-11.6846-3.8085-7.8647-1.0115-7.9375-1.1128-8.3461,2.1924.021,4.0461,2.0438,5.5641,3.3385Z" style="fill:#1d0d07; stroke-width:0px;"/><path d="m604.6793,353.6098c-9.1202,6.5851-22.0331-2.1375-30.0461-7.7897-3.9439-2.7819-15.3307-15.7826-16.6923-14.4667,54.837,9.0695,64.1926-7.9741,46.7384,22.2564Z" style="fill:#fdfaf2; stroke-width:0px;"/><path d="m574.6331,345.8201c8.0131,5.6523,20.926,14.3748,30.0461,7.7897-.301.5212,1.7241.6762-6.6769,10.0154q-.2782-1.1128-.5564-2.2256c-10.797-.5527-18.4287-7.8802-26.1513-14.4667q1.6692-.5564,3.3385-1.1128Z" style="fill:#701e1b; stroke-width:0px;"/><path d="m574.6331,345.8201q-1.6692.5564-3.3385,1.1128c-1.518-1.2946-3.3717-3.3174-5.5641-3.3385-.2322-.9364,1.7058-1.5178,1.1128-2.782q-4.4513-4.7295-8.9026-9.459c1.3615-1.316,12.7484,11.6847,16.6923,14.4667Z" style="fill:#060503; stroke-width:0px;"/><path d="m495.6229,562.8199c1.548,5.2765,2.0013,10.4251,3.3385,15.5795-1.2405,5.6379-9.0375,23.3454-12.241,9.459-3.3497-14.52,9.8674-18.8656-10.0154-18.3615-.0767-.2896-.6975-.2853-2.2256-5.5641l1.1128-2.2256q10.0154.5564,20.0308,1.1128Z" style="fill:#06231b; stroke-width:0px;"/><path d="m495.6229,562.8199q-10.0154-.5564-20.0308-1.1128c-12.4524-16.3079,1.5625-20.4716-2.782-28.9333-16.0177,2.3734-13.4853-14.3937-13.9102-15.5795,28.5173,5.526,29.8672,22.256,36.723,45.6256Z" style="fill:#104f3c; stroke-width:0px;"/><path d="m498.9614,578.3993c9.0478,34.8757,15.8168,69.9746,23.3692,105.1614-.3769,4.4463-6.7122,5.7488-7.7897,11.1282-.9248,4.6169,1.0765,15.8654,6.6769,17.2487.3208.0793.7659-.0033,1.1128,0v1.1128q2.782,13.9102,5.5641,27.8205,2.782,7.7897,5.5641,15.5795c-.1867.0734.7675.8597-3.3385,2.2256-23.6456-11.5407-27.105-64.2314-32.2718-86.2435-4.3116-18.3689-9.2356-36.6604-13.3538-55.0846-4.4272-19.8066-6.6544-43.5652-7.7897-47.8512,19.8828-.504,6.6657,3.8415,10.0154,18.3615,3.2035,13.8864,11.0005-3.821,12.241-9.459Z" style="fill:#02745d; stroke-width:0px;"/><path d="m498.405,611.7839c14.8812-2.1294-6.0733,13.8817,8.3461,10.5718-8.8602,21.8929-22.4885-8.5481-8.3461-10.5718Z" style="fill:#043729; stroke-width:0px;"/><path d="m602.4536,938.9529c-.1149,1.093.0682,2.2354,0,3.3385-24.036,1.0063-47.3759-.3782-71.2204,0-2.8211-8.3656-2.6861-16.9595-3.3385-25.5948,4.6811-.0274,8.975-2.2738,13.3538-3.3385,15.3392-3.7296,54.4466-21.8694,60.0923-37.2795,2.2166-6.0501,1.6551-15.3456,2.2256-21.7.8739-9.7328.3154-21.1451,3.3385-23.3692,1.4319,11.1617,4.6624,21.3016,4.4513,32.8282-.105,5.7326-6.9258,56.3015-8.9026,75.1153Z" style="fill:#f6eab9; stroke-width:0px;"/><path d="m634.7254,940.0657c-10.8663.798-21.3496,1.7684-32.2718,2.2256.0682-1.103-.1149-2.2455,0-3.3385,5.2015-7.6356,26.9863-28.8136,28.9333-32.2718q1.6692,16.6923,3.3385,33.3846Z" style="fill:#ae9253; stroke-width:0px;"/><path d="m645.8536,938.9529c-.1512,2.1222-5.5144.7005-11.1282,1.1128q-1.6692-16.6923-3.3385-33.3846c1.3916-2.4717,3.174-5.4783,3.3385-8.3461-1.9026-12.4372-4.4676-26.0918-3.3385-38.3923,2.2431,14.4382,6.5032,28.5044,8.9026,42.8435,1.385,8.2768-.7395,31.0893,5.5641,36.1666Z" style="fill:#f6eab9; stroke-width:0px;"/><path d="m613.5818,735.3069c-.0255,3.363,1.7272,6.8255,2.2256,10.0154,3.1164,19.9453,6.0919,40.1003,8.9026,60.0923,2.5001,17.7828,3.9191,35.5932,6.6769,53.4153.056.3622-.0563.7506,0,1.1128-1.1291,12.3004,1.4359,25.9551,3.3385,38.3923-.1644,2.8678-1.9469,5.8744-3.3385,8.3461-1.947,3.4581-23.7318,24.6361-28.9333,32.2718,1.9768-18.8138,8.7975-69.3827,8.9026-75.1153.2111-11.5266-3.0194-21.6664-4.4513-32.8282-.6349-4.9487-3.1828-3.7962-3.3385-5.0077-.5869-14.9637.7929-30.1287,0-45.0692-.5827-10.9794-.8624-22.503-2.2256-33.3846-.3388-2.7041.237-5.615,0-8.3461-1.191-3.8289-2.5772-4.0622-3.3385-5.0077q.5564-2.2256,1.1128-4.4513c1.9366,1.1833,13.5139,5.5065,14.4667,5.5641Z" style="fill:#937331; stroke-width:0px;"/><path d="m532.346,803.1889q-7.2333,1.1128-14.4667,2.2256c-.2008-1.8172.1925-3.7446,0-5.5641-2.1627-20.4453-4.3635-22.1697-4.4513-23.3692-.027-.3681.0147-.7429,0-1.1128,5.1417-6.3043,13.8559,18.8348,18.9179,27.8205Z" style="fill:#937331; stroke-width:0px;"/><path d="m603.5664,780.9325c.7929,14.9405-.5869,30.1055,0,45.0692.1557,1.2114,2.7036.059,3.3385,5.0077-3.0231,2.2241-2.4645,13.6365-3.3385,23.3692-23.4905-12.3196-18.0321-2.8091-36.723,10.0154-13.0235,8.9359-27.0683,16.5793-40.0615,25.5948-.5039-7.4525-1.5956-14.7985-2.2256-22.2564q25.5948-31.9936,51.1897-63.9871c2.6358-5.1289,6.0977-14.5984,1.1128-15.0231,1.5032-1.4273,11.7375-13.6466,12.241-14.4667,3.8179,5.9826,7.7033,5.1255,14.4667,6.6769Z" style="fill:#ae9253; stroke-width:0px;"/><path d="m603.5664,854.3786c-.5705,6.3544-.009,15.6498-2.2256,21.7-5.6457,15.41-44.753,33.5498-60.0923,37.2795-4.1399-9.6537,28.6401-44.4857,28.9333-47.2948.0646-.6186-2.3671-2.1783-3.3385-1.6692,18.6909-12.8245,13.2325-22.335,36.723-10.0154Z" style="fill:#c4a86c; stroke-width:0px;"/><path d="m541.2485,913.358c-4.3789,1.0647-8.6728,3.3111-13.3538,3.3385-.3381-4.4755-1.0943-5.281-1.1128-5.5641-.4585-6.9896.4725-14.1563,0-21.1436,12.9932-9.0155,27.038-16.6589,40.0615-25.5948.9713-.5091,3.4031,1.0507,3.3385,1.6692-.2932,2.8091-33.0732,37.6411-28.9333,47.2948Z" style="fill:#ae9253; stroke-width:0px;"/><path d="m524.5562,867.7324c-1.7644-20.8856-4.3633-41.3792-6.6769-62.3179q7.2333-1.1128,14.4667-2.2256c3.5879,6.369,2.8133,9.2623,8.3461,8.9026,2.1485-.1397,31.885-19.3037,36.1666-23.3692,4.9849.4247,1.523,9.8942-1.1128,15.0231q-25.5948,31.9936-51.1897,63.9871Z" style="fill:#ae9253; stroke-width:0px;"/><path d="m603.5664,780.9325c-6.7633-1.5514-10.6487-.6943-14.4667-6.6769,4.9385-8.0431,6.6229-18.9211,12.241-26.7077,1.3632,10.8816,1.6429,22.4052,2.2256,33.3846Z" style="fill:#ae9253; stroke-width:0px;"/><path d="m711.5099,660.748q-3.8949,6.1205-7.7897,12.241c-2.0076,1.09-3.8065,2.9824-5.5641,4.4513-.2839.2372-1.4312-.8213-3.3385,1.1128-11.3485-16.4082,3.2466-16.4275,16.6923-17.8051Z" style="fill:#fdfaf2; stroke-width:0px;"/><path d="m781.6175,587.3019c6.3205,4.2049,6.2707,6.4363,6.6769,6.6769q-7.2333,10.85-14.4667,21.7c9.0233,4.6333,17.5142,11.9617,27.8205,12.7974-.4888,3.1549,6.4605,38.766-17.2487,58.9794-6.6879,5.7018-13.2379,6.2986-13.9102,6.6769-.0448-1.7825,1.5326-6.6191,2.2256-7.7897,1.5667-2.6464,10.0902-10.1841,8.3461-12.241-7.2043-.8974-58.5976-20.334-58.423-23.9256.0154-.3169,4.6981-3.8258,5.0077-3.8949,8.2727-1.8453,13.5501,8.9983,19.4743,8.3461-36.91-38.3639-19.1195-27.9439,13.9102-.5564,14.2591,2.1955,27.8617,13.7634,29.4897,5.0077,2.8091-15.108-34.1449-4.4067-44.5128-22.2564.346-6.0018,40.9293,13.2431,44.5128,8.9026q-15.0231-15.0231-30.0461-30.0461c34.013-7.8542,17.4561-34.995-8.9026-38.3923,8.3564-8.0193,23.6894,5.7863,30.0461,10.0154Z" style="fill:#572513; stroke-width:0px;"/><path d="m772.715,686.3428c-.6931,1.1706-2.2705,6.0072-2.2256,7.7897-2.3673,1.3319-4.1731,2.0647-4.4513,2.2256,2.0761-4.1255-18.0966-4.7356-30.6025-7.7897-12.5748-3.071-24.5941-8.4214-37.2795-11.1282,1.7576-1.4689,3.5565-3.3613,5.5641-4.4513,2.9683-1.6116,3.9378-4.9713,7.2333-4.4513,20.0156,7.9814,41.1033,11.8252,61.7615,17.8051Z" style="fill:#572513; stroke-width:0px;"/><path d="m789.4073,593.9788c8.3328,3.6459,8.3123,1.2967,10.0154,1.1128,1.0141-.1096,1.2208,1.2418,2.2256,1.1128-1.3044,3.6086-4.4777,7.874-4.4513,8.3461.0814,1.4553,10.1706,10.3572,10.0154,14.4667-.0389,1.031-5.4334,8.6154-5.5641,9.459-10.3063-.8357-18.7972-8.1641-27.8205-12.7974q7.2333-10.85,14.4667-21.7c1.9545,1.158,1.0618-.0223,1.1128,0Z" style="fill:#1d0d07; stroke-width:0px;"/><path d="m803.8739,560.5942c8.8907,7.3401,1.2566,25.9765-2.2256,35.6102-1.0048.129-1.2115-1.2224-2.2256-1.1128,13.3667-31.0307-1.1138-22.7019-10.0154-1.1128-.051-.0223.8417,1.158-1.1128,0-.4062-.2406-.3564-2.4721-6.6769-6.6769,6.517.2326,10.447-13.2279,13.3538-17.2487,7.5026-10.3779,8.5354-8.9232,8.9026-9.459Z" style="fill:#1d0d07; stroke-width:0px;"/><path d="m723.7509,620.6865c-.7187-.0534-4.3599,3.2288-13.9102-1.1128-5.5043,10.6139-16.1096-.3503-2.782-10.0154,8.8911.2711,13.5384.3114,16.6923,11.1282Z" style="fill:#943d24; stroke-width:0px;"/><path d="m828.356,530.5481c-.3756.8132.2508,3.4927,0,5.0077-1.2743,1.2673-2.0903-1.6371-2.2256-1.6692-6.0564-20.5779-61.0923-15.9613-74.0025-7.7897-12.0865,7.6502-46.0051,67.2547-52.8589,84.0179.9154,1.568,3.3399-.6921,7.7897-.5564-13.3275,9.665-2.7222,20.6293,2.782,10.0154,9.5504,4.3416,13.1916,1.0594,13.9102,1.1128.3972.0295,6.8534,3.4583,7.2333,3.3385.3459-.1091,3.9948-5.7718,3.8949-6.1205-.2623-.9145-14.2506-4.1684-15.5795-10.0154-1.9525-8.5913,10.593-5.0245,9.459-11.6846q1.391.5564,2.782,1.1128c5.9746,7.2559,29.8549,20.0424,21.1436,4.4513.9303.0282,3.6493-2.1952,3.8949-2.2256.6488-.0804,11.3385,4.8243,10.5718-2.782-.6203-6.1538-25.0172-10.4173-15.5795-19.4743,26.3586,3.3973,42.9155,30.5381,8.9026,38.3923q15.0231,15.0231,30.0461,30.0461c-3.5835,4.3406-44.1668-14.9044-44.5128-8.9026,10.3679,17.8497,47.3219,7.1484,44.5128,22.2564-1.628,8.7557-15.2306-2.8122-29.4897-5.0077-33.0298-27.3875-50.8202-37.8075-13.9102.5564-5.9243.6521-11.2016-10.1915-19.4743-8.3461-.3096.0691-4.9923,3.578-5.0077,3.8949-.1746,3.5916,51.2188,23.0282,58.423,23.9256,1.744,2.0569-6.7794,9.5946-8.3461,12.241-20.6581-5.9799-41.7459-9.8237-61.7615-17.8051-3.2955-.52-4.265,2.8397-7.2333,4.4513q3.8949-6.1205,7.7897-12.241c2.6916-7.1922-13.0165,6.2358-18.3615-5.5641-38.7927,8.388-29.8922-8.9082,1.1128-5.5641,1.0304-.5436-1.2886-4.735-1.6692-5.5641-2.0888-4.5498-3.6531-5.557-2.2256,0-8.7084,1.3225-17.411-.7879-26.1513,0,18.1957-20.9589-3.1007-3.9525-30.6025-8.9026,5.9917-2.1913,11.9068-4.2026,17.8051-6.6769,5.0271-2.1089,32.8977-14.5785,34.4974-16.1359,15.1867-31.3729,38.4859-59.3343,53.4153-90.6948,17.2291-13.1392,87.5866-21.5719,89.0256,8.9026Z" style="fill:#060503; stroke-width:0px;"/><path d="m692.592,644.0557c-1.5519,1.7026-2.1156-.0167-2.2256,0-1.4274-5.557.1368-4.5498,2.2256,0Z" style="fill:#523636; stroke-width:0px;"/><path d="m708.1715,641.8301c3.9209-6.6607,9.2799-2.9792,12.241-5.5641,1.4016,1.1823,9.706,6.0565,8.9026,7.2333-14.9348,2.5378-7.5011,19.6103-21.1436-1.6692Z" style="fill:#572513; stroke-width:0px;"/><path d="m720.4125,636.266c-2.9612,2.5849-8.3201-1.0966-12.241,5.5641-3.3032-5.1524-6.6904-10.3682-7.2333-16.6923,8.8378,1.1381,13.3121,5.9299,19.4743,11.1282Z" style="fill:#8c4d30; stroke-width:0px;"/><path d="m752.6842,601.7686c8.7113,15.5912-15.169,2.8047-21.1436-4.4513,6.7791.3191,6.4222,4.0054,21.1436,4.4513Z" style="fill:#a1332c; stroke-width:0px;"/><path d="m754.3535,619.5737c2.5426-.5256,5.1297,7.2248,11.6846,10.5718-.3434.9058-16.6886-4.6701-16.6923-5.5641-.0015-.3541,4.661-4.936,5.0077-5.0077Z" style="fill:#793a1f; stroke-width:0px;"/><path d="m737.6612,619.5737c.3982,0,2.4478,1.5999.5564,2.782-2.1195,1.3247-2.4778-2.782-.5564-2.782Z" style="fill:#ac3d4e; stroke-width:0px;"/><path d="m799.4227,595.0916c-1.7031.1839-1.6826,2.5331-10.0154-1.1128,8.9015-21.5891,23.382-29.9179,10.0154,1.1128Z" style="fill:#572513; stroke-width:0px;"/><path d="m651.4177,628.4762c-5.8983,2.4744-11.8135,4.4856-17.8051,6.6769-1.7206-.3097-2.8801-.7221-4.4513-1.1128,3.7148-1.2668,7.0823-4.7667,10.0154-6.6769,1.8078-1.1773,6.3461-3.0134,7.7897-4.4513q2.2256,2.782,4.4513,5.5641Z" style="fill:#701e1b; stroke-width:0px;"/><path d="m639.1767,627.3634c-2.933,1.9102-6.3006,5.4101-10.0154,6.6769-1.5825-.3935-7.7721,5.0965-3.3385-10.0154,4.4331.5237,9.1118,1.8483,13.3538,3.3385Z" style="fill:#1d0d07; stroke-width:0px;"/><path d="m651.4177,615.1224c-.0706,1.2918.0465,2.6004,0,3.8949-1.0848,1.654-3.1389,2.5877-4.4513,3.8949-1.4437,1.4379-5.9819,3.2739-7.7897,4.4513-4.242-1.4901-8.9208-2.8147-13.3538-3.3385-1.2423-.1468-1.8872-1.5125-2.782-2.2256l-3.3385,2.2256c-23.9834,26.2036-9.4574,17.3568-7.2333,21.7,1.013,1.9781-1.4692,9.0421-.5564,9.459,1.8432.8418,33.5043-11.3161,39.5051-8.3461-12.1265,33.1738,4.3955,41.607,10.5718,76.2281,17.5393-12.2511,19.3379-26.8258,33.941-42.8435.0676-.0741-1.5822-1.1932-1.1128-1.6692,1.9073-1.9341,3.0545-.8756,3.3385-1.1128,12.6854,2.7068,24.7046,8.0572,37.2795,11.1282,12.506,3.0541,32.6787,3.6642,30.6025,7.7897-9.6871,5.6073-19.0483,9.5795-28.3769,16.6923-19.0451,14.5214-48.2733,51.9578-80.123,71.2204-11.2293,6.7914-21.6162,5.386-13.9102,11.1282-1.6414,2.1581-.9243,4.1183-1.1128,4.4513-2.9712,5.2493-12.0195,3.8254-17.8051,5.5641-2.8106-19.992-5.7862-40.1469-8.9026-60.0923,3.211,4.6627,11.8851,42.3553,13.9102,43.4,5.9268,3.0573.8218-19.5993-.5564-38.9487,8.315-2.2762,4.3956-19.4897,7.2333-27.8205,1.9102,6.2594,16.1132,8.2644,19.4743,1.6692-1.5875-2.2142-12.571,6.7713-20.5872-10.5718-.862.4219.6204,8.3173-7.2333,15.5795-4.5386,4.1966-8.1585,7.0581-14.4667,6.6769-.9527-.0576-12.53-4.3808-14.4667-5.5641-9.3006-5.6828-7.2638-13.8332-14.4667-10.0154-3.038-8.5205-3.8502-17.1669-3.3385-26.1513-8.9122-3.2859-8.187-8.7553-10.0154-11.6846,1.9471.0539.8117-3.1862,1.1128-6.6769,1.1419-13.2362,32.8565-48.9146,43.4-60.6487,1.0862-5.8745-2.1048-10.8319-3.3385-16.1359l2.2256-1.6692c1.3389,6.349,1.9647,11.0106,5.5641,15.0231,6.455,7.1958,18.9732,9.0911,25.5948,1.6692-1.1094-10.2592-2.9171-20.4069-4.4513-30.6025,7.0123-3.9884,3.3123,25.5555,10.0154,32.2718Z" style="fill:#060503; stroke-width:0px;"/><path d="m629.1613,749.7735c-.5019-7.047-1.8928-14.0032-1.1128-21.1436,7.8537-7.2621,6.3713-15.1576,7.2333-15.5795,8.0162,17.343,18.9996,8.3576,20.5872,10.5718-3.3611,6.5952-17.5641,4.5902-19.4743-1.6692-2.8377,8.3308,1.0817,25.5442-7.2333,27.8205Z" style="fill:#2c2118; stroke-width:0px;"/><path d="m601.8972,710.8249c2.1347-1.1183,7.0588,4.7022,8.3461,6.1205,14.3079,15.7625,6.2345,22.7398-8.3461-6.1205Z" style="fill:#2b1106; stroke-width:0px;"/><path d="m708.7279,691.9069c7.8944.9091.1731,14.4177-1.1128,17.8051.081-3.719-7.7737-18.8283,1.1128-17.8051Z" style="fill:#2b1106; stroke-width:0px;"/><path d="m625.8228,624.0249c-4.4337,15.1119,1.756,9.6219,3.3385,10.0154,1.5712.3907,2.7307.8032,4.4513,1.1128,27.5019,4.9501,48.7982-12.0563,30.6025,8.9026,8.7402-.7879,17.4428,1.3225,26.1513,0,.11-.0167.6737,1.7026,2.2256,0,.3806.8291,2.6997,5.0205,1.6692,5.5641-31.005-3.3441-39.9055,13.9521-1.1128,5.5641,5.3451,11.7999,21.0532-1.6281,18.3615,5.5641-13.4457,1.3776-28.0408,1.3969-16.6923,17.8051-.4693.476,1.1804,1.5951,1.1128,1.6692-14.6031,16.0178-16.4017,30.5925-33.941,42.8435-6.1763-34.6212-22.6983-43.0543-10.5718-76.2281-6.0008-2.97-37.6619,9.188-39.5051,8.3461-.9128-.4169,1.5694-7.4809.5564-9.459-2.2241-4.3432-16.7501,4.5036,7.2333-21.7l3.3385-2.2256c.8949.7132,1.5397,2.0789,2.782,2.2256Z" style="fill:#2b1106; stroke-width:0px;"/><path d="m675.3433,667.4249c21.1165,4.2327,14.2055,7.6115,2.2256,18.9179q-1.9474-8.6244-3.8949-17.2487.8346-.8346,1.6692-1.6692Z" style="fill:#060503; stroke-width:0px;"/><path d="m572.4075,459.3277c-1.5667,2.1485-2.4325,2.0224-3.3385,3.3385-5.1392-3.6613-1.9096-8.3289,3.3385-3.3385Z" style="fill:#d53d23; stroke-width:0px;"/><path d="m253.0283,598.4301c2.2539,3.9269,5.2697,8.4246,7.7897,12.241-5.9498-3.3093-12.031-5.4776-15.5795-11.1282-1.2675-2.0183-.9926-3.0312-1.1128-3.3385.1757-5.5652,4.2546.9928,8.9026,2.2256Z" style="fill:#4d5903; stroke-width:0px;"/><path d="m284.1872,605.107c3.3935,15.7981-7.0817,13.5001,1.1128,18.9179.388,2.5407-.9088,2.086-1.1128,2.2256-2.5544-2.8993-15.7758-8.2217-18.9179-8.9026v-1.1128c3.7075-.5242,7.4471-6.7141,10.0154-10.0154.4851-.6236,1.8024-.9614,4.4513-5.5641,3.7516-.3799,2.5962,2.8871,4.4513,4.4513Z" style="fill:#c9c39d; stroke-width:0px;"/><path d="m265.2693,617.348c3.1421.6808,16.3636,6.0032,18.9179,8.9026-2.3738,1.6243-14.424,1.5119-17.8051,1.1128-9.3044-1.0982-16.5657-10.8778-13.9102-12.241,3.5417,2.8324,9.3044,1.4688,12.7974,2.2256Z" style="fill:#060503; stroke-width:0px;"/><path d="m385.4538,595.0916c-9.4587,34.6643-8.7998,8.4251-11.6846,7.7897-1.0538-.2321-7.3341,9.2426-7.7897,11.1282q-1.6692-6.1205-3.3385-12.241c-11.9235,19.8465-2.6203,20.8815-10.0154-2.2256q-1.6692,7.7897-3.3385,15.5795c-5.5733-21.2128-5.8676-22.7135-6.6769,0-4.0215-6.6059-10.1087-15.3615-8.3461-3.8949-1.965,3.229-5.3656-2.61-6.1205,3.8949-2.1863-.3613,4.3412-23.5425-5.5641-6.6769-1.2501-11.6972-3.3771-9.2932-6.6769,0-2.7689-13.7111-5.627-6.2283-5.5641,3.3385-5.3344-17.4993-7.0399-3.6921-7.7897-3.3385-1.8274.8617-3.6604-9.3582-5.5641,4.4513-2.7446-17.1766-11.2763.836-1.1128,10.0154,18.0622,16.3132,29.8326-11.2104,41.1743,4.4513,12.9685,9.2859,42.355-18.6095,50.6333-1.1128,1.6751,3.5403,2.2883,30.8339,2.2256,37.2795-.0084.8648-2.2119-.0305-2.2256,1.6692-6.7028-.1017-13.3512.6915-20.0308,1.1128.0104-.7499.2705-2.0289-.5564-2.2256-7.3243-1.7424-43.1771,3.9637-56.7538,2.2256q-21.9782-19.4743-43.9564-38.9487c3.3811.3991,15.4313.5114,17.8051-1.1128.2041-.1396,1.5009.315,1.1128-2.2256,11.219,7.4175,4.8091-13.8302,2.2256-18.3615-1.9416-3.4055-3.2091-.4473-3.3385-.5564-1.8551-1.5642-.6997-4.8312-4.4513-4.4513,7.1393-12.4053,1.0867-8.1781-4.4513,5.5641-2.5682,3.3012-6.3079,9.4912-10.0154,10.0154-.8065-2.3692-4.255-5.2668-4.4513-5.5641-2.52-3.8164-5.5358-8.3142-7.7897-12.241-1.5013-2.6157-8.7409-12.6985-6.1205-14.4667,37.5241.4255,75.1291-.505,112.3948-5.5641q13.0756,8.3461,26.1513,16.6923Z" style="fill:#f6eab9; stroke-width:0px;"/><path d="m285.3001,624.0249c-8.1945-5.4179,2.2807-3.1198-1.1128-18.9179.1294.1091,1.3969-2.8491,3.3385.5564,2.5834,4.5313,8.9934,25.779-2.2256,18.3615Z" style="fill:#060503; stroke-width:0px;"/><path d="m279.736,600.6557c-2.6489,4.6027-3.9662,4.9405-4.4513,5.5641,5.538-13.7422,11.5906-17.9694,4.4513-5.5641Z" style="fill:#5f5631; stroke-width:0px;"/><path d="m353.7385,592.866c1.6126-.5297,5.6481.3124,5.0077,2.782-1.1808,4.5537-9.5632-1.2857-5.0077-2.782Z" style="fill:#fdfaf2; stroke-width:0px;"/><path d="m415.4999,563.9327c5.3009,6.724-12.3428,15.422-23.3692,15.0231-2.3613,19.9653,6.1417,46.5859-4.4513,47.2948-8.2783-17.4967-37.6648,10.3987-50.6333,1.1128-11.3417-15.6617-23.1122,11.8619-41.1743-4.4513-10.1635-9.1793-1.6318-27.1919,1.1128-10.0154,1.9037-13.8094,3.7367-3.5896,5.5641-4.4513.7498-.3536,2.4553-14.1609,7.7897,3.3385-.0629-9.5668,2.7952-17.0496,5.5641-3.3385,3.2998-9.2932,5.4268-11.6972,6.6769,0,9.9053-16.8656,3.3778,6.3156,5.5641,6.6769.7549-6.5049,4.1555-.6659,6.1205-3.8949-1.7626-11.4666,4.3247-2.711,8.3461,3.8949.8093-22.7135,1.1037-21.2128,6.6769,0q1.6692-7.7897,3.3385-15.5795c7.3951,23.1072-1.9081,22.0722,10.0154,2.2256q1.6692,6.1205,3.3385,12.241c.4556-1.8856,6.7359-11.3603,7.7897-11.1282,2.8848.6353,2.2259,26.8745,11.6846-7.7897,7.448-27.2952-8.1133-14.8559-8.9026-27.2641-.1389-2.1835,2.8222-2.5688,2.2256-5.0077,7.161,16.0807,28.0543,16.3879,36.723,1.1128Z" style="fill:#060503; stroke-width:0px;"/><path d="m303.6616,611.7839c1.2207-.0524,5.3721,9.6503,3.3385,11.1282-4.9936-.7093-6.2985-11.001-3.3385-11.1282Z" style="fill:#ebe8ca; stroke-width:0px;"/><path d="m318.1282,612.8967c2.9378.7916-6.2003,18.1295-.5564.5564.2261-.3364.4301-.5904.5564-.5564Z" style="fill:#bbb8a6; stroke-width:0px;"/><path d="m511.2024,787.6094c1.5889,3.8471,4.9144,8.2809,6.6769,12.241.1925,1.8195-.2008,3.7469,0,5.5641,2.3136,20.9387,4.9125,41.4323,6.6769,62.3179.63,7.4579,1.7217,14.8039,2.2256,22.2564.4725,6.9873-.4585,14.1539,0,21.1436-4.7111,1.034-7.8647-2.2058-8.9026-2.2256-.1905-5.1755.2639-10.4119,0-15.5795,6.7076-21.4959,2.0901-47.7477-2.2256-70.664-.1781-.9456-2.1983-1.5328-2.2256-1.6692-.3906-1.9461-.6596-3.5458-1.1128-5.5641-.0328-.1462,1.8041.2522,1.1128-2.782-.2232-.9796-2.1939-1.5338-2.2256-1.6692-1.9055-8.1369-2.6148-17.0445-5.5641-25.0384q2.782.8346,5.5641,1.6692Z" style="fill:#d53d23; stroke-width:0px;"/><path d="m517.8793,799.8504c-1.7625-3.9601-5.088-8.394-6.6769-12.241-2.5355-6.1389-6.3475-7.3728,2.2256-11.1282.0878,1.1995,2.2886,2.9239,4.4513,23.3692Z" style="fill:#060503; stroke-width:0px;"/><path d="m516.7665,764.2402c-1.5813,2.2665-3.369,10.3617-3.3385,11.1282.0147.37-.027.7448,0,1.1128-8.5731,3.7554-4.7611,4.9893-2.2256,11.1282q-2.782-.8346-5.5641-1.6692c2.9493,7.994,3.6586,16.9016,5.5641,25.0384-9.4685-6.9309-9.3853,2.5597,1.1128,4.4513.4532,2.0183.7222,3.618,1.1128,5.5641-20.9421-3.3509,1.9704,4.5394-1.1128,8.3461-1.4204,1.7536-8.7495-1.5004-8.9026,3.3385-.0782,2.4736,6.5305,4.364,6.6769,5.5641.2246,1.8416-6.0733,3.6194-5.5641,5.5641.7531,2.876,10.4311.8827,12.241,8.9026-.6754,13.6136.4196,27.0438,1.1128,40.6179.2639,5.1676-.1905,10.404,0,15.5795-.4318-.0083-7.5599,1.8085-8.3461,2.2256-9.84,5.2206,8.4387-1.0431,18.3615,5.5641.6523,8.6354.5174,17.2293,3.3385,25.5948-.1147.0018.351,2.2126-.5564,2.2256-21.3177.3069-42.665-.1252-63.9871,0-3.2037-34.7935-6.42-69.6832-7.7897-104.605,4.4664-2.9898,1.5678-41.5924-1.1128-43.4-.1451-.0979-1.2334.2438-1.1128-1.1128,19.4433-9.024,39.4713-17.3056,56.1974-31.1589,1.3443-.179,3.3162.278,3.8949,0Z" style="fill:#ec581e; stroke-width:0px;"/><path d="m458.8999,839.9119c-.5656-14.4207-.2725-28.9685-1.1128-43.4,2.6806,1.8075,5.5792,40.4101,1.1128,43.4Z" style="fill:#2b0300; stroke-width:0px;"/><path d="m513.4281,820.994c.0274.1364,2.0475.7236,2.2256,1.6692,4.3157,22.9163,8.9333,49.1681,2.2256,70.664-.6932-13.5741-1.7882-27.0043-1.1128-40.6179-1.8099-8.0199-11.4879-6.0266-12.241-8.9026-.5092-1.9447,5.7887-3.7225,5.5641-5.5641-.1464-1.2001-6.7552-3.0905-6.6769-5.5641.153-4.8389,7.4822-1.5849,8.9026-3.3385,3.0832-3.8067-19.8293-11.697,1.1128-8.3461Z" style="fill:#060503; stroke-width:0px;"/><path d="m526.7819,911.1324c.0185.2831.7747,1.0886,1.1128,5.5641-9.9228-6.6072-28.2015-.3435-18.3615-5.5641.7863-.4172,7.9143-2.2339,8.3461-2.2256,1.0378.0198,4.1914,3.2597,8.9026,2.2256Z" style="fill:#2b1106; stroke-width:0px;"/><path d="m505.0819,924.4862c1.8028,5.5295,11.3699,6.1456,14.4667,2.2256,4.7717,7.1683-20.6787,8.4436-14.4667-2.2256Z" style="fill:#1d0d07; stroke-width:0px;"/><path d="m511.2024,810.9786c.0317.1354,2.0025.6896,2.2256,1.6692.6912,3.0342-1.1456,2.6359-1.1128,2.782-10.4981-1.8915-10.5814-11.3822-1.1128-4.4513Z" style="fill:#1d0d07; stroke-width:0px;"/><path d="m507.3075,920.0349c10.7631-.4649,11.1147,3.2008,0,2.2256v-2.2256Z" style="fill:#1d0d07; stroke-width:0px;"/><path d="m517.3229,932.2759c1.8868,1.412-1.6829,3.2133-2.2256,3.3385-9.735,2.2459-10.9449-.2432,2.2256-3.3385Z" style="fill:#5d1304; stroke-width:0px;"/><path d="m349.8436,875.5221c-4.311-2.6875-11.9123,17.4176-15.5795,27.2641q15.0231,5.8423,30.0461,11.6846c-.2891,1.807-2.5203.3769-2.2256,2.782.1766,1.4415,14.0707,10.0295,12.241,25.0384-51.1136,1.2959-80.9356,22.2928-57.8666-36.1666,3.0156-7.6417,25.9668-44.7096,32.2718-53.9717,3.7161,8.1885.857,19.6513,1.1128,23.3692Z" style="fill:#015661; stroke-width:0px;"/><path d="m364.3102,914.4708q-15.0231-5.8423-30.0461-11.6846c3.6671-9.8465,11.2685-29.9516,15.5795-27.2641.2515,3.6561,2.767,28.1203,3.3385,29.4897.1841.4411,6.8243,3.9331,7.2333,3.8949,3.2366-.3026,20.9612-32.235,24.482-36.723,1.3158-.2878,16.7922,20.0126,11.1282,22.2564-18.9532,10.5582-11.3114-7.1914-16.6923-6.6769-1.4118.135-14.0523,21.479-15.0231,23.9256-.079.1991,2.2869,2.0001,2.2256,2.2256-.2615.9627-2.2075.4431-2.2256.5564Z" style="fill:#051613; stroke-width:0px;"/><path d="m397.6948,834.3478c-15.0545-1.5948-.9324-2.9633-5.0077-8.9026-20.3589,18.0926,17.8099,8.2353-1.6692,13.9102,12.3468,3.7153,8.5294,28.0959,8.9026,49.5205.1407,8.0755,3.1275,14.5475,2.2256,16.1359-30.5243,6.8692-15.2217,8.9316-3.3385,3.8949q2.782,16.6923,5.5641,33.3846c-9.9955-.0138-20.0584-.2532-30.0461,0,1.8297-15.0089-12.0644-23.5969-12.241-25.0384-.2947-2.4052,1.9365-.975,2.2256-2.782.0181-.1133,1.9641.4063,2.2256-.5564.0613-.2256-2.3046-2.0266-2.2256-2.2256.9707-2.4467,13.6113-23.7907,15.0231-23.9256,5.3808-.5144-2.2609,17.2351,16.6923,6.6769,5.664-2.2438-9.8124-22.5442-11.1282-22.2564-3.5208,4.488-21.2454,36.4205-24.482,36.723-.409.0382-7.0493-3.4538-7.2333-3.8949-.5715-1.3694-3.0869-25.8337-3.3385-29.4897-.2558-3.7179,2.6033-15.1807-1.1128-23.3692,5.1181-7.5186,10.2031-14.7124,16.6923-21.1436,10.0278-2.1276,20.3169-6.683,30.0461-10.0154q1.1128,6.6769,2.2256,13.3538Z" style="fill:#016673; stroke-width:0px;"/><path d="m401.0333,889.9888c1.6967,14.4008,6.8683,15.0635-2.2256,18.9179-11.8832,5.0367-27.1858,2.9743,3.3385-3.8949.9019-1.5884-2.085-8.0603-2.2256-16.1359.9612-.1197,1.0143.2769,1.1128,1.1128Z" style="fill:#104f3c; stroke-width:0px;"/><path d="m374.882,841.0247c1.1967-.0564,7.1576,3.1275,7.2333,3.8949.047.4761-6.7428,6.2094-6.6769,6.6769.8375,5.9423,34.1653-4.169-6.1205,19.4743-2.9366-8.0129-7.4673-29.4317,5.5641-30.0461Z" style="fill:#012324; stroke-width:0px;"/><path d="m457.7871,796.512c.8404,14.4315.5472,28.9792,1.1128,43.4,1.3697,34.9218,4.586,69.8116,7.7897,104.605-15.7758.0926-31.5217-.0156-47.2948,0-.7594.0007-8.1296-2.2161-15.0231-2.2256q-2.782-16.6923-5.5641-33.3846c9.0939-3.8545,3.9223-4.5171,2.2256-18.9179,18.5313-14.7319,12.2759,7.4564,21.7,3.3385,8.5102,17.6028,10.4253-16.13,14.4667,7.7897,16.9108-12.462-15.7563-9.9354,11.6846-21.7-10.1211-3.2226,4.5462-27.5093-10.5718-38.3923-10.4672-7.535-29.5151-5.5007-40.6179-6.6769q-1.1128-6.6769-2.2256-13.3538c19.6492-6.73,42.2285-16.7874,61.2051-25.5948-.1206,1.3566.9677,1.0149,1.1128,1.1128Z" style="fill:#c3b827; stroke-width:0px;"/><path d="m397.6948,834.3478c11.1028,1.1762,30.1507-.8581,40.6179,6.6769,15.118,10.883.4507,35.1697,10.5718,38.3923-27.4409,11.7646,5.2262,9.238-11.6846,21.7-4.0413-23.9197-5.9564,9.8131-14.4667-7.7897-9.4241,4.118-3.1687-18.0703-21.7-3.3385-.0985-.8359-.1516-1.2326-1.1128-1.1128-.3732-21.4246,3.4442-45.8052-8.9026-49.5205,19.4792-5.6749-18.6896,4.1823,1.6692-13.9102,4.0753,5.9392-10.0468,7.3078,5.0077,8.9026Z" style="fill:#060503; stroke-width:0px;"/><path d="m404.9282,835.4606c3.1275-.793,23.1355,2.9225,26.7077,4.4513,17.499,7.4887,10.3035,21.7694,11.6846,37.2795-18.3845,17.1076-11.7884,5.9873-41.1743-10.0154q-.5564-14.4667-1.1128-28.9333c.1366-.5092,3.476-2.6758,3.8949-2.782Z" style="fill:#c3b827; stroke-width:0px;"/><path d="m402.7025,875.5221c4.7065-1.3239,4.7065,9.1137,0,7.7897-2.3756-.6683-2.3756-7.1215,0-7.7897Z" style="fill:#c3b827; stroke-width:0px;"/><path d="m530.1203,758.6761c-2.9802.9914-10.2299,4.0634-13.3538,5.5641-.5787.278-2.5506-.179-3.8949,0-16.7261,13.8533-36.7541,22.1349-56.1974,31.1589-18.9766,8.8074-41.5558,18.8648-61.2051,25.5948-9.7292,3.3323-20.0184,7.8878-30.0461,10.0154-22.4827,4.7701-62.7502,8.877-76.7845-13.9102-9.8302-15.9611-35.9878-124.7866-23.3692-138.546,5.3572-5.8416,38.401-6.7764,47.8512-7.7897-1.7338,8.6705-10.202,73.2916-7.2333,75.6717,14.929-2.9247,59.3492-22.447,65.6563-23.3692,1.3073-.1911-.8195,2.6148,1.6692,2.2256,5.3843-.8419,11.2357-1.4987,16.6923-2.2256,36.0693-4.8055,73.5476-5.0746,107.9435-18.3615q-6.6769-43.6782-13.3538-87.3563c4.1182,18.4241,9.0422,36.7156,13.3538,55.0846,5.1668,22.0121,8.6261,74.7028,32.2718,86.2435Z" style="fill:#060503; stroke-width:0px;"/><path d="m496.1794,711.9377c17.8813,23.8896-32.6428,49.5545-50.0769,54.5282-18.4738,5.2703-72.2638,6.026-92.364,4.4513-47.5925-3.7284-19.5199-13.2749,15.5795-40.0615,37.8305-3.7592,83.7385-5.9208,120.1845-14.4667.3906-.0916,5.0762-4.0148,6.6769-4.4513Z" style="fill:#1d0d07; stroke-width:0px;"/><path d="m387.6795,665.1993c-.018,2.2254.0123,4.4514,0,6.6769-7.9238,9.575-9.8609,38.0342-14.4667,53.4153-2.4888.3891-.3619-2.4168-1.6692-2.2256-6.3072.9222-50.7273,20.4445-65.6563,23.3692-2.9687-2.3802,5.4995-67.0012,7.2333-75.6717,18.1934-1.951,36.2762-3.2999,54.5282-4.4513,6.6796-.4213,13.328-1.2145,20.0308-1.1128Z" style="fill:#1d0d07; stroke-width:0px;"/><path d="m387.6795,671.8762c.0801,9.2717-.1091,18.5495,0,27.8205.0926,7.8668-1.3972,17.3668,2.2256,23.3692-5.4566.727-11.308,1.3838-16.6923,2.2256,4.6058-15.3811,6.5428-43.8404,14.4667-53.4153Z" style="fill:#02745d; stroke-width:0px;"/><path d="m408.823,403.6867c.0273.7385-.059,1.492,0,2.2256.7119,8.8485,32.7369,54.801,32.2718,72.8897q.8346.8346,1.6692,1.6692c23.3555-17.1844,16.1651-8.5611,1.6692,7.2333-6.1864,8.5062,13.4823,50.9281,16.1359,51.7461,3.2607,1.0051,4.3184-4.7296,7.2333-.5564-6.6296,5.5757,4.4159,17.2281,6.6769,25.0384,1.5282,5.2788,2.1489,5.2745,2.2256,5.5641,1.1354,4.286,3.3625,28.0446,7.7897,47.8512q6.6769,43.6782,13.3538,87.3563c-34.3959,13.2869-71.8742,13.556-107.9435,18.3615-3.6228-6.0024-2.133-15.5024-2.2256-23.3692,4.5729-.6952.7538,11.2424,2.782,21.1436,6.0456-.9966,12.2612-1.7346,18.3615-2.2256,10.1373-.8159,69.6614-8.0556,74.0025-11.1282,1.2058-.8534-.3416-3.1664,1.6692-3.3385,2.5663,4.3353,10.207.5108,10.5718,0,3.1352-4.3897-14.7572-85.741-15.0231-98.4845-2.3883-7.3376-4.8765-5.183-6.6769-9.459-1.5381-3.653-11.3624-31.9377-15.5795-23.9256-3.237,6.1501,6.3319,14.6067-16.1359,8.3461-1.4618.8989,5.0923,11.7507,11.6846,32.2718q-9.459-3.0603-18.9179-6.1205c-3.9984-10.8974-17.8657-51.3613-18.9179-42.8435-8.6688,15.2751-29.5621,14.9679-36.723-1.1128-1.477-3.3168-9.285-43.5532-18.9179-70.1076,2.3615,1.2292,7.7586-12.0122,7.7897-12.7974.0657-1.6578-7.8603-32.9574-13.3538-22.8128-6.4228,1.2994-5.5222-8.7006-9.459-10.0154-1.3046-.4357-18.5925.9986-23.9256,1.1128-.276-1.944,2.4818-4.588,3.8949-5.5641,7.6149-5.2604,68.8447-33.444,84.0179-38.9487Z" style="fill:#ec581e; stroke-width:0px;"/><path d="m431.0794,397.0098c8.375,9.6309,18.3693,17.6997,25.5948,28.3769,4.9564,7.324,15.9553,28.1783,15.5795,36.1666h-2.2256c-2.0605-16.9514-14.4652,11.587-21.1436,3.8949-7.0176-8.0828,8.6457-15.7748,1.6692-17.2487-5.3288-1.1258-2.6629,20.536-23.9256-22.8128.772-4.8218,6.1728,2.1713,10.0154,1.1128l-30.0461-38.3923c1.2204-16.6688,11.0999-9.0746,14.4667-10.0154,2.7489-.7681,2.7157-1.4214,4.4513-2.2256,18.4326-8.5414,19.4176-20.6056,0,15.0231-.6039,4.0674,4.1694,4.5167,5.5641,6.1205Z" style="fill:#ec581e; stroke-width:0px;"/><path d="m470.0281,461.5533c.0669.5503-2.7632,9.5702-3.3385,10.5718-10.4314,18.1625-23.3629,1.6185-7.7897,45.0692.425,1.1858-2.1075,17.9529,13.9102,15.5795,4.3445,8.4617-9.6703,12.6254,2.782,28.9333l-1.1128,2.2256c-2.261-7.8104-13.3065-19.4627-6.6769-25.0384-2.9149-4.1731-3.9726,1.5615-7.2333.5564-2.6535-.818-22.3222-43.2399-16.1359-51.7461,14.4958-15.7944,21.6863-24.4177-1.6692-7.2333q-.8346-.8346-1.6692-1.6692c.4651-18.0887-31.5598-64.0412-32.2718-72.8897,2.9794-1.4766.0596-3.1825,0-3.3385-1.7679-4.6286-2.5841-9.5709-2.2256-14.4667l30.0461,38.3923c-3.8426,1.0585-9.2434-5.9346-10.0154-1.1128,21.2627,43.3488,18.5969,21.687,23.9256,22.8128,6.9764,1.4739-8.6868,9.1659-1.6692,17.2487,6.6784,7.6921,19.083-20.8463,21.1436-3.8949Z" style="fill:#060503; stroke-width:0px;"/><path d="m359.859,492.7122c-2.4118-6.6486-5.2965-16.5079-8.9026-22.2564,6.9163-4.7593.2908-7.726,3.3385-13.3538,5.4935-10.1446,13.4195,21.155,13.3538,22.8128-.0311.7853-5.4283,14.0267-7.7897,12.7974Z" style="fill:#d53d23; stroke-width:0px;"/><path d="m466.6896,651.8454c2.4476,2.8392,5.2329,15.4135,17.8051,15.5795-2.5693,2.1129-4.5409.4126-5.5641,1.6692-1.1205,1.3761,4.6601,33.5267,5.5641,35.0538-2.0108.172-.4635,2.485-1.6692,3.3385-4.3411,3.0725-63.8652,10.3123-74.0025,11.1282-3.715-26.2614-2.3729-52.799-10.0154-78.4538-.0423-4.4801,2.6062-5.2741,4.4513-9.459,2.0643-.7687,2.5706-3.4583,5.5641-1.6692,3.7114,2.2181,18.1895,66.0917,52.8589,18.3615,2.7948,3.5857,4.7889,4.1975,5.0077,4.4513Z" style="fill:#ec581e; stroke-width:0px;"/><path d="m460.0127,591.7532q3.8949,11.9628,7.7897,23.9256h2.2256c1.0154-1.8096-1.3423-11.4823-2.2256-13.9102q2.782-2.782,5.5641-5.5641c1.8004,4.276,4.2886,2.1214,6.6769,9.459.2658,12.7436,18.1582,94.0948,15.0231,98.4845-.3648.5108-8.0055,4.3353-10.5718,0-.904-1.5271-6.6846-33.6777-5.5641-35.0538,1.0232-1.2567,2.9948.4437,5.5641-1.6692,1.7557-1.4439,3.3322-2.4543,2.2256-5.0077-2.9598-6.8293-12.1328,8.9902-18.9179-12.241-2.1206-6.6355-1.5398-18.0214-3.3385-22.8128,3.6818,2.8896,2.809-8.5928,2.2256-10.5718-.9255-3.1396-8.6033-9.4159-8.9026-10.0154-1.5416-3.0878-6.3652-15.8844-3.8949-17.2487,6.9407.2569,5.6082,1.8965,6.1205,2.2256Z" style="fill:#ec581e; stroke-width:0px;"/><path d="m473.3666,596.2045q-2.782,2.782-5.5641,5.5641c-1.5153-4.1649-4.0032-7.5827-7.7897-10.0154-.5123-.3291.8201-1.9687-6.1205-2.2256-2.4703,1.3643,2.3533,14.1609,3.8949,17.2487.2993.5995,7.9771,6.8758,8.9026,10.0154.5834,1.9789,1.4562,13.4614-2.2256,10.5718-1.0952-2.9175-7.3385-9.4196-10.0154-11.1282-.9983-1.2398-.7874-2.3254-1.1128-3.3385-6.5923-20.5211-13.1464-31.3728-11.6846-32.2718,22.4678,6.2606,12.8989-2.1961,16.1359-8.3461,4.2171-8.012,14.0414,20.2726,15.5795,23.9256Z" style="fill:#f16d47; stroke-width:0px;"/><path d="m453.3358,612.8967c.3254,1.013.1145,2.0987,1.1128,3.3385-2.7997-1.787-22.0733-9.4194-22.2564-5.0077,29.5027,8.5136,30.5625,11.4417,34.4974,40.6179-.2187-.2538-2.2129-.8656-5.0077-4.4513-34.6694,47.7301-49.1475-16.1434-52.8589-18.3615-2.9935-1.789-3.4998.9006-5.5641,1.6692,7.9998-18.1446-9.7931-1.192-3.8949,3.3385.2034.1562,2.0565-2.6539,3.8949-3.3385-1.8451,4.1849-4.4936,4.9789-4.4513,9.459,7.6425,25.6548,6.3004,52.1923,10.0154,78.4538-6.1003.491-12.3159,1.229-18.3615,2.2256-2.0283-9.9012,1.7908-21.8387-2.782-21.1436-.1091-9.271.0801-18.5488,0-27.8205.0123-2.2255-.018-4.4515,0-6.6769.0138-1.6997,2.2173-.8044,2.2256-1.6692.0626-6.4456-.5506-33.7391-2.2256-37.2795,10.5929-.7089,2.09-27.3295,4.4513-47.2948,11.0264.3989,28.6701-8.2991,23.3692-15.0231,1.0523-8.5177,14.9195,31.9462,18.9179,42.8435q9.459,3.0603,18.9179,6.1205Z" style="fill:#ec581e; stroke-width:0px;"/><path d="m430.523,616.2352c2.256,10.1522,9.3876,7.9722,11.6846,12.7974,6.1131,12.8412-12.9701,14.425-13.3538,15.5795-.0945.2843,3.4154,2.0334,2.2256,5.5641-1.6903,5.0159-12.866,1.2228-10.0154-8.9026,1.4763-5.2438,14.0542-5.7554,14.4667-10.0154.4504-4.6514-14.0716-4.205-5.0077-15.0231Z" style="fill:#060503; stroke-width:0px;"/><path d="m454.4486,616.2352c2.6769,1.7086,8.9202,8.2107,10.0154,11.1282,1.7987,4.7914,1.2179,16.1773,3.3385,22.8128,6.7851,21.2313,15.9581,5.4117,18.9179,12.241,1.1066,2.5534-.4699,3.5638-2.2256,5.0077-12.5722-.166-15.3575-12.7402-17.8051-15.5795-3.9349-29.1763-4.9947-32.1043-34.4974-40.6179.183-4.4117,19.4567,3.2207,22.2564,5.0077Z" style="fill:#2b0300; stroke-width:0px;"/><path d="m403.2589,630.7019c-1.8384.6846-3.6914,3.4947-3.8949,3.3385-5.8983-4.5305,11.8947-21.4831,3.8949-3.3385Z" style="fill:#1d0d07; stroke-width:0px;"/><path d="m467.8025,601.7686c.8833,2.428,3.241,12.1006,2.2256,13.9102h-2.2256q-3.8949-11.9628-7.7897-23.9256c3.7865,2.4327,6.2745,5.8505,7.7897,10.0154Z" style="fill:#5d1304; stroke-width:0px;"/><path d="m571.2947,681.8916c1.8284,2.9293,1.1032,8.3987,10.0154,11.6846-.5118,8.9843.3004,17.6308,3.3385,26.1513-.3191,6.5384-8.096,8.3222-8.9026,8.9026-8.2584-.8865-17.5348-9.1996-17.8051-17.2487-.2445-7.2806,15.4344-9.9922-1.1128-21.1436,4.8269-7.1782,7.1473-20.0731,14.4667-8.3461Z" style="fill:#e0ba99; stroke-width:0px;"/><path d="m599.1152,729.7428q-.5564,2.2256-1.1128,4.4513c-2.11-2.6203-13.9612-11.17-14.4667-2.2256-2.9713-2.5105-6.5825,1.7083-11.1282,3.3385-.4931.1768-3.4459-.1121-6.6769,1.1128v-2.2256c7.4459,1.4501,9.5083-5.1993,10.0154-5.5641.8066-.5803,8.5835-2.3641,8.9026-8.9026,7.2029-3.8178,5.1661,4.3326,14.4667,10.0154Z" style="fill:#ae9253; stroke-width:0px;"/><path d="m546.8126,677.4403c2.0554,9.9531,9.605,1.2328,7.7897,9.459-1.9017,8.6179-13.9369,15.7004-21.1436,19.4743-2.9002,1.5187-7.9614,5.5945-11.1282,5.5641-.3469-.0033-.792.0793-1.1128,0-4.7827-19.2576,5.1719-35.4497,25.5948-34.4974Z" style="fill:#843f0d; stroke-width:0px;"/><path d="m583.5357,731.9684c-.173,3.0614,9.7067,15.8968-11.1282,26.7077-1.3751-11.4076-6.2161-4.3071-20.0308-3.3385-9.8437.6902-16.346-3.5337-17.8051,1.1128-.3285.1187-.7924-.1259-1.1128,0q-2.782-7.7897-5.5641-15.5795c1.323-.1078,3.1011.1793,3.3385,0,2.22,7.1539,12.1291,9.6392,18.9179,10.0154,12.4308.6889,20.9289-4.1763,22.2564-15.5795,4.5457-1.6302,8.1568-5.849,11.1282-3.3385Z" style="fill:#06231b; stroke-width:0px;"/><path d="m563.5049,733.0813c-2.5462,1.16-5.1823.7581-7.7897,1.1128-13.3307-13.9098-4.0862-4.9881-12.7974-5.5641-3.1691-.2095-16.8344-12.8025-20.5872-15.5795v-1.1128c3.1668.0304,8.228-4.0454,11.1282-5.5641-.0763,5.1064,5.2798-.3582,11.6846,2.2256,5.2273,2.1088,17.0947,23.6238,18.3615,24.482Z" style="fill:#3a2204; stroke-width:0px;"/><path d="m555.7152,734.1941c-25.6469,3.4884,1.4799,5.2529,10.0154,1.1128v1.1128c-5.5644,2.1095-9.3074,6.6347-16.6923,6.6769-9.5111.0545-13.1056-6.6175-13.9102-6.6769-2.8344-.2093-3.0124,3.7844-3.8949,4.4513-.2373.1793-2.0155-.1078-3.3385,0q-2.782-13.9102-5.5641-27.8205c3.7528,2.777,17.4181,15.3699,20.5872,15.5795,8.7112.576-.5333-8.3457,12.7974,5.5641Z" style="fill:#060503; stroke-width:0px;"/><path d="m572.4075,758.6761c-6.5376,3.3923-12.546,5.441-20.0308,5.5641-3.9375-2.0868-1.2452-5.6332,0-8.9026,13.8147-.9686,18.6556-8.0692,20.0308,3.3385Z" style="fill:#02745d; stroke-width:0px;"/><path d="m552.3767,755.3376c-1.2452,3.2694-3.9375,6.8157,0,8.9026-2.7628.0454-8.2437.3542-9.459,0-5.1574-1.5032-4.7356-7.3964-8.3461-7.7897,1.4591-4.6466,7.9614-.4226,17.8051-1.1128Z" style="fill:#01312d; stroke-width:0px;"/><path d="m563.5049,733.0813c.5727.388,1.5354.9784,2.2256,1.1128v1.1128c-8.5354,4.1401-35.6623,2.3756-10.0154-1.1128,2.6074-.3547,5.2436.0471,7.7897-1.1128Z" style="fill:#daf0de; stroke-width:0px;"/><path d="m572.4075,675.2146c-.3012,3.4907.8343,6.7308-1.1128,6.6769-7.3194-11.7269-9.6397,1.1679-14.4667,8.3461,16.5472,11.1514.8683,13.863,1.1128,21.1436.2703,8.0491,9.5467,16.3622,17.8051,17.2487-.5071.3648-2.5695,7.0142-10.0154,5.5641-.6903-.1344-1.6529-.7249-2.2256-1.1128-1.2668-.8582-13.1342-22.3732-18.3615-24.482-6.4048-2.5839-11.7609,2.8807-11.6846-2.2256,7.2066-3.7739,19.2418-10.8564,21.1436-19.4743,1.8153-8.2262-5.7343.4941-7.7897-9.459,7.8139-10.5456,17.3604-14.509,25.5948-2.2256Z" style="fill:#1d0d07; stroke-width:0px;"/><path d="m557.3844,695.2454c3.6214-3.0142,7.1729,8.9943,2.2256,8.9026-2.1913-.0406-4.1274-7.3197-2.2256-8.9026Z" style="fill:#e7e0d4; stroke-width:0px;"/><path d="m572.4075,735.3069c-1.3275,11.4031-9.8256,16.2684-22.2564,15.5795q-.5564-3.8949-1.1128-7.7897c7.3849-.0422,11.1279-4.5674,16.6923-6.6769,3.231-1.2249,6.1838-.936,6.6769-1.1128Z" style="fill:#5d3708; stroke-width:0px;"/><path d="m549.0383,743.0966q.5564,3.8949,1.1128,7.7897c-6.7888-.3762-16.6979-2.8614-18.9179-10.0154.8825-.6668,1.0605-4.6606,3.8949-4.4513.8046.0594,4.3991,6.7314,13.9102,6.6769Z" style="fill:#3a2204; stroke-width:0px;"/><path d="m560.7332,336.317c1.059,1.1761,2.2171,2.3286,3.5077,3.2529,1.1341.8122,2.4545,1.4303,3.7316,1.9794,2.726,1.172,5.6302,1.9796,8.5249,2.6148,3.4575.7587,6.8527,1.7591,10.3069,2.5269,1.7802.3957,3.5989.7241,5.4211.8331,1.7549.1049,3.514.1837,5.2671.3135,1.9904.1475,3.9741.4229,5.9641.589,2.0974.1751,4.2035.233,6.2983.4232,1.1326.1028,2.2171-1.0706,2.168-2.168-.0488-1.0892-.9582-2.2747-2.168-2.168-3.4984.3086-7.0934.0487-10.5947-.1366-1.7605-.0931-3.5021-.3184-5.2518-.5295-1.7007-.2052-3.408-.3003-5.1076-.5047-3.2775-.3942-6.6695-1.2511-10.0008-1.7666-2.924-.4524-5.7778-.917-8.5502-1.9936-1.3759-.5343-2.7019-1.204-3.9573-1.9797-1.4095-.8709-2.8459-1.6638-4.1541-2.6915-.9869-.7753-2.2824.431-1.4052,1.4052h0Z" style="stroke-width:0px;"/><path d="m769.591,535.5889c-.4774-.2891-1.0005-.4846-1.5159-.6954l.7216.3045c-.711-.3386-1.3575-.6336-2.1616-.6424-.2627-.0029-.5249.0194-.7855.05-.81.0951-1.6181.1949-2.3849.4831-.5286.1987-1.0569.3983-1.5337.7012-.4899.3111-.9513.6832-1.3952,1.0508-.6658.5513-1.2209,1.2747-1.6861,1.9922-.9875,1.5233-1.4014,3.6029-.8324,5.3565.4497,1.386,1.3072,2.4149,2.5053,3.2163.8722.5834,1.9132.7993,2.9397.8617,2.254.1371,4.3723-1.2735,5.4975-3.1502.3301-.5184.5087-1.0782.536-1.6793.1344-.6003.1076-1.2007-.0807-1.801-.1397-.5878-.4092-1.0997-.8084-1.536-.3185-.4917-.7409-.8795-1.2672-1.1633-1.0482-.5538-2.318-.8314-3.4803-.4553-1.0936.3539-2.1459,1.0311-2.6992,2.0756-.0628.1185-.1324.2299-.2128.3372l.7046-.912c-.097.1223-.2039.232-.3255.3299l.9095-.7026c-.1141.0866-.2346.1588-.3655.2171l1.0707-.4519c-.1251.0514-.2526.0877-.3862.1089l1.1888-.1597c-.1439.0187-.2857.0189-.4296-.0001l1.1857.1593c-.1266-.0205-.2475-.0547-.3659-.104l1.0631.4486c-.1041-.0471-.2006-.1034-.2926-.1712l.8988.6944c-.1036-.0813-.1941-.1727-.2746-.2769l.6928.8967c-.0991-.1368-.188-.2824-.2542-.4381l.4424,1.0484c-.0567-.1452-.0941-.2932-.116-.4474l.1549,1.1531c-.0228-.1994-.0197-.3963.0033-.5956l-.1526,1.1355c.0444-.3192.1348-.624.2555-.9223l-.4199.9949c.1828-.4296.4165-.8287.7001-1.1995l-.6271.8117c.4263-.5412.9478-1.0448,1.4886-1.4712l-.7455.576c.3005-.2308.6163-.4398.9512-.6174.161-.0854.3309-.1546.4865-.2478.3516-.2106.6475-.5177.9696-.7715l-.6199.4789c.2195-.1681.4791-.2922.7319-.4019l-.6281.2651c.0456-.0194.0915-.038.1376-.0561.4124-.1646.809-.3379,1.1294-.6582.4003-.4003.6294-.9151.7039-1.4696.1365-1.0156-.3359-2.0136-1.2219-2.5502h0Z" style="stroke-width:0px;"/><path d="m781.3081,549.5022c-.4774-.2891-1.0005-.4846-1.5159-.6954l.7216.3045c-.711-.3386-1.3575-.6336-2.1616-.6424-.2627-.0029-.5249.0194-.7855.05-.81.0951-1.6181.1949-2.3849.4831-.5286.1987-1.0569.3983-1.5337.7012-.4899.3111-.9513.6832-1.3952,1.0508-.6658.5513-1.2209,1.2747-1.6861,1.9922-.9875,1.5233-1.4014,3.6029-.8324,5.3565.4497,1.386,1.3072,2.4149,2.5053,3.2163.8722.5834,1.9132.7993,2.9397.8617,2.254.1371,4.3723-1.2735,5.4975-3.1502.3301-.5184.5087-1.0782.536-1.6793.1344-.6003.1076-1.2007-.0807-1.801-.1397-.5878-.4092-1.0997-.8084-1.536-.3185-.4917-.7409-.8795-1.2672-1.1633-1.0482-.5538-2.318-.8314-3.4803-.4553-1.0936.3539-2.1459,1.0311-2.6992,2.0756-.0628.1185-.1324.2299-.2128.3372l.7046-.912c-.097.1223-.2039.232-.3255.3299l.9095-.7026c-.1141.0866-.2346.1588-.3655.2171l1.0707-.4519c-.1251.0514-.2526.0877-.3862.1089l1.1888-.1597c-.1439.0187-.2857.0189-.4296-.0001l1.1857.1593c-.1266-.0205-.2475-.0547-.3659-.104l1.0631.4486c-.1041-.0471-.2006-.1034-.2926-.1712l.8988.6944c-.1036-.0813-.1941-.1727-.2746-.2769l.6928.8967c-.0991-.1368-.188-.2824-.2542-.4381l.4424,1.0484c-.0567-.1452-.0941-.2932-.116-.4474l.1549,1.1531c-.0228-.1994-.0197-.3963.0033-.5956l-.1526,1.1355c.0444-.3192.1348-.624.2555-.9223l-.4199.9949c.1828-.4296.4165-.8287.7001-1.1995l-.6271.8117c.4263-.5412.9478-1.0448,1.4886-1.4712l-.7455.576c.3005-.2308.6163-.4398.9512-.6174.161-.0854.3309-.1546.4865-.2478.3516-.2106.6475-.5177.9696-.7715l-.6199.4789c.2195-.1681.4791-.2922.7319-.4019l-.6281.2651c.0456-.0194.0915-.038.1376-.0561.4124-.1646.809-.3379,1.1294-.6582.4003-.4003.6294-.9151.7039-1.4696.1365-1.0156-.3359-2.0136-1.2219-2.5502h0Z" style="stroke-width:0px;"/><path d="m758.961,555.3904c-.4774-.2891-1.0005-.4846-1.5159-.6954l.7216.3045c-.711-.3386-1.3575-.6336-2.1616-.6424-.2627-.0029-.5249.0194-.7855.05-.81.0951-1.6181.1949-2.3849.4831-.5286.1987-1.0569.3983-1.5337.7012-.4899.3111-.9513.6832-1.3952,1.0508-.6658.5513-1.2209,1.2747-1.6861,1.9922-.9875,1.5233-1.4014,3.6029-.8324,5.3565.4497,1.386,1.3072,2.4149,2.5053,3.2163.8722.5834,1.9132.7993,2.9397.8617,2.254.1371,4.3723-1.2735,5.4975-3.1502.3301-.5184.5087-1.0782.536-1.6793.1344-.6003.1076-1.2007-.0807-1.801-.1397-.5878-.4092-1.0997-.8084-1.536-.3185-.4917-.7409-.8795-1.2672-1.1633-1.0482-.5538-2.318-.8314-3.4803-.4553-1.0936.3539-2.1459,1.0311-2.6992,2.0756-.0628.1185-.1324.2299-.2128.3372l.7046-.912c-.097.1223-.2039.232-.3255.3299l.9095-.7026c-.1141.0866-.2346.1588-.3655.2171l1.0707-.4519c-.1251.0514-.2526.0877-.3862.1089l1.1888-.1597c-.1439.0187-.2857.0189-.4296-.0001l1.1857.1593c-.1266-.0205-.2475-.0547-.3659-.104l1.0631.4486c-.1041-.0471-.2006-.1034-.2926-.1712l.8988.6944c-.1036-.0813-.1941-.1727-.2746-.2769l.6928.8967c-.0991-.1368-.188-.2824-.2542-.4381l.4424,1.0484c-.0567-.1452-.0941-.2932-.116-.4474l.1549,1.1531c-.0228-.1994-.0197-.3963.0033-.5956l-.1526,1.1355c.0444-.3192.1348-.624.2555-.9223l-.4199.9949c.1828-.4296.4165-.8287.7001-1.1995l-.6271.8117c.4263-.5412.9478-1.0448,1.4886-1.4712l-.7455.576c.3005-.2308.6163-.4398.9512-.6174.161-.0854.3309-.1546.4865-.2478.3516-.2106.6475-.5177.9696-.7715l-.6199.4789c.2195-.1681.4791-.2922.7319-.4019l-.6281.2651c.0456-.0194.0915-.038.1376-.0561.4124-.1646.809-.3379,1.1294-.6582.4003-.4003.6294-.9151.7039-1.4696.1365-1.0156-.3359-2.0136-1.2219-2.5502h0Z" style="stroke-width:0px;"/></g><g id="Layer_3"><path d="m535.0754,558.883c10.7102-8.9328,18.5608-20.6183,26.623-31.8526,1.109-1.5453,2.2272-3.084,3.3646-4.6086.5871-.787,1.1643-1.5845,1.728-2.3885.5557-.7926.9784-1.6947,1.456-2.5371.8164-1.4399-1.0567-2.8292-2.251-1.7368-.6152.5627-1.2639,1.1098-1.8425,1.7102-.6258.6494-1.1684,1.4103-1.725,2.1195-1.1002,1.4017-2.1353,2.8593-3.1792,4.303-2.0241,2.7994-4.0259,5.6163-6.008,8.4455-3.9154,5.5884-7.7719,10.9436-12.2707,16.0299-2.5653,2.9002-5.2971,5.6514-8.2312,8.1794-.6762.5826-.5979,1.7382,0,2.3361.6786.6786,1.6488.5732,2.3361,0h0Z" style="fill:#fff; stroke-width:0px;"/><path d="m534.4276,591.3373c2.7459-3.5463,5.7617-6.9458,9.0179-10.0324,3.2623-3.0924,6.6372-6.0709,9.9813-9.0743,6.7394-6.0527,13.4326-12.1342,19.0015-19.3186,1.6865-2.1757,3.2919-4.3894,4.6988-6.7579.7774-1.3087,1.4457-2.6087,2.0312-4.016.2367-.5689.5177-1.1519.6787-1.7473.1717-.635.2571-1.3076.3664-1.9557.2047-1.2128-.1235-2.5848-1.3061-3.2097-1.0227-.5404-2.6586-.5632-3.4442.4444-.8209,1.0527-1.6544,2.0652-2.3633,3.1993-.6031.9649-1.1806,1.9349-1.7571,2.9159-1.1246,1.9139-2.3441,3.7817-3.6148,5.6016-.6433.9214-1.307,1.8285-1.9881,2.7223-.0757.0993-.1519.1983-.2277.2975-.2833.3706.5682-.7261.1472-.1919-.1553.197-.3095.3948-.4654.5912-.351.4422-.706.8813-1.0647,1.3174-1.4383,1.7491-2.9347,3.4499-4.4677,5.1165-6.1084,6.6404-12.6244,12.9084-18.5803,19.6866-3.4081,3.8787-6.7797,7.7842-9.734,12.0268-.5601.8043-.2133,1.9819.5068,2.5383.6956.5374,1.9829.6219,2.5836-.1538h0Z" style="fill:#fff; stroke-width:0px;"/><path d="m545.0993,608.1067c4.6297-5.0386,10.2297-8.9238,15.7113-12.9477,5.7448-4.2171,11.3777-8.7555,15.7446-14.4383,1.1367-1.4793,2.2322-3.0405,3.0784-4.7074.4899-.9651.9196-1.9647,1.3152-2.9717.2166-.5513.4351-1.0854.4924-1.6804.0463-.4809.0569-.9681.0681-1.4508.0347-1.4913-1.919-1.8562-2.6708-.7234-.2314.3487-.4685.6935-.7137,1.0327-.1808.2501-.2895.5157-.4085.8019-.0433.1042-.085.2091-.1284.3133.0718-.1723.0584-.1352-.008.0138-.3509.7873-.7241,1.5624-1.1353,2.3202-.7909,1.4575-1.6163,2.8859-2.568,4.2457-.2373.339-.48.6742-.7279,1.0055-.0533.0713-.3607.4737-.2529.3345.1299-.1675-.0401.0504-.0551.0692-.0866.1083-.1721.2175-.2589.3257-.5403.673-1.1003,1.3301-1.6768,1.9723-1.1281,1.2568-2.3182,2.457-3.547,3.6151-5.0382,4.7483-10.6297,8.8803-15.8372,13.4371-2.8142,2.4626-5.5299,5.055-7.8988,7.9553-.8341,1.0212.5517,2.4845,1.4772,1.4772h0Z" style="fill:#fff; stroke-width:0px;"/><path d="m559.6897,627.0527c2.7849-2.6993,5.6706-5.2916,8.4883-7.9562,2.8158-2.6629,5.6703-5.3866,8.0861-8.4263.7359-.926,1.4911-1.8463,2.0821-2.8728.5617-.9755,1.0886-1.97,1.5817-2.982.402-.8251.2944-1.8063-.4755-2.3816-.6629-.4953-1.8507-.5896-2.4241.1443-.5764.7377-1.1735,1.4583-1.7927,2.1604-.2998.3399-.6208.6643-.9092,1.0139.0533-.0647-.5352.6914-.3079.3988.159-.2047-.1121.143-.1466.1869-.153.1945-.3071.3881-.4626.5807-1.2082,1.4968-2.4376,2.9753-3.7265,4.4036-2.594,2.8746-5.3622,5.5847-8.1221,8.298-1.5637,1.5373-3.1253,3.0769-4.6538,4.6494-.7181.7387-.7907,2.0569,0,2.7827.7956.7303,1.9927.7657,2.7827,0h0Z" style="fill:#fff; stroke-width:0px;"/><path d="m631.4764,333.2643c1.7386-1.4609,3.3419-3.0536,5.1453-4.4393,1.7414-1.338,3.5032-2.6878,5.3081-3.9378,3.4376-2.3807,7.1713-4.3657,10.4771-6.9278l-.8201.6336c1.2374-.9531,2.5377-1.81,3.766-2.7744l-.8392.6484c.6762-.5177,1.3694-.9879,1.9792-1.5858,1.1016-1.0801,1.3801-2.7902.7919-4.184-.5975-1.4159-1.955-2.3169-3.5002-2.3544-2.6037-.0633-4.7022,1.6779-6.5155,3.3347-1.2363,1.1296-2.2338,2.4644-3.3545,3.7039-3.0303,3.3514-5.533,7.1438-8.3134,10.6993-.7954,1.0171-1.6532,2.0185-2.5947,2.9056-.9184.8654-2.0022,1.605-3.0312,2.3322-1.4507,1.0252.1174,3.1086,1.5013,1.9458h0Z" style="fill:#fff; stroke-width:0px;"/><path d="m638.0313,337.6182c1.2705-.8257,2.6145-1.3972,3.9937-2.0185,1.6707-.7526,3.3152-1.55,4.9158-2.4436,1.5759-.8798,3.073-2.1223,4.3287-3.4225.6065-.628,1.1544-1.3424,1.6253-2.0772.6112-.9538.882-1.869.5892-2.9923-.2607-1.0005-1.6524-1.7247-2.5693-1.0453-.4687.3473-.862.6303-1.1977,1.1272-.1698.2514-.3082.5215-.4719.777-.0991.1546-.2029.3061-.3102.4551-.3469.4816.1354-.1415-.1076.1431-.2302.2696-.4559.5431-.6852.8134-1.094,1.2896-2.3789,2.3919-3.5408,3.6157-2.1558,2.2704-4.4029,4.6081-6.9131,6.4805-.342.2551-.0318.8311.3433.5873h0Z" style="fill:#fff; stroke-width:0px;"/></g></svg>