<svg width="211" height="48" viewBox="0 0 211 48" fill="none" xmlns="http://www.w3.org/2000/svg">
<g clip-path="url(#clip0_56189_45785)">
<path d="M49.363 17.6009H31.5634L30.9276 18.1095V33.9383H35.8225V27.9627L36.2674 27.5178H49.3628C52.6683 27.5178 54.1941 26.6279 54.1941 24.3394V20.7159C54.1943 18.4908 52.6685 17.6009 49.363 17.6009ZM49.363 23.4492C49.363 24.5298 48.6636 24.7205 47.0744 24.7205H36.3311L35.8225 24.2756V20.9065L36.2674 20.4615H47.0742C48.6 20.4615 49.3627 20.6522 49.3627 21.7328L49.363 23.4492ZM63.2211 20.5886L67.4803 26.8184L67.226 27.3905H57.8177L55.402 30.3784H69.3873L70.4044 30.9504L72.5658 33.9382H78.2235L65.8275 17.4102L63.2211 20.5886ZM119.353 30.7597V26.3099L119.862 25.8649H129.334V23.0678H114.331V33.9382H136.453V31.1411H119.925L119.353 30.7597ZM114.331 17.6009H136.644V20.6522H114.331V17.6009ZM89.4754 20.525H107.466C107.211 18.2366 105.749 17.6009 102.189 17.6009H89.2847C85.2163 17.6009 83.9449 18.3638 83.9449 21.4786V30.124C83.9449 33.1754 85.2163 34.0019 89.2847 34.0019H102.189C105.813 34.0019 107.211 33.3025 107.338 30.9504H89.4754L88.9668 30.4418V20.9065L89.4754 20.525ZM18.8495 23.9578H5.81772L5.43628 23.5129V20.7159L5.81772 20.398H23.4265L23.6808 19.8259C23.1086 18.3001 21.5194 17.5374 18.6587 17.5374H6.3898C2.32139 17.5374 1.04997 18.3002 1.04997 21.415V23.2586C1.04997 26.31 2.32139 27.1364 6.3898 27.1364H19.4216L19.803 27.5177V30.4419L19.4852 30.887H0.668534C0.668534 30.887 0.223633 31.1412 0.223633 31.2048C0.541443 33.3662 2.00357 33.9382 5.49983 33.9382H18.8496C22.918 33.9382 24.253 33.1754 24.253 30.0605V27.8355C24.2529 24.7843 22.918 23.9578 18.8495 23.9578ZM150.693 17.5373H143.319L142.937 18.3001L151.074 24.2757C152.6 23.3857 154.316 22.4958 156.096 21.6057L150.693 17.5373ZM157.304 28.7256L164.488 33.9382H171.862L172.179 33.2389L161.5 25.4199C160.101 26.5005 158.639 27.5813 157.304 28.7256Z" fill="#005288"/>
<path d="M149.612 33.9364H142.937L142.365 33.0463C146.879 28.6601 167.094 9.97066 211.021 8C211.021 8 174.214 9.27132 149.612 33.9364Z" fill="#A7A9AC"/>
</g>
<defs>
<clipPath id="clip0_56189_45785">
<rect width="211" height="48" fill="white"/>
</clipPath>
</defs>
</svg>
